<svg width="17" height="17" viewBox="0 0 17 17" fill="none" xmlns="http://www.w3.org/2000/svg">
<path d="M8.125 0C6.51803 0 4.94714 0.476523 3.611 1.36931C2.27485 2.2621 1.23344 3.53105 0.618482 5.0157C0.00352044 6.50035 -0.157382 8.13401 0.156123 9.71011C0.469628 11.2862 1.24346 12.7339 2.37976 13.8702C3.51606 15.0065 4.9638 15.7804 6.53989 16.0939C8.11599 16.4074 9.74966 16.2465 11.2343 15.6315C12.719 15.0166 13.9879 13.9752 14.8807 12.639C15.7735 11.3029 16.25 9.73197 16.25 8.125C16.2477 5.97081 15.391 3.90551 13.8677 2.38227C12.3445 0.85903 10.2792 0.00227486 8.125 0ZM8.125 1.25C9.26922 1.25047 10.3952 1.53652 11.4009 2.08221C12.4067 2.62791 13.2603 3.41598 13.8844 4.375H8.125C7.33561 4.37589 6.56655 4.62545 5.92704 5.08825C5.28754 5.55105 4.81009 6.20356 4.5625 6.95312L2.75938 3.82812C3.40296 3.0233 4.21943 2.37366 5.14828 1.92736C6.07712 1.48107 7.0945 1.24956 8.125 1.25ZM10.625 8.125C10.625 8.61945 10.4784 9.1028 10.2037 9.51393C9.92897 9.92505 9.53853 10.2455 9.08171 10.4347C8.6249 10.6239 8.12223 10.6734 7.63728 10.577C7.15233 10.4805 6.70687 10.2424 6.35724 9.89277C6.00761 9.54314 5.7695 9.09768 5.67304 8.61273C5.57658 8.12777 5.62609 7.62511 5.8153 7.16829C6.00452 6.71148 6.32496 6.32103 6.73608 6.04633C7.1472 5.77162 7.63055 5.625 8.125 5.625C8.78804 5.625 9.42393 5.88839 9.89277 6.35723C10.3616 6.82607 10.625 7.46196 10.625 8.125ZM1.25 8.125C1.24871 7.04246 1.5047 5.97512 1.99688 5.01094L4.87735 10C4.88203 10.0078 4.8875 10.0148 4.89219 10.0219C5.28919 10.6992 5.88878 11.2349 6.60643 11.5534C7.32407 11.8718 8.12356 11.957 8.89219 11.7969L7.0875 14.9219C5.4636 14.6717 3.98267 13.8491 2.91215 12.6027C1.84164 11.3562 1.2521 9.76806 1.25 8.125ZM8.49141 14.9898L11.3727 10C11.3789 9.98906 11.3836 9.97813 11.3898 9.96719C11.7764 9.28553 11.9391 8.49968 11.855 7.72058C11.7709 6.94148 11.4442 6.20846 10.9211 5.625H14.5313C14.9267 6.63822 15.0761 7.7308 14.9672 8.81298C14.8583 9.89517 14.4942 10.9361 13.9048 11.8502C13.3154 12.7643 12.5175 13.5255 11.5767 14.0713C10.6359 14.6171 9.57908 14.9319 8.49297 14.9898H8.49141Z" fill="#162D66"/>
</svg>
