<svg width="39" height="33" viewBox="0 0 39 33" fill="none" xmlns="http://www.w3.org/2000/svg">
<path d="M36 0H3C2.20435 0 1.44129 0.31607 0.87868 0.87868C0.31607 1.44129 0 2.20435 0 3V31.5C0.000136486 31.7557 0.0656148 32.007 0.190218 32.2303C0.314822 32.4535 0.494415 32.6412 0.711948 32.7755C0.929481 32.9098 1.17773 32.9863 1.43314 32.9977C1.68854 33.0091 1.94262 32.955 2.17125 32.8406L7.5 30.1763L12.8287 32.8406C13.0371 32.9449 13.267 32.9992 13.5 32.9992C13.733 32.9992 13.9629 32.9449 14.1713 32.8406L19.5 30.1763L24.8287 32.8406C25.0371 32.9449 25.267 32.9992 25.5 32.9992C25.733 32.9992 25.9629 32.9449 26.1713 32.8406L31.5 30.1763L36.8287 32.8406C37.0574 32.955 37.3115 33.0091 37.5669 32.9977C37.8223 32.9863 38.0705 32.9098 38.2881 32.7755C38.5056 32.6412 38.6852 32.4535 38.8098 32.2303C38.9344 32.007 38.9999 31.7557 39 31.5V3C39 2.20435 38.6839 1.44129 38.1213 0.87868C37.5587 0.31607 36.7956 0 36 0ZM28.5 19.5H10.5C10.1022 19.5 9.72064 19.342 9.43934 19.0607C9.15804 18.7794 9 18.3978 9 18C9 17.6022 9.15804 17.2206 9.43934 16.9393C9.72064 16.658 10.1022 16.5 10.5 16.5H28.5C28.8978 16.5 29.2794 16.658 29.5607 16.9393C29.842 17.2206 30 17.6022 30 18C30 18.3978 29.842 18.7794 29.5607 19.0607C29.2794 19.342 28.8978 19.5 28.5 19.5ZM28.5 13.5H10.5C10.1022 13.5 9.72064 13.342 9.43934 13.0607C9.15804 12.7794 9 12.3978 9 12C9 11.6022 9.15804 11.2206 9.43934 10.9393C9.72064 10.658 10.1022 10.5 10.5 10.5H28.5C28.8978 10.5 29.2794 10.658 29.5607 10.9393C29.842 11.2206 30 11.6022 30 12C30 12.3978 29.842 12.7794 29.5607 13.0607C29.2794 13.342 28.8978 13.5 28.5 13.5Z" fill="#326AFD"/>
</svg>
