<svg width="45" height="33" viewBox="0 0 45 33" fill="none" xmlns="http://www.w3.org/2000/svg">
<path d="M33 9.29437V8.25C33 3.5475 25.9069 0 16.5 0C7.09313 0 0 3.5475 0 8.25V15.75C0 19.6669 4.92188 22.7794 12 23.7113V24.75C12 29.4525 19.0931 33 28.5 33C37.9069 33 45 29.4525 45 24.75V17.25C45 13.3687 40.2338 10.2525 33 9.29437ZM9 20.0381C5.32687 19.0125 3 17.3231 3 15.75V13.1119C4.53 14.1956 6.57938 15.0694 9 15.6562V20.0381ZM24 15.6562C26.4206 15.0694 28.47 14.1956 30 13.1119V15.75C30 17.3231 27.6731 19.0125 24 20.0381V15.6562ZM21 29.0381C17.3269 28.0125 15 26.3231 15 24.75V23.9681C15.4931 23.9869 15.9919 24 16.5 24C17.2275 24 17.9381 23.9756 18.6356 23.9344C19.4105 24.2118 20.1998 24.4471 21 24.6394V29.0381ZM21 20.6719C19.5101 20.892 18.006 21.0016 16.5 21C14.994 21.0016 13.4899 20.892 12 20.6719V16.2112C13.4921 16.4057 14.9953 16.5021 16.5 16.5C18.0047 16.5021 19.5079 16.4057 21 16.2112V20.6719ZM33 29.6719C30.0159 30.1094 26.9841 30.1094 24 29.6719V25.2C25.4916 25.4005 26.995 25.5007 28.5 25.5C30.0047 25.5021 31.5079 25.4057 33 25.2113V29.6719ZM42 24.75C42 26.3231 39.6731 28.0125 36 29.0381V24.6562C38.4206 24.0694 40.47 23.1956 42 22.1119V24.75Z" fill="#326AFD"/>
</svg>
