<svg width="36" height="36" viewBox="0 0 36 36" fill="none" xmlns="http://www.w3.org/2000/svg">
<path d="M33 0H3C2.20435 0 1.44129 0.31607 0.87868 0.87868C0.31607 1.44129 0 2.20435 0 3V33C0 33.7956 0.31607 34.5587 0.87868 35.1213C1.44129 35.6839 2.20435 36 3 36H33C33.7956 36 34.5587 35.6839 35.1213 35.1213C35.6839 34.5587 36 33.7956 36 33V3C36 2.20435 35.6839 1.44129 35.1213 0.87868C34.5587 0.31607 33.7956 0 33 0ZM16.0613 22.0613L10.0613 28.0613C9.92194 28.2007 9.75651 28.3114 9.57441 28.3868C9.39231 28.4623 9.19712 28.5012 9 28.5012C8.80288 28.5012 8.60769 28.4623 8.42559 28.3868C8.24349 28.3114 8.07806 28.2007 7.93875 28.0613L4.93875 25.0613C4.65729 24.7798 4.49917 24.398 4.49917 24C4.49917 23.602 4.65729 23.2202 4.93875 22.9387C5.22021 22.6573 5.60195 22.4992 6 22.4992C6.39805 22.4992 6.77979 22.6573 7.06125 22.9387L9 24.8794L13.9387 19.9387C14.2202 19.6573 14.602 19.4992 15 19.4992C15.398 19.4992 15.7798 19.6573 16.0613 19.9387C16.3427 20.2202 16.5008 20.602 16.5008 21C16.5008 21.398 16.3427 21.7798 16.0613 22.0613ZM16.0613 10.0613L10.0613 16.0613C9.92194 16.2007 9.75651 16.3114 9.57441 16.3868C9.39231 16.4623 9.19712 16.5012 9 16.5012C8.80288 16.5012 8.60769 16.4623 8.42559 16.3868C8.24349 16.3114 8.07806 16.2007 7.93875 16.0613L4.93875 13.0613C4.79938 12.9219 4.68883 12.7564 4.61341 12.5743C4.53799 12.3923 4.49917 12.1971 4.49917 12C4.49917 11.602 4.65729 11.2202 4.93875 10.9387C5.22021 10.6573 5.60195 10.4992 6 10.4992C6.39805 10.4992 6.77979 10.6573 7.06125 10.9387L9 12.8794L13.9387 7.93875C14.2202 7.65729 14.602 7.49917 15 7.49917C15.398 7.49917 15.7798 7.65729 16.0613 7.93875C16.3427 8.22021 16.5008 8.60195 16.5008 9C16.5008 9.39805 16.3427 9.77979 16.0613 10.0613ZM30 25.5H21C20.6022 25.5 20.2206 25.342 19.9393 25.0607C19.658 24.7794 19.5 24.3978 19.5 24C19.5 23.6022 19.658 23.2206 19.9393 22.9393C20.2206 22.658 20.6022 22.5 21 22.5H30C30.3978 22.5 30.7794 22.658 31.0607 22.9393C31.342 23.2206 31.5 23.6022 31.5 24C31.5 24.3978 31.342 24.7794 31.0607 25.0607C30.7794 25.342 30.3978 25.5 30 25.5ZM30 13.5H21C20.6022 13.5 20.2206 13.342 19.9393 13.0607C19.658 12.7794 19.5 12.3978 19.5 12C19.5 11.6022 19.658 11.2206 19.9393 10.9393C20.2206 10.658 20.6022 10.5 21 10.5H30C30.3978 10.5 30.7794 10.658 31.0607 10.9393C31.342 11.2206 31.5 11.6022 31.5 12C31.5 12.3978 31.342 12.7794 31.0607 13.0607C30.7794 13.342 30.3978 13.5 30 13.5Z" fill="#326AFD"/>
</svg>
