<svg width="39" height="39" viewBox="0 0 39 39" fill="none" xmlns="http://www.w3.org/2000/svg">
<path d="M19.5 0C15.6433 0 11.8731 1.14366 8.66639 3.28634C5.45963 5.42903 2.96027 8.47451 1.48436 12.0377C0.00844905 15.6008 -0.377716 19.5216 0.374696 23.3043C1.12711 27.0869 2.9843 30.5615 5.71143 33.2886C8.43855 36.0157 11.9131 37.8729 15.6957 38.6253C19.4784 39.3777 23.3992 38.9916 26.9623 37.5156C30.5255 36.0397 33.571 33.5404 35.7137 30.3336C37.8564 27.1269 39 23.3567 39 19.5C38.9945 14.33 36.9383 9.37322 33.2826 5.71745C29.6268 2.06167 24.6701 0.00545966 19.5 0ZM30 21H23.1206L28.0613 25.9387C28.2006 26.0781 28.3112 26.2436 28.3866 26.4257C28.462 26.6077 28.5008 26.8029 28.5008 27C28.5008 27.1971 28.462 27.3923 28.3866 27.5743C28.3112 27.7564 28.2006 27.9219 28.0613 28.0613C27.9219 28.2006 27.7564 28.3112 27.5744 28.3866C27.3923 28.462 27.1971 28.5008 27 28.5008C26.8029 28.5008 26.6078 28.462 26.4257 28.3866C26.2436 28.3112 26.0781 28.2006 25.9388 28.0613L18.4388 20.5613C18.2287 20.3515 18.0857 20.0841 18.0277 19.793C17.9697 19.5018 17.9994 19.2 18.1131 18.9258C18.2267 18.6516 18.4191 18.4172 18.666 18.2524C18.9129 18.0876 19.2032 17.9998 19.5 18H30C30.3978 18 30.7794 18.158 31.0607 18.4393C31.342 18.7206 31.5 19.1022 31.5 19.5C31.5 19.8978 31.342 20.2794 31.0607 20.5607C30.7794 20.842 30.3978 21 30 21Z" fill="#326AFD"/>
</svg>
