<svg width="41" height="39" viewBox="0 0 41 39" fill="none" xmlns="http://www.w3.org/2000/svg">
<path d="M29.5837 39H37.5C38.2956 39 39.0587 38.6839 39.6213 38.1213C40.1839 37.5587 40.5 36.7956 40.5 36V28.9406C40.4987 28.6946 40.437 28.4527 40.3202 28.2362C40.2034 28.0197 40.0351 27.8353 39.8302 27.6991C39.6254 27.563 39.3901 27.4793 39.1453 27.4555C38.9005 27.4317 38.6535 27.4684 38.4262 27.5625C37.8947 27.7821 37.3251 27.8948 36.75 27.8944C34.2694 27.8944 32.25 25.8131 32.25 23.2575C32.25 20.7019 34.2694 18.6206 36.75 18.6206C37.3251 18.6202 37.8947 18.7329 38.4262 18.9525C38.6547 19.0471 38.903 19.0837 39.149 19.0592C39.3951 19.0346 39.6312 18.9496 39.8365 18.8117C40.0417 18.6738 40.2097 18.4873 40.3255 18.2688C40.4412 18.0504 40.5012 17.8066 40.5 17.5594V10.5C40.5 9.70435 40.1839 8.94129 39.6213 8.37868C39.0587 7.81607 38.2956 7.5 37.5 7.5H30.7087C30.7367 7.25098 30.7504 7.00058 30.75 6.75C30.75 4.95979 30.0388 3.2429 28.773 1.97703C27.5071 0.711159 25.7902 0 24 0C22.2098 0 20.4929 0.711159 19.227 1.97703C17.9612 3.2429 17.25 4.95979 17.25 6.75C17.2496 7.00058 17.2633 7.25098 17.2912 7.5H10.5C9.70435 7.5 8.94129 7.81607 8.37868 8.37868C7.81607 8.94129 7.5 9.70435 7.5 10.5V16.5413C7.25098 16.5133 7.00058 16.4996 6.75 16.5C4.95979 16.5 3.2429 17.2112 1.97703 18.477C0.711159 19.7429 0 21.4598 0 23.25C0 25.0402 0.711159 26.7571 1.97703 28.023C3.2429 29.2888 4.95979 30 6.75 30C7.00058 30.0004 7.25098 29.9867 7.5 29.9587V36C7.5 36.7956 7.81607 37.5587 8.37868 38.1213C8.94129 38.6839 9.70435 39 10.5 39H18.4162" fill="#326AFD"/>
</svg>
