<svg width="21" height="21" viewBox="0 0 21 21" fill="none" xmlns="http://www.w3.org/2000/svg">
<path d="M8.62659 4.10072C9.26491 2.93029 10.9455 2.93029 11.5838 4.10072L12.6081 5.97893C12.8503 6.42309 13.2794 6.73484 13.7767 6.82797L15.8796 7.22176C17.19 7.46714 17.7093 9.06553 16.7933 10.0343L15.3236 11.5888C14.9761 11.9565 14.8121 12.4609 14.8772 12.9626L15.1526 15.0842C15.3241 16.4062 13.9644 17.3941 12.7601 16.8224L10.8274 15.9049C10.3703 15.688 9.83998 15.688 9.38297 15.9049L7.45027 16.8224C6.2459 17.3941 4.88627 16.4062 5.05782 15.0842L5.33312 12.9626C5.39822 12.4609 5.23432 11.9565 4.88674 11.5888L3.417 10.0343C2.50111 9.06553 3.02043 7.46714 4.33083 7.22176L6.43364 6.82797C6.93093 6.73484 7.36001 6.42309 7.60225 5.97893L8.62659 4.10072Z" stroke="#252432" stroke-width="1.26316" stroke-linejoin="round"/>
</svg>
