<svg width="15" height="16" viewBox="0 0 15 16" fill="none" xmlns="http://www.w3.org/2000/svg">
<path d="M14.9727 13.3236L12.3797 0.995429C12.3462 0.834212 12.2811 0.681209 12.1882 0.545211C12.0954 0.409213 11.9766 0.2929 11.8387 0.202954C11.7007 0.113007 11.5464 0.0512006 11.3845 0.0210839C11.2226 -0.00903273 11.0564 -0.00686564 10.8953 0.0274607L7.23828 0.813398C6.9148 0.884226 6.63238 1.07991 6.45242 1.35789C6.27247 1.63586 6.20955 1.97365 6.27734 2.29777L8.87031 14.6259C8.9281 14.9072 9.08096 15.16 9.30319 15.3418C9.52543 15.5236 9.80349 15.6234 10.0906 15.6243C10.1794 15.6242 10.2679 15.6148 10.3547 15.5962L14.0117 14.8103C14.3356 14.7393 14.6183 14.5432 14.7983 14.2648C14.9783 13.9863 15.0409 13.648 14.9727 13.3236ZM7.5 2.0423C7.5 2.03762 7.5 2.03527 7.5 2.03527L11.1563 1.25402L11.4164 2.49387L7.76016 3.28059L7.5 2.0423ZM8.01719 4.5009L11.675 3.71574L11.9359 4.95793L8.28125 5.74387L8.01719 4.5009ZM8.53594 6.9673L12.1938 6.18137L13.2328 11.122L9.575 11.9079L8.53594 6.9673ZM13.75 13.5884L10.0937 14.3696L9.83359 13.1298L13.4898 12.3431L13.75 13.5814C13.75 13.5861 13.75 13.5884 13.75 13.5884ZM5 0.624336H1.25C0.918479 0.624336 0.600537 0.756032 0.366116 0.990452C0.131696 1.22487 0 1.54282 0 1.87434V14.3743C0 14.7059 0.131696 15.0238 0.366116 15.2582C0.600537 15.4926 0.918479 15.6243 1.25 15.6243H5C5.33152 15.6243 5.64946 15.4926 5.88388 15.2582C6.1183 15.0238 6.25 14.7059 6.25 14.3743V1.87434C6.25 1.54282 6.1183 1.22487 5.88388 0.990452C5.64946 0.756032 5.33152 0.624336 5 0.624336ZM1.25 1.87434H5V3.12434H1.25V1.87434ZM1.25 4.37434H5V11.8743H1.25V4.37434ZM5 14.3743H1.25V13.1243H5V14.3743Z" fill="#162D66"/>
</svg>
