<svg width="14" height="17" viewBox="0 0 14 17" fill="none" xmlns="http://www.w3.org/2000/svg">
<path d="M13.5672 4.55781L9.19219 0.182813C9.1341 0.124791 9.06515 0.0787825 8.98928 0.0474149C8.91341 0.0160474 8.8321 -6.43662e-05 8.75 1.93249e-07H1.25C0.918479 1.93249e-07 0.600537 0.131696 0.366116 0.366117C0.131696 0.600537 0 0.91848 0 1.25V6.875C0 7.04076 0.0658481 7.19973 0.183058 7.31694C0.300269 7.43415 0.45924 7.5 0.625 7.5C0.79076 7.5 0.949731 7.43415 1.06694 7.31694C1.18415 7.19973 1.25 7.04076 1.25 6.875V1.25H8.125V5C8.125 5.16576 8.19085 5.32473 8.30806 5.44194C8.42527 5.55915 8.58424 5.625 8.75 5.625H12.5V15H10C9.83424 15 9.67527 15.0658 9.55806 15.1831C9.44085 15.3003 9.375 15.4592 9.375 15.625C9.375 15.7908 9.44085 15.9497 9.55806 16.0669C9.67527 16.1842 9.83424 16.25 10 16.25H12.5C12.8315 16.25 13.1495 16.1183 13.3839 15.8839C13.6183 15.6495 13.75 15.3315 13.75 15V5C13.7501 4.9179 13.734 4.83659 13.7026 4.76072C13.6712 4.68485 13.6252 4.6159 13.5672 4.55781ZM9.375 2.13359L11.6164 4.375H9.375V2.13359ZM1.875 9.375H0.625C0.45924 9.375 0.300269 9.44085 0.183058 9.55806C0.0658481 9.67527 0 9.83424 0 10V14.375C0 14.5408 0.0658481 14.6997 0.183058 14.8169C0.300269 14.9342 0.45924 15 0.625 15C0.79076 15 0.949731 14.9342 1.06694 14.8169C1.18415 14.6997 1.25 14.5408 1.25 14.375V13.75H1.875C2.45516 13.75 3.01156 13.5195 3.4218 13.1093C3.83203 12.6991 4.0625 12.1427 4.0625 11.5625C4.0625 10.9823 3.83203 10.4259 3.4218 10.0157C3.01156 9.60547 2.45516 9.375 1.875 9.375ZM1.875 12.5H1.25V10.625H1.875C2.12364 10.625 2.3621 10.7238 2.53791 10.8996C2.71373 11.0754 2.8125 11.3139 2.8125 11.5625C2.8125 11.8111 2.71373 12.0496 2.53791 12.2254C2.3621 12.4012 2.12364 12.5 1.875 12.5ZM8.96719 10.3313L7.5 12.675V14.375C7.5 14.5408 7.43415 14.6997 7.31694 14.8169C7.19973 14.9342 7.04076 15 6.875 15C6.70924 15 6.55027 14.9342 6.43306 14.8169C6.31585 14.6997 6.25 14.5408 6.25 14.375V12.6789L4.78281 10.3352C4.73644 10.2656 4.7045 10.1874 4.68888 10.1053C4.67326 10.0232 4.67427 9.93873 4.69187 9.857C4.70946 9.77527 4.74327 9.69789 4.7913 9.62946C4.83933 9.56103 4.9006 9.50293 4.97148 9.4586C5.04237 9.41427 5.12143 9.38462 5.20398 9.37139C5.28653 9.35816 5.37089 9.36163 5.45208 9.38159C5.53327 9.40154 5.60963 9.43759 5.67663 9.48758C5.74364 9.53758 5.79994 9.60051 5.84219 9.67266L6.875 11.3211L7.90781 9.66875C7.95006 9.59661 8.00636 9.53368 8.07337 9.48368C8.14037 9.43368 8.21673 9.39764 8.29792 9.37768C8.37911 9.35772 8.46347 9.35425 8.54602 9.36748C8.62857 9.38071 8.70763 9.41037 8.77852 9.4547C8.8494 9.49903 8.91067 9.55712 8.9587 9.62556C9.00673 9.69399 9.04054 9.77136 9.05813 9.85309C9.07572 9.93482 9.07674 10.0193 9.06112 10.1014C9.0455 10.1835 9.01356 10.2617 8.96719 10.3313Z" fill="#162D66"/>
</svg>
