<svg width="17" height="14" viewBox="0 0 17 14" fill="none" xmlns="http://www.w3.org/2000/svg">
<path d="M15 0H3.75C3.41848 0 3.10054 0.131696 2.86612 0.366116C2.6317 0.600537 2.5 0.918479 2.5 1.25V2.5H1.25C0.918479 2.5 0.600537 2.6317 0.366116 2.86612C0.131696 3.10054 0 3.41848 0 3.75V12.5C0 12.8315 0.131696 13.1495 0.366116 13.3839C0.600537 13.6183 0.918479 13.75 1.25 13.75H12.5C12.8315 13.75 13.1495 13.6183 13.3839 13.3839C13.6183 13.1495 13.75 12.8315 13.75 12.5V11.25H15C15.3315 11.25 15.6495 11.1183 15.8839 10.8839C16.1183 10.6495 16.25 10.3315 16.25 10V1.25C16.25 0.918479 16.1183 0.600537 15.8839 0.366116C15.6495 0.131696 15.3315 0 15 0ZM12.5 3.75V5H1.25V3.75H12.5ZM12.5 12.5H1.25V6.25H12.5V12.5ZM15 10H13.75V3.75C13.75 3.41848 13.6183 3.10054 13.3839 2.86612C13.1495 2.6317 12.8315 2.5 12.5 2.5H3.75V1.25H15V10Z" fill="#162D66"/>
</svg>
