<svg width="21" height="21" viewBox="0 0 21 21" fill="none" xmlns="http://www.w3.org/2000/svg">
<path d="M7.58672 9.89478C7.93553 9.89478 8.2183 9.612 8.2183 9.2632C8.2183 8.9144 7.93553 8.63162 7.58672 8.63162V9.89478ZM7.5783 8.63162C7.22949 8.63162 6.94672 8.9144 6.94672 9.2632C6.94672 9.612 7.22949 9.89478 7.5783 9.89478V8.63162ZM12.6393 9.89478C12.9882 9.89478 13.2709 9.612 13.2709 9.2632C13.2709 8.9144 12.9882 8.63162 12.6393 8.63162V9.89478ZM12.6309 8.63162C12.2821 8.63162 11.9993 8.9144 11.9993 9.2632C11.9993 9.612 12.2821 9.89478 12.6309 9.89478V8.63162ZM5.70722 7.36846H14.5021V6.1053H5.70722V7.36846ZM16.3911 9.11785L16.8446 15.0126L18.1041 14.9157L17.6506 9.02101L16.3911 9.11785ZM14.9554 17.0527H5.25378V18.3158H14.9554V17.0527ZM3.36463 15.0126L3.81807 9.11785L2.55863 9.02101L2.10519 14.9157L3.36463 15.0126ZM5.25378 17.0527C4.15008 17.0527 3.27998 16.113 3.36463 15.0126L2.10519 14.9157C1.96411 16.7498 3.41428 18.3158 5.25378 18.3158V17.0527ZM16.8446 15.0126C16.9293 16.113 16.0592 17.0527 14.9554 17.0527V18.3158C16.7949 18.3158 18.2451 16.7498 18.1041 14.9157L16.8446 15.0126ZM14.5021 7.36846C15.4921 7.36846 16.3153 8.13072 16.3911 9.11785L17.6506 9.02101C17.524 7.37574 16.1522 6.1053 14.5021 6.1053V7.36846ZM5.70722 6.1053C4.05711 6.1053 2.68518 7.37574 2.55863 9.02101L3.81807 9.11785C3.894 8.13072 4.71716 7.36846 5.70722 7.36846V6.1053ZM11.9993 5.05267V6.73688H13.2625V5.05267H11.9993ZM8.20988 6.73688V5.05267H6.94672V6.73688H8.20988ZM10.1046 3.15793C11.1511 3.15793 11.9993 4.00624 11.9993 5.05267H13.2625C13.2625 3.30861 11.8487 1.89478 10.1046 1.89478V3.15793ZM10.1046 1.89478C8.36056 1.89478 6.94672 3.30861 6.94672 5.05267H8.20988C8.20988 4.00624 9.05818 3.15793 10.1046 3.15793V1.89478ZM7.58672 8.63162H7.5783V9.89478H7.58672V8.63162ZM12.6393 8.63162H12.6309V9.89478H12.6393V8.63162Z" fill="#252432"/>
</svg>
