<svg width="17" height="26" viewBox="0 0 17 26" fill="none" xmlns="http://www.w3.org/2000/svg">
<mask id="mask0_10189_3396" style="mask-type:luminance" maskUnits="userSpaceOnUse" x="0" y="0" width="17" height="26">
<path d="M17 0H0V25.4949H17V0Z" fill="white"/>
</mask>
<g mask="url(#mask0_10189_3396)">
<path d="M4.25111 25.4949C6.59668 25.4949 8.50026 23.5914 8.50026 21.2458V16.9966H4.25111C1.90558 16.9966 0.00195312 18.9003 0.00195312 21.2458C0.00195312 23.5914 1.90558 25.4949 4.25111 25.4949Z" fill="#0ACF83"/>
<path d="M0.00195312 12.7474C0.00195312 10.4019 1.90558 8.49829 4.25111 8.49829H8.50026V16.9965H4.25111C1.90558 16.9965 0.00195312 15.093 0.00195312 12.7474Z" fill="#A259FF"/>
<path d="M0.00195312 4.24915C0.00195312 1.90362 1.90558 0 4.25111 0H8.50026V8.49831H4.25111C1.90558 8.49831 0.00195312 6.59468 0.00195312 4.24915Z" fill="#F24E1E"/>
<path d="M8.5 0H12.7491C15.0946 0 16.9983 1.90362 16.9983 4.24915C16.9983 6.59468 15.0946 8.49831 12.7491 8.49831H8.5V0Z" fill="#FF7262"/>
<path d="M16.9983 12.7474C16.9983 15.093 15.0946 16.9965 12.7491 16.9965C10.4036 16.9965 8.5 15.093 8.5 12.7474C8.5 10.4019 10.4036 8.49829 12.7491 8.49829C15.0946 8.49829 16.9983 10.4019 16.9983 12.7474Z" fill="#1ABCFE"/>
</g>
</svg>
