<svg width="14" height="20" viewBox="0 0 14 20" fill="none" xmlns="http://www.w3.org/2000/svg">
<path d="M3.33341 20C5.17348 20 6.66681 18.5067 6.66681 16.6667V13.3333H3.33341C1.49337 13.3333 0 14.8267 0 16.6667C0 18.5067 1.49337 20 3.33341 20Z" fill="#0ACF83"/>
<path d="M0 10.0001C0 8.16008 1.49337 6.66675 3.33341 6.66675H6.66681V13.3334H3.33341C1.49337 13.3334 0 11.8401 0 10.0001Z" fill="#A259FF"/>
<path d="M0 3.33333C0 1.49333 1.49337 0 3.33341 0H6.66681V6.66668H3.33341C1.49337 6.66668 0 5.17333 0 3.33333Z" fill="#F24E1E"/>
<path d="M6.66602 0H9.99939C11.8394 0 13.3329 1.49333 13.3329 3.33333C13.3329 5.17333 11.8394 6.66668 9.99939 6.66668H6.66602V0Z" fill="#FF7262"/>
<path d="M13.3329 10.0001C13.3329 11.8401 11.8394 13.3334 9.99939 13.3334C8.15935 13.3334 6.66602 11.8401 6.66602 10.0001C6.66602 8.16008 8.15935 6.66675 9.99939 6.66675C11.8394 6.66675 13.3329 8.16008 13.3329 10.0001Z" fill="#1ABCFE"/>
</svg>
