<svg width="20" height="20" viewBox="0 0 20 20" fill="none" xmlns="http://www.w3.org/2000/svg">
<g clip-path="url(#clip0_10423_6442)">
<path d="M15.4352 10.0828L11.4055 8.59375L9.92115 4.56094C9.83324 4.32213 9.6742 4.11604 9.46549 3.97046C9.25677 3.82488 9.00843 3.74682 8.75396 3.74682C8.49949 3.74682 8.25114 3.82488 8.04243 3.97046C7.83371 4.11604 7.67467 4.32213 7.58677 4.56094L6.09302 8.59375L2.06021 10.0781C1.8214 10.166 1.61531 10.3251 1.46973 10.5338C1.32415 10.7425 1.24609 10.9908 1.24609 11.2453C1.24609 11.4998 1.32415 11.7481 1.46973 11.9568C1.61531 12.1656 1.8214 12.3246 2.06021 12.4125L6.09302 13.9062L7.57739 17.9391C7.6653 18.1779 7.82434 18.384 8.03305 18.5295C8.24177 18.6751 8.49011 18.7532 8.74458 18.7532C8.99905 18.7532 9.2474 18.6751 9.45611 18.5295C9.66483 18.384 9.82387 18.1779 9.91177 17.9391L11.4055 13.9062L15.4383 12.4219C15.6771 12.334 15.8832 12.1749 16.0288 11.9662C16.1744 11.7575 16.2524 11.5092 16.2524 11.2547C16.2524 11.0002 16.1744 10.7519 16.0288 10.5432C15.8832 10.3344 15.6771 10.1754 15.4383 10.0875L15.4352 10.0828ZM10.7024 12.8297C10.6176 12.861 10.5405 12.9103 10.4766 12.9742C10.4126 13.0381 10.3633 13.1152 10.3321 13.2L8.74927 17.4883L7.16958 13.2031C7.13837 13.1174 7.08876 13.0395 7.02424 12.975C6.95973 12.9105 6.88188 12.8609 6.79614 12.8297L2.51099 11.25L6.79614 9.67031C6.88188 9.6391 6.95973 9.58949 7.02424 9.52497C7.08876 9.46046 7.13837 9.3826 7.16958 9.29688L8.74927 5.01172L10.329 9.29688C10.3602 9.38171 10.4095 9.45875 10.4735 9.52269C10.5374 9.58662 10.6144 9.63592 10.6993 9.66719L14.9876 11.25L10.7024 12.8297ZM11.2493 3.125C11.2493 2.95924 11.3151 2.80027 11.4323 2.68306C11.5495 2.56585 11.7085 2.5 11.8743 2.5H13.1243V1.25C13.1243 1.08424 13.1901 0.925268 13.3073 0.808058C13.4245 0.690848 13.5835 0.625 13.7493 0.625C13.915 0.625 14.074 0.690848 14.1912 0.808058C14.3084 0.925268 14.3743 1.08424 14.3743 1.25V2.5H15.6243C15.79 2.5 15.949 2.56585 16.0662 2.68306C16.1834 2.80027 16.2493 2.95924 16.2493 3.125C16.2493 3.29076 16.1834 3.44973 16.0662 3.56694C15.949 3.68415 15.79 3.75 15.6243 3.75H14.3743V5C14.3743 5.16576 14.3084 5.32473 14.1912 5.44194C14.074 5.55915 13.915 5.625 13.7493 5.625C13.5835 5.625 13.4245 5.55915 13.3073 5.44194C13.1901 5.32473 13.1243 5.16576 13.1243 5V3.75H11.8743C11.7085 3.75 11.5495 3.68415 11.4323 3.56694C11.3151 3.44973 11.2493 3.29076 11.2493 3.125ZM19.3743 6.875C19.3743 7.04076 19.3084 7.19973 19.1912 7.31694C19.074 7.43415 18.915 7.5 18.7493 7.5H18.1243V8.125C18.1243 8.29076 18.0584 8.44973 17.9412 8.56694C17.824 8.68415 17.665 8.75 17.4993 8.75C17.3335 8.75 17.1745 8.68415 17.0573 8.56694C16.9401 8.44973 16.8743 8.29076 16.8743 8.125V7.5H16.2493C16.0835 7.5 15.9245 7.43415 15.8073 7.31694C15.6901 7.19973 15.6243 7.04076 15.6243 6.875C15.6243 6.70924 15.6901 6.55027 15.8073 6.43306C15.9245 6.31585 16.0835 6.25 16.2493 6.25H16.8743V5.625C16.8743 5.45924 16.9401 5.30027 17.0573 5.18306C17.1745 5.06585 17.3335 5 17.4993 5C17.665 5 17.824 5.06585 17.9412 5.18306C18.0584 5.30027 18.1243 5.45924 18.1243 5.625V6.25H18.7493C18.915 6.25 19.074 6.31585 19.1912 6.43306C19.3084 6.55027 19.3743 6.70924 19.3743 6.875Z" fill="#162D66"/>
</g>
<defs>
<clipPath id="clip0_10423_6442">
<rect width="20" height="20" fill="white"/>
</clipPath>
</defs>
</svg>
