<svg width="38" height="38" viewBox="0 0 38 38" fill="none" xmlns="http://www.w3.org/2000/svg">
<g clip-path="url(#clip0_10124_4958)">
<path fill-rule="evenodd" clip-rule="evenodd" d="M5.70001 36.0175H32.3001C34.4395 36.0175 35.9595 35.0846 36.8829 33.8021C37.7341 32.6184 38.0001 31.256 38.0001 30.3174V18.9174C38.0001 18.4135 37.7999 17.9302 37.4436 17.5739C37.0873 17.2176 36.604 17.0174 36.1001 17.0174H30.4001V7.5174C30.4001 6.00566 29.7995 4.55584 28.7306 3.48688C27.6616 2.41792 26.2118 1.81738 24.7001 1.81738H5.70001C4.18828 1.81738 2.73846 2.41792 1.6695 3.48688C0.600536 4.55584 0 6.00566 0 7.5174V30.3174C0 31.2541 0.266001 32.6184 1.1172 33.8021C2.0406 35.0865 3.56061 36.0175 5.70001 36.0175ZM32.3001 20.8174C32.804 20.8174 33.2873 21.0176 33.6436 21.3739C33.9999 21.7302 34.2001 22.2135 34.2001 22.7174V30.3174C34.2001 30.8214 33.9999 31.3046 33.6436 31.661C33.2873 32.0173 32.804 32.2174 32.3001 32.2174C31.7962 32.2174 31.3129 32.0173 30.9566 31.661C30.6002 31.3046 30.4001 30.8214 30.4001 30.3174V22.7174C30.4001 22.2135 30.6002 21.7302 30.9566 21.3739C31.3129 21.0176 31.7962 20.8174 32.3001 20.8174ZM13.3 15.1174C13.3 14.6135 13.5002 14.1302 13.8565 13.7739C14.2128 13.4176 14.6961 13.2174 15.2 13.2174C15.7039 13.2174 16.1872 13.4176 16.5435 13.7739C16.8999 14.1302 17.1 14.6135 17.1 15.1174C17.1 15.6213 16.8999 16.1046 16.5435 16.4609C16.1872 16.8172 15.7039 17.0174 15.2 17.0174C14.6961 17.0174 14.2128 16.8172 13.8565 16.4609C13.5002 16.1046 13.3 15.6213 13.3 15.1174ZM15.2 9.4174C13.6883 9.4174 12.2385 10.0179 11.1695 11.0869C10.1006 12.1559 9.50002 13.6057 9.50002 15.1174C9.50002 16.6291 10.1006 18.079 11.1695 19.1479C12.2385 20.2169 13.6883 20.8174 15.2 20.8174C16.7118 20.8174 18.1616 20.2169 19.2306 19.1479C20.2995 18.079 20.9 16.6291 20.9 15.1174C20.9 13.6057 20.2995 12.1559 19.2306 11.0869C18.1616 10.0179 16.7118 9.4174 15.2 9.4174ZM9.50002 24.6174C8.99611 24.6174 8.51284 24.8176 8.15652 25.1739C7.8002 25.5303 7.60002 26.0135 7.60002 26.5174C7.60002 27.0214 7.8002 27.5046 8.15652 27.8609C8.51284 28.2173 8.99611 28.4174 9.50002 28.4174H20.9C21.404 28.4174 21.8872 28.2173 22.2436 27.8609C22.5999 27.5046 22.8001 27.0214 22.8001 26.5174C22.8001 26.0135 22.5999 25.5303 22.2436 25.1739C21.8872 24.8176 21.404 24.6174 20.9 24.6174H9.50002Z" fill="white"/>
</g>
<defs>
<clipPath id="clip0_10124_4958">
<rect width="38" height="38" fill="white"/>
</clipPath>
</defs>
</svg>
