<svg width="38" height="38" viewBox="0 0 38 38" fill="none" xmlns="http://www.w3.org/2000/svg">
<path d="M19.9508 3.80005C19.6988 3.80005 19.4572 3.90014 19.279 4.0783C19.1009 4.25646 19.0008 4.49809 19.0008 4.75005V9.69005C19.0008 12.3063 20.7621 14.5084 23.1618 15.181C22.7438 20.387 21.239 24.2725 20.0059 26.6684C20.3555 27.0788 20.6842 27.3847 20.9407 27.5994C21.9268 28.424 22.8008 29.7673 22.8008 31.4431C22.8021 32.4352 22.4851 33.4015 21.8964 34.2H32.3008C33.0566 34.2 33.7816 33.8998 34.316 33.3653C34.8505 32.8308 35.1508 32.1059 35.1508 31.35V30.7668C35.1508 30.1056 34.9247 29.4956 34.577 28.9959C33.551 27.5196 30.6459 22.7449 30.0379 15.1791C31.2355 14.8434 32.2905 14.1254 33.042 13.1344C33.7936 12.1434 34.2005 10.9338 34.2008 9.69005V4.75005C34.2008 4.49809 34.1007 4.25646 33.9225 4.0783C33.7444 3.90014 33.5027 3.80005 33.2508 3.80005H31.8258C31.4478 3.80005 31.0854 3.95018 30.8182 4.21742C30.5509 4.48466 30.4008 4.84712 30.4008 5.22505V6.65005C30.401 6.7748 30.3767 6.89839 30.3292 7.01374C30.2817 7.1291 30.2119 7.23396 30.1239 7.32236C29.9461 7.50087 29.7046 7.60144 29.4527 7.60195C29.2007 7.60245 28.9589 7.50285 28.7804 7.32504C28.6019 7.14724 28.5013 6.9058 28.5008 6.65385V6.65005L28.4932 5.21745C28.4912 4.84083 28.3402 4.48033 28.0731 4.21473C27.8061 3.94913 27.4448 3.80004 27.0682 3.80005H26.1334C25.7568 3.80004 25.3955 3.94913 25.1284 4.21473C24.8614 4.48033 24.7104 4.84083 24.7084 5.21745L24.7008 6.65385C24.7003 6.9058 24.5997 7.14724 24.4212 7.32504C24.2427 7.50285 24.0008 7.60245 23.7489 7.60195C23.4969 7.60144 23.2555 7.50087 23.0777 7.32236C22.8999 7.14384 22.8003 6.902 22.8008 6.65005V5.22505C22.8008 4.84712 22.6506 4.48466 22.3834 4.21742C22.1162 3.95018 21.7537 3.80005 21.3758 3.80005H19.9508ZM12.3508 9.50005C11.2505 9.50007 10.1736 9.81858 9.25034 10.4171C8.32704 11.0156 7.59672 11.8686 7.14752 12.8731C6.69832 13.8776 6.54946 14.9906 6.71889 16.0778C6.88833 17.165 7.36883 18.1799 8.10238 19H7.60078C7.09687 19 6.6136 19.2002 6.25728 19.5565C5.90096 19.9129 5.70078 20.3961 5.70078 20.9C5.70078 21.404 5.90096 21.8872 6.25728 22.2436C6.6136 22.5999 7.09687 22.8 7.60078 22.8H8.58878C7.88198 26.2162 6.01808 28.1884 4.97878 29.0567C4.32138 29.6077 3.80078 30.4551 3.80078 31.4431C3.80078 32.965 5.03578 34.2 6.55768 34.2H18.1458C19.6658 34.2 20.9008 32.965 20.9008 31.4431C20.9008 30.4551 20.3802 29.6077 19.7228 29.0567C18.6835 28.1884 16.8196 26.2162 16.1128 22.8H17.1008C17.6047 22.8 18.088 22.5999 18.4443 22.2436C18.8006 21.8872 19.0008 21.404 19.0008 20.9C19.0008 20.3961 18.8006 19.9129 18.4443 19.5565C18.088 19.2002 17.6047 19 17.1008 19H16.5992C17.3327 18.1799 17.8132 17.165 17.9827 16.0778C18.1521 14.9906 18.0032 13.8776 17.554 12.8731C17.1048 11.8686 16.3745 11.0156 15.4512 10.4171C14.5279 9.81858 13.4511 9.50007 12.3508 9.50005Z" fill="white"/>
</svg>
