<svg width="38" height="38" viewBox="0 0 38 38" fill="none" xmlns="http://www.w3.org/2000/svg">
<path d="M28.4989 3.56243C28.4993 3.32725 28.4299 3.09725 28.2994 2.90158C28.169 2.7059 27.9833 2.55337 27.7661 2.46332C27.5488 2.37326 27.3097 2.34974 27.0791 2.39574C26.8485 2.44173 26.6367 2.55517 26.4706 2.72168L21.7206 7.47168C21.6104 7.58216 21.5231 7.71328 21.4636 7.85754C21.4041 8.0018 21.3736 8.15638 21.3739 8.31243V14.9458L19.614 16.7033C19.2619 16.6099 18.8931 16.5985 18.536 16.6701C18.1788 16.7417 17.8429 16.8943 17.554 17.1161C17.2652 17.338 17.0311 17.6232 16.8698 17.9498C16.7085 18.2764 16.6244 18.6357 16.6239 18.9999C16.624 19.3379 16.6963 19.672 16.8359 19.9798C16.9755 20.2876 17.1792 20.5621 17.4334 20.7849C17.6876 21.0077 17.9864 21.1736 18.3098 21.2717C18.6333 21.3698 18.974 21.3976 19.3091 21.3535C19.6442 21.3093 19.966 21.1942 20.253 21.0157C20.54 20.8372 20.7857 20.5995 20.9735 20.3185C21.1613 20.0375 21.2869 19.7196 21.3421 19.3862C21.3972 19.0527 21.3805 18.7113 21.2931 18.3848L23.053 16.6249H29.6864C29.8424 16.6252 29.997 16.5947 30.1412 16.5352C30.2855 16.4757 30.4166 16.3884 30.5271 16.2782L35.2771 11.5282C35.4436 11.3621 35.5571 11.1503 35.6031 10.9197C35.6491 10.689 35.6255 10.45 35.5355 10.2327C35.4454 10.0155 35.2929 9.82983 35.0972 9.69938C34.9015 9.56892 34.6715 9.49951 34.4364 9.49993H28.4989V3.56243ZM33.1159 17.0477C33.5245 20.005 32.9941 23.0159 31.5994 25.6555C30.2048 28.2951 28.0163 30.43 25.343 31.7588C22.6697 33.0877 19.6466 33.5434 16.7003 33.0616C13.7541 32.5798 11.0335 31.1849 8.92276 29.0737C6.81198 26.9625 5.41757 24.2417 4.93636 21.2954C4.45514 18.349 4.91143 15.326 6.24082 12.6529C7.5702 9.97984 9.70553 7.79181 12.3454 6.39766C14.9852 5.00352 17.9963 4.47367 20.9535 4.88293L20.0439 5.79255C19.7127 6.12333 19.4499 6.51613 19.2706 6.9485C19.0913 7.38088 18.999 7.84435 18.9989 8.31243C16.8851 8.31243 14.8188 8.93924 13.0612 10.1136C11.3037 11.288 9.93381 12.9571 9.1249 14.91C8.31599 16.8629 8.10434 19.0118 8.51672 21.085C8.9291 23.1581 9.94699 25.0625 11.4417 26.5571C12.9363 28.0518 14.8407 29.0697 16.9138 29.4821C18.987 29.8945 21.1359 29.6828 23.0888 28.8739C25.0417 28.065 26.7108 26.6951 27.8852 24.9376C29.0596 23.18 29.6864 21.1137 29.6864 18.9999C30.6309 18.9991 31.5364 18.6232 32.2039 17.9549L33.1159 17.0477ZM18.9989 10.6874C17.3548 10.6874 15.7477 11.1749 14.3807 12.0883C13.0137 13.0017 11.9483 14.3 11.3191 15.8189C10.69 17.3378 10.5253 19.0091 10.8461 20.6216C11.1668 22.2341 11.9585 23.7152 13.121 24.8778C14.2836 26.0403 15.7647 26.832 17.3772 27.1527C18.9896 27.4734 20.661 27.3088 22.1799 26.6797C23.6988 26.0505 24.9971 24.9851 25.9105 23.6181C26.8238 22.2511 27.3114 20.644 27.3114 18.9999H24.0362L23.7394 19.2968C23.6823 20.2092 23.3631 21.0858 22.8201 21.8213C22.2772 22.5568 21.5335 23.1199 20.6784 23.4432C19.8233 23.7665 18.893 23.8362 17.9993 23.6438C17.1056 23.4515 16.2863 23.0053 15.6399 22.3589C14.9934 21.7125 14.5473 20.8932 14.355 19.9995C14.1626 19.1058 14.2323 18.1755 14.5556 17.3204C14.8789 16.4653 15.442 15.7216 16.1775 15.1787C16.913 14.6357 17.7896 14.3165 18.702 14.2594L18.9989 13.9626V10.6874Z" fill="white"/>
</svg>
