<svg width="38" height="38" viewBox="0 0 38 38" fill="none" xmlns="http://www.w3.org/2000/svg">
<path d="M34.9314 14.2499L14.2511 34.9287C14.0306 35.1493 13.7687 35.3243 13.4806 35.4437C13.1924 35.5631 12.8835 35.6245 12.5716 35.6245C12.2596 35.6245 11.9507 35.5631 11.6626 35.4437C11.3744 35.3243 11.1125 35.1493 10.892 34.9287L3.07081 27.109C2.85022 26.8885 2.67523 26.6266 2.55584 26.3385C2.43645 26.0503 2.375 25.7414 2.375 25.4295C2.375 25.1175 2.43645 24.8086 2.55584 24.5205C2.67523 24.2323 2.85022 23.9704 3.07081 23.7499L7.40073 19.42C7.45588 19.3648 7.52136 19.321 7.59344 19.2911C7.66552 19.2612 7.74279 19.2458 7.82081 19.2458C7.89884 19.2458 7.9761 19.2612 8.04818 19.2911C8.12026 19.321 8.18575 19.3648 8.24089 19.42L13.411 24.59C13.5264 24.7054 13.6644 24.7958 13.8163 24.8554C13.9683 24.9151 14.1309 24.9428 14.294 24.9368C14.4571 24.9308 14.6172 24.8913 14.7644 24.8206C14.9115 24.75 15.0425 24.6497 15.1492 24.5262C15.3442 24.291 15.4433 23.9908 15.4268 23.6857C15.4103 23.3806 15.2794 23.0929 15.0601 22.88L9.91972 17.7397C9.80868 17.6283 9.74632 17.4775 9.74632 17.3203C9.74632 17.1631 9.80868 17.0123 9.91972 16.901L12.1463 14.6744C12.2014 14.6192 12.2669 14.5754 12.339 14.5455C12.4111 14.5157 12.4883 14.5003 12.5664 14.5003C12.6444 14.5003 12.7217 14.5157 12.7937 14.5455C12.8658 14.5754 12.9313 14.6192 12.9864 14.6744L18.1565 19.8445C18.272 19.9599 18.41 20.0502 18.5619 20.1099C18.7138 20.1695 18.8764 20.1972 19.0395 20.1912C19.2026 20.1853 19.3628 20.1457 19.5099 20.0751C19.657 20.0044 19.788 19.9042 19.8947 19.7807C20.0897 19.5454 20.1889 19.2453 20.1724 18.9401C20.1559 18.635 20.0249 18.3473 19.8057 18.1345L14.6712 12.9897C14.5602 12.8783 14.4978 12.7275 14.4978 12.5703C14.4978 12.4131 14.5602 12.2623 14.6712 12.151L16.8978 9.92442C17.0091 9.81338 17.1599 9.75102 17.3171 9.75102C17.4743 9.75102 17.6251 9.81338 17.7364 9.92442L22.9065 15.0945C23.022 15.2101 23.1601 15.3007 23.3121 15.3605C23.4642 15.4203 23.627 15.448 23.7903 15.442C23.9536 15.4361 24.1139 15.3964 24.2612 15.3256C24.4084 15.2549 24.5395 15.1544 24.6462 15.0307C24.841 14.7952 24.9399 14.495 24.9231 14.1899C24.9064 13.8847 24.7751 13.5971 24.5557 13.3845L19.4212 8.23965C19.3102 8.12834 19.2478 7.97754 19.2478 7.82032C19.2478 7.66309 19.3102 7.51229 19.4212 7.40098L23.7511 3.07106C23.9717 2.85046 24.2335 2.67547 24.5217 2.55608C24.8099 2.43669 25.1188 2.37524 25.4307 2.37524C25.7426 2.37524 26.0515 2.43669 26.3397 2.55608C26.6279 2.67547 26.8897 2.85046 27.1103 3.07106L34.9314 10.8907C35.152 11.1113 35.327 11.3731 35.4464 11.6613C35.5658 11.9495 35.6273 12.2584 35.6273 12.5703C35.6273 12.8822 35.5658 13.1911 35.4464 13.4793C35.327 13.7675 35.152 14.0293 34.9314 14.2499Z" fill="white"/>
</svg>
