<svg width="824" height="324" viewBox="0 0 824 324" fill="none" xmlns="http://www.w3.org/2000/svg">
<g clip-path="url(#clip0_10661_4616)">
<path d="M0 16C0 7.16343 7.16344 0 16 0H808C816.837 0 824 7.16344 824 16V308C824 316.837 816.837 324 808 324H16C7.16343 324 0 316.837 0 308V16Z" fill="#326AFD"/>
<path d="M547.81 153.504L566.018 162.275V176.875C566.018 178.103 566.721 179.223 567.827 179.756L602.66 196.535C603.093 196.743 603.567 196.851 604.048 196.851H609.901C610.382 196.851 610.856 196.743 611.289 196.535L646.026 179.802C646.699 179.477 647.238 178.927 647.548 178.247C647.591 178.151 647.633 178.054 647.675 177.957C647.844 177.56 647.932 177.133 647.932 176.701V162.274L652.898 159.882V179.681C651.824 180.397 650.995 181.471 650.594 182.778L647.768 191.986C647.42 193.122 647.43 194.32 647.796 195.45L650.417 203.526C651.164 205.83 653.293 207.427 655.713 207.502C655.729 207.502 655.745 207.503 655.761 207.503L655.841 207.504C655.858 207.504 655.874 207.504 655.891 207.504C658.271 207.504 660.372 206.074 661.245 203.859L664.275 196.168C664.742 194.982 664.801 193.655 664.441 192.432L661.616 182.84C661.222 181.503 660.386 180.405 659.293 179.677V156.802L666.19 153.479C667.297 152.946 668 151.827 668 150.599V148.053C668 146.825 667.297 145.706 666.19 145.173L608.362 117.317C607.485 116.894 606.464 116.894 605.587 117.317L547.81 145.148C546.703 145.681 546 146.8 546 148.029V150.624C546 151.852 546.703 152.971 547.81 153.504ZM655.949 199.859L653.94 193.669L656.082 186.688L658.245 194.029L655.949 199.859ZM641.538 174.867L609.171 190.458H604.778L572.412 174.867V165.355L605.587 181.336C606.025 181.547 606.5 181.652 606.975 181.652C607.449 181.652 607.923 181.547 608.362 181.336L641.538 165.355L641.538 174.867ZM606.974 123.746L660.079 149.326L643.771 157.182C643.627 157.227 643.485 157.281 643.347 157.347L606.974 174.868L570.602 157.347C570.464 157.281 570.322 157.227 570.179 157.182L553.87 149.326L606.974 123.746Z" fill="white" fill-opacity="0.6"/>
<path d="M658.949 -1.58925L668.501 3.01186V10.6712C668.501 11.3154 668.87 11.9027 669.45 12.1823L687.723 20.9845C687.95 21.0938 688.199 21.1505 688.451 21.1505H691.522C691.774 21.1505 692.023 21.0938 692.25 20.9845L710.473 12.2064C710.826 12.036 711.108 11.7476 711.271 11.3908C711.294 11.3405 711.316 11.2896 711.338 11.2387C711.427 11.0304 711.472 10.8062 711.472 10.5799V3.01172L714.078 1.75669V12.1431C713.514 12.5189 713.08 13.082 712.869 13.7678L711.387 18.5982C711.204 19.1939 711.209 19.8223 711.401 20.4151L712.776 24.652C713.168 25.8604 714.285 26.6986 715.554 26.7376C715.563 26.7379 715.571 26.738 715.58 26.7382L715.622 26.7388C715.63 26.739 715.639 26.739 715.648 26.739C716.896 26.739 717.999 25.9884 718.456 24.8266L720.046 20.7919C720.291 20.1697 720.322 19.4738 720.133 18.8323L718.651 13.8005C718.444 13.0989 718.006 12.5229 717.432 12.1411V0.141146L721.051 -1.602C721.631 -1.88161 722 -2.46874 722 -3.11302V-4.44869C722 -5.09285 721.631 -5.68011 721.051 -5.95972L690.714 -20.5726C690.254 -20.7941 689.719 -20.7941 689.259 -20.5726L658.949 -5.97247C658.369 -5.69299 658 -5.10573 658 -4.46144V-3.10015C658 -2.45599 658.369 -1.86886 658.949 -1.58925ZM715.678 22.7281L714.624 19.4809L715.748 15.8187L716.883 19.6699L715.678 22.7281ZM708.118 9.61761L691.139 17.7965H688.834L671.855 9.61761V4.62781L689.259 13.0112C689.489 13.122 689.738 13.1773 689.987 13.1773C690.236 13.1773 690.484 13.122 690.715 13.0112L708.118 4.62794L708.118 9.61761ZM689.987 -17.2001L717.845 -3.78079L709.289 0.340254C709.214 0.364138 709.14 0.392179 709.067 0.426929L689.987 9.61841L670.906 0.426929C670.834 0.392179 670.759 0.364138 670.684 0.340254L662.129 -3.78093L689.987 -17.2001Z" fill="white" fill-opacity="0.1"/>
<path d="M783.902 190.693L772.858 196.013V204.87C772.858 205.614 772.432 206.293 771.761 206.617L750.632 216.794C750.37 216.921 750.082 216.986 749.791 216.986H746.24C745.949 216.986 745.661 216.921 745.398 216.794L724.329 206.645C723.92 206.448 723.594 206.114 723.405 205.702C723.379 205.643 723.354 205.585 723.328 205.526C723.226 205.285 723.172 205.026 723.172 204.764V196.013L720.16 194.562V206.571C720.812 207.006 721.314 207.657 721.558 208.45L723.272 214.035C723.483 214.724 723.477 215.451 723.255 216.136L721.665 221.035C721.212 222.432 719.921 223.401 718.453 223.446C718.443 223.447 718.433 223.447 718.424 223.447L718.375 223.448C718.365 223.448 718.355 223.448 718.345 223.448C716.901 223.448 715.627 222.58 715.098 221.237L713.26 216.572C712.976 215.852 712.94 215.048 713.159 214.306L714.872 208.488C715.111 207.677 715.618 207.011 716.282 206.569V192.694L712.098 190.679C711.427 190.355 711 189.676 711 188.932V187.387C711 186.642 711.427 185.963 712.098 185.64L747.174 168.744C747.706 168.488 748.325 168.488 748.857 168.744L783.902 185.625C784.573 185.948 785 186.627 785 187.372V188.946C785 189.691 784.573 190.37 783.902 190.693ZM718.31 218.81L719.528 215.056L718.229 210.821L716.917 215.274L718.31 218.81ZM727.051 203.651L746.683 213.108H749.348L768.98 203.651V197.882L748.857 207.575C748.591 207.703 748.303 207.767 748.015 207.767C747.728 207.767 747.44 207.703 747.174 207.575L727.051 197.882L727.051 203.651ZM748.016 172.643L715.805 188.159L725.697 192.924C725.784 192.952 725.87 192.984 725.953 193.025L748.016 203.652L770.078 193.025C770.161 192.984 770.247 192.952 770.334 192.924L780.226 188.159L748.016 172.643Z" fill="white" fill-opacity="0.4"/>
<path d="M441.771 226.271L449.532 230.009V236.233C449.532 236.756 449.832 237.233 450.303 237.46L465.15 244.612C465.335 244.701 465.537 244.747 465.742 244.747H468.237C468.441 244.747 468.643 244.701 468.828 244.612L483.634 237.48C483.921 237.341 484.15 237.107 484.283 236.817C484.301 236.776 484.319 236.735 484.337 236.694C484.409 236.524 484.446 236.342 484.446 236.158V230.009L486.563 228.989V237.428C486.105 237.734 485.752 238.191 485.581 238.748L484.377 242.673C484.228 243.157 484.232 243.668 484.388 244.149L485.505 247.592C485.824 248.574 486.731 249.255 487.763 249.286C487.77 249.287 487.777 249.287 487.783 249.287L487.817 249.287C487.825 249.288 487.832 249.288 487.839 249.288C488.853 249.288 489.749 248.678 490.121 247.734L491.412 244.456C491.611 243.95 491.637 243.385 491.483 242.863L490.279 238.775C490.111 238.205 489.755 237.737 489.289 237.427V227.677L492.229 226.261C492.7 226.033 493 225.556 493 225.033V223.948C493 223.424 492.7 222.947 492.229 222.72L467.58 210.847C467.207 210.667 466.771 210.667 466.398 210.847L441.771 222.71C441.3 222.937 441 223.414 441 223.937V225.043C441 225.567 441.3 226.044 441.771 226.271ZM487.863 246.029L487.007 243.39L487.92 240.415L488.842 243.544L487.863 246.029ZM481.721 235.376L467.925 242.022H466.053L452.257 235.376V231.322L466.398 238.134C466.585 238.224 466.787 238.269 466.989 238.269C467.191 238.269 467.394 238.224 467.581 238.134L481.721 231.322L481.721 235.376ZM466.989 213.587L489.624 224.49L482.673 227.839C482.611 227.858 482.551 227.881 482.492 227.909L466.989 235.377L451.486 227.909C451.427 227.881 451.367 227.858 451.306 227.839L444.355 224.49L466.989 213.587Z" fill="white" fill-opacity="0.2"/>
</g>
<defs>
<clipPath id="clip0_10661_4616">
<path d="M0 16C0 7.16343 7.16344 0 16 0H808C816.837 0 824 7.16344 824 16V308C824 316.837 816.837 324 808 324H16C7.16343 324 0 316.837 0 308V16Z" fill="white"/>
</clipPath>
</defs>
</svg>
