<svg width="70" height="61" viewBox="0 0 70 61" fill="none" xmlns="http://www.w3.org/2000/svg">
<path d="M32.5 30C32.5 30.663 32.2366 31.2989 31.7678 31.7678C31.2989 32.2366 30.663 32.5 30 32.5H15C14.337 32.5 13.7011 32.2366 13.2322 31.7678C12.7634 31.2989 12.5 30.663 12.5 30C12.5 29.337 12.7634 28.7011 13.2322 28.2322C13.7011 27.7634 14.337 27.5 15 27.5H30C30.663 27.5 31.2989 27.7634 31.7678 28.2322C32.2366 28.7011 32.5 29.337 32.5 30ZM30 17.5H15C14.337 17.5 13.7011 17.7634 13.2322 18.2322C12.7634 18.7011 12.5 19.337 12.5 20C12.5 20.663 12.7634 21.2989 13.2322 21.7678C13.7011 22.2366 14.337 22.5 15 22.5H30C30.663 22.5 31.2989 22.2366 31.7678 21.7678C32.2366 21.2989 32.5 20.663 32.5 20C32.5 19.337 32.2366 18.7011 31.7678 18.2322C31.2989 17.7634 30.663 17.5 30 17.5ZM65 37.9594V57.5C65.004 57.9407 64.8913 58.3747 64.6735 58.7579C64.4557 59.1411 64.1405 59.4599 63.7598 59.6819C63.3791 59.904 62.9464 60.0215 62.5056 60.0225C62.0649 60.0235 61.6317 59.9079 61.25 59.6875L53.75 55.3937L46.25 59.6875C45.8683 59.9079 45.4351 60.0235 44.9944 60.0225C44.5536 60.0215 44.1209 59.904 43.7402 59.6819C43.3595 59.4599 43.0443 59.1411 42.8265 58.7579C42.6087 58.3747 42.496 57.9407 42.5 57.5V50H5C3.67392 50 2.40215 49.4732 1.46447 48.5355C0.526784 47.5979 0 46.3261 0 45V5C0 3.67392 0.526784 2.40215 1.46447 1.46447C2.40215 0.526784 3.67392 0 5 0H60C61.3261 0 62.5979 0.526784 63.5355 1.46447C64.4732 2.40215 65 3.67392 65 5V14.5406C66.5804 16.054 67.838 17.8716 68.6972 19.884C69.5564 21.8964 69.9993 24.0619 69.9993 26.25C69.9993 28.4381 69.5564 30.6036 68.6972 32.616C67.838 34.6284 66.5804 36.446 65 37.9594ZM42.5 45V37.9594C39.7757 35.332 38.0539 31.836 37.6318 28.0747C37.2098 24.3135 38.1139 20.5228 40.1882 17.357C42.2625 14.1911 45.3768 11.8486 48.9937 10.7337C52.6106 9.61878 56.5033 9.80138 60 11.25V5H5V45H42.5ZM60 41.25C58.0201 42.0772 55.8957 42.5031 53.75 42.5031C51.6043 42.5031 49.4799 42.0772 47.5 41.25V53.1938L52.5 50.3312C52.8778 50.1153 53.3054 50.0017 53.7406 50.0017C54.1758 50.0017 54.6034 50.1153 54.9813 50.3312L59.9813 53.1938L60 41.25ZM65 26.25C65 24.025 64.3402 21.8499 63.104 19.9998C61.8679 18.1498 60.1109 16.7078 58.0552 15.8564C55.9995 15.0049 53.7375 14.7821 51.5552 15.2162C49.3729 15.6502 47.3684 16.7217 45.795 18.295C44.2217 19.8684 43.1502 21.8729 42.7162 24.0552C42.2821 26.2375 42.5049 28.4995 43.3564 30.5552C44.2078 32.6109 45.6498 34.3679 47.4998 35.604C49.3499 36.8402 51.525 37.5 53.75 37.5C55.2274 37.5 56.6903 37.209 58.0552 36.6436C59.4201 36.0783 60.6603 35.2496 61.705 34.205C62.7496 33.1603 63.5783 31.9201 64.1436 30.5552C64.709 29.1903 65 27.7274 65 26.25Z" fill="#285ADE"/>
</svg>
