<svg width="18" height="15" viewBox="0 0 18 15" fill="none" xmlns="http://www.w3.org/2000/svg">
<path d="M16.875 0H11.25C10.7649 0 10.2864 0.112953 9.85246 0.329915C9.41853 0.546877 9.04108 0.861887 8.75 1.25C8.45892 0.861887 8.08147 0.546877 7.64754 0.329915C7.21362 0.112953 6.73514 0 6.25 0H0.625C0.45924 0 0.300268 0.0658481 0.183058 0.183058C0.065848 0.300269 0 0.45924 0 0.625V11.875C0 12.0408 0.065848 12.1997 0.183058 12.3169C0.300268 12.4342 0.45924 12.5 0.625 12.5H6.25C6.74728 12.5 7.22419 12.6975 7.57583 13.0492C7.92746 13.4008 8.125 13.8777 8.125 14.375C8.125 14.5408 8.19085 14.6997 8.30806 14.8169C8.42527 14.9342 8.58424 15 8.75 15C8.91576 15 9.07473 14.9342 9.19194 14.8169C9.30915 14.6997 9.375 14.5408 9.375 14.375C9.375 13.8777 9.57254 13.4008 9.92417 13.0492C10.2758 12.6975 10.7527 12.5 11.25 12.5H16.875C17.0408 12.5 17.1997 12.4342 17.3169 12.3169C17.4342 12.1997 17.5 12.0408 17.5 11.875V0.625C17.5 0.45924 17.4342 0.300269 17.3169 0.183058C17.1997 0.0658481 17.0408 0 16.875 0ZM6.25 11.25H1.25V1.25H6.25C6.74728 1.25 7.22419 1.44754 7.57583 1.79917C7.92746 2.15081 8.125 2.62772 8.125 3.125V11.875C7.58458 11.4683 6.92633 11.2489 6.25 11.25ZM16.25 11.25H11.25C10.5737 11.2489 9.91542 11.4683 9.375 11.875V3.125C9.375 2.62772 9.57254 2.15081 9.92417 1.79917C10.2758 1.44754 10.7527 1.25 11.25 1.25H16.25V11.25Z" fill="#182126"/>
</svg>
