<svg width="14" height="14" viewBox="0 0 14 14" fill="none" xmlns="http://www.w3.org/2000/svg">
<path d="M5 0H1.25C0.918479 0 0.600537 0.131696 0.366116 0.366116C0.131696 0.600537 0 0.918479 0 1.25V5C0 5.33152 0.131696 5.64946 0.366116 5.88388C0.600537 6.1183 0.918479 6.25 1.25 6.25H5C5.33152 6.25 5.64946 6.1183 5.88388 5.88388C6.1183 5.64946 6.25 5.33152 6.25 5V1.25C6.25 0.918479 6.1183 0.600537 5.88388 0.366116C5.64946 0.131696 5.33152 0 5 0ZM5 5H1.25V1.25H5V5ZM12.5 0H8.75C8.41848 0 8.10054 0.131696 7.86612 0.366116C7.6317 0.600537 7.5 0.918479 7.5 1.25V5C7.5 5.33152 7.6317 5.64946 7.86612 5.88388C8.10054 6.1183 8.41848 6.25 8.75 6.25H12.5C12.8315 6.25 13.1495 6.1183 13.3839 5.88388C13.6183 5.64946 13.75 5.33152 13.75 5V1.25C13.75 0.918479 13.6183 0.600537 13.3839 0.366116C13.1495 0.131696 12.8315 0 12.5 0ZM12.5 5H8.75V1.25H12.5V5ZM5 7.5H1.25C0.918479 7.5 0.600537 7.6317 0.366116 7.86612C0.131696 8.10054 0 8.41848 0 8.75V12.5C0 12.8315 0.131696 13.1495 0.366116 13.3839C0.600537 13.6183 0.918479 13.75 1.25 13.75H5C5.33152 13.75 5.64946 13.6183 5.88388 13.3839C6.1183 13.1495 6.25 12.8315 6.25 12.5V8.75C6.25 8.41848 6.1183 8.10054 5.88388 7.86612C5.64946 7.6317 5.33152 7.5 5 7.5ZM5 12.5H1.25V8.75H5V12.5ZM12.5 7.5H8.75C8.41848 7.5 8.10054 7.6317 7.86612 7.86612C7.6317 8.10054 7.5 8.41848 7.5 8.75V12.5C7.5 12.8315 7.6317 13.1495 7.86612 13.3839C8.10054 13.6183 8.41848 13.75 8.75 13.75H12.5C12.8315 13.75 13.1495 13.6183 13.3839 13.3839C13.6183 13.1495 13.75 12.8315 13.75 12.5V8.75C13.75 8.41848 13.6183 8.10054 13.3839 7.86612C13.1495 7.6317 12.8315 7.5 12.5 7.5ZM12.5 12.5H8.75V8.75H12.5V12.5Z" fill="#182126"/>
</svg>
