<svg width="392" height="393" viewBox="0 0 392 393" fill="none" xmlns="http://www.w3.org/2000/svg">
<mask id="mask0_10626_4904" style="mask-type:luminance" maskUnits="userSpaceOnUse" x="0" y="109" width="384" height="284">
<path d="M0 109.483H383.326V392.569H0V109.483Z" fill="white"/>
</mask>
<g mask="url(#mask0_10626_4904)">
<path d="M310.167 128.364L311.398 129.01C328.5 138.024 343.512 151.637 355.012 167.082L355.886 168.245C369.188 185.963 378.058 206.242 381.509 228.208L381.851 229.949C383.021 236.448 383.097 242.855 383.082 249.437C383.074 251.322 383.09 253.207 383.112 255.1C383.15 266.441 381.797 277.439 378.787 288.399L378.179 290.619C371.301 314.622 358.09 335.114 340.654 352.756L339.514 353.919C338.587 354.831 337.629 355.705 336.664 356.571H335.303V357.932C334.353 358.821 334.353 358.821 333.015 359.824L331.541 360.949L329.952 362.135L328.348 363.344C326.821 364.491 325.293 365.624 323.757 366.764L321.736 368.254C311.398 375.71 299.161 381.175 287.068 385.097L284.567 385.964C279.384 387.712 274.177 389.012 268.811 390.068L267.048 390.418C263.042 391.163 259.203 391.345 255.137 391.208L254.453 392.569C234.63 392.493 215.597 391.794 196.709 385.097C195.349 384.679 193.988 384.269 192.628 383.866L191.016 383.387L189.914 383.06V381.7L187.908 381.548C184.662 381.076 182.063 379.647 179.212 378.097L177.532 377.192C171.285 373.795 165.257 370.025 159.336 366.08L157.915 365.13C156.775 364.355 155.672 363.526 154.585 362.682V361.329L153.407 360.782C149.181 358.555 145.594 355.363 142.683 351.6C141.649 350.361 141.649 350.361 140.053 349.191C138.152 347.64 136.746 346.006 135.219 344.091L133.714 342.206C132.163 340.275 132.163 340.275 130.81 338.154C129.936 337.037 129.936 337.037 128.765 336.193C126.424 335.563 124.129 335.563 121.712 335.563L119.629 335.532C118.177 335.517 116.733 335.509 115.282 335.517C113.077 335.517 110.881 335.464 108.676 335.403C101.896 335.145 101.896 335.145 95.451 336.862C92.9959 338.55 91.2325 340.708 89.3627 342.989C88.3214 343.771 87.2649 344.524 86.1779 345.238C84.8174 346.295 84.8174 346.295 83.9281 347.747C83.6165 350.042 83.6621 352.102 83.8673 354.413C83.9281 356.814 83.4416 358.426 82.5675 360.645L81.7999 362.644C79.7932 365.928 77.1253 368.299 73.7886 370.23C70.6266 371.613 67.4723 371.864 64.0443 371.75C60.4567 371.294 57.652 369.896 54.7029 367.851C52.0806 365.768 50.53 363.815 49.2759 360.645L48.4702 358.692C47.7937 356.1 47.5353 353.789 47.9153 351.137C49.1467 346.857 50.8416 343.391 54.034 340.275C56.4207 338.55 58.7085 337.128 61.5056 336.193C68.7492 335.684 68.7492 335.684 71.8352 336.68L73.0133 337.258C74.9895 338.367 74.9895 338.367 76.9505 338.238C80.0821 337.273 81.8227 335.388 84.0953 333.1C84.9314 332.271 85.7675 331.451 86.6112 330.63L87.7209 329.527L88.6786 328.729H90.0392V327.369C91.3389 326.274 91.3389 326.274 93.4367 325.332C95.5802 325.058 97.7008 325.096 99.8595 325.134L101.722 325.142C103.675 325.149 105.628 325.18 107.574 325.203C108.904 325.21 110.227 325.225 111.557 325.233C114.803 325.256 118.048 325.286 121.294 325.332L120.663 324.23C117.281 318.339 114.073 312.608 111.793 306.193C111.162 304.437 110.447 302.78 109.657 301.093C108.403 298.372 107.59 295.605 106.829 292.709L106.343 291.371C104.792 290.596 103.903 290.619 102.185 290.649L99.5478 290.695L98.4609 292.998L97.0015 296L96.2871 297.52L95.5726 298.98L94.9265 300.333C93.8852 301.906 93.0567 302.674 91.3997 303.593C89.2107 303.821 89.2107 303.821 86.6036 303.768L85.167 303.753C82.0279 303.685 78.8887 303.51 75.7572 303.312C73.5834 303.175 71.4019 303.054 69.2281 302.932C68.1183 302.864 67.001 302.788 65.8913 302.697C62.2961 302.408 58.9441 302.24 55.3869 302.917C53.5323 304.475 52.6202 305.82 51.5561 307.987C50.226 310.472 48.2954 311.597 45.9543 313.064C42.5415 314.774 39.0451 314.729 35.2751 314.691C32.326 314.402 30.1902 313.589 27.6439 312.122C24.6035 309.933 22.7641 307.394 20.8259 304.232C19.3742 300.393 19.6402 296.069 20.0582 292.048C20.9247 289.061 22.3765 287.084 24.3907 284.751C27.013 282.509 29.7873 280.502 32.9721 279.149C36.5673 278.579 39.8736 278.723 43.3244 279.894C47.026 281.619 50.036 283.489 52.6126 286.682C53.5931 288.392 54.1328 290.17 54.7105 292.048L56.5195 292.002C66.5906 291.865 76.6009 292.663 86.6416 293.408L87.2649 291.843C88.0934 289.775 89.0511 287.799 90.0392 285.807L91.1033 283.656C92.0762 281.863 92.0762 281.863 93.4367 280.502C95.1621 280.403 96.8875 280.38 98.6205 280.418L100.072 280.441C101.258 280.456 102.444 280.479 103.629 280.502L103.204 278.313L102.649 275.326L102.375 273.897C101.486 269.032 101.273 264.487 100.908 259.448L35.0091 258.771L33.6485 262.845C31.6647 265.863 29.3009 268.265 26.0933 269.937C22.8173 271.358 19.739 271.928 16.1514 271.86C13.1263 271.495 10.4812 270.431 7.82849 268.956C5.25181 266.965 3.45041 264.844 1.80103 262.04C0.189648 258.019 0.014827 254.249 0.356866 249.939C0.828117 248.107 1.46659 246.884 2.39389 245.189L3.50361 243.106C5.94348 240.088 9.12823 238.089 12.5866 236.356C17.1091 235.992 21.4644 235.779 25.6677 237.671C26.5266 238.12 27.3778 238.591 28.2139 239.078L29.5745 239.754V241.115L31.6115 241.791C32.554 243 32.554 243 33.4357 244.467L34.3402 245.926C35.0091 247.226 35.0091 247.226 35.0091 248.586H100.908L101.592 234.319C102.003 230.679 102.421 227.076 102.945 223.45L100.863 223.519C98.0581 223.526 95.5042 223.351 92.7603 222.774C90.6472 221.056 89.7883 219.103 88.6786 216.663L85.281 210.552H54.7105L53.3499 214.626C52.3314 216.579 52.3314 216.579 51.3129 218.016H49.9523L49.2759 220.06C47.9913 220.972 47.9913 220.972 46.3876 221.839C45.8631 222.128 45.3462 222.416 44.8066 222.713C41.2418 224.309 37.4946 224.492 33.6485 224.134C30.1218 223.26 26.9066 221.725 24.1399 219.376C21.4264 215.637 19.739 212.361 19.2221 207.762C19.0853 204.076 19.7922 201.165 21.2896 197.797C22.977 194.651 25.3712 192.91 28.2976 191.025C31.0719 189.315 33.4053 188.661 36.6661 188.517C40.9377 188.54 43.9705 189.832 47.7101 191.8L49.2759 192.887L49.9523 194.924H51.3129L54.034 200.359L55.6454 200.298C61.4448 200.078 67.2519 199.888 73.0589 199.72C74.3434 199.682 75.6356 199.644 76.9277 199.606C79.1624 199.546 81.3894 199.5 83.6317 199.47L85.6535 199.409C88.443 199.386 90.2368 199.424 92.7299 200.746C94.1208 202.403 94.9113 203.977 95.6942 205.983C96.5607 208.203 97.4728 209.951 98.8713 211.905C101.668 212.923 104.093 212.923 107.027 212.589L107.24 210.574C107.681 207.564 108.608 204.821 109.657 201.97L110.273 200.306C112.697 193.959 115.897 188.023 119.166 182.079C119.903 180.711 120.61 179.335 121.294 177.944L118.793 177.967C115.722 177.997 112.652 178.012 109.581 178.02C108.251 178.028 106.921 178.035 105.59 178.05C103.683 178.066 101.775 178.073 99.8595 178.081L98.0657 178.104C95.0861 178.104 92.7603 177.997 90.0392 176.591V175.23L88.8534 174.676C87.2877 173.855 85.9499 172.988 84.6046 171.833V170.48L83.3884 169.933C81.8455 169.097 80.8118 168.177 79.55 166.953C78.3491 165.866 78.3491 165.866 77.1329 165.045C75.3619 164.931 75.362 164.931 73.7354 165.722C69.3725 167.356 65.4429 167.599 60.8215 167.082C57.7052 166.125 55.1893 164.741 52.7799 162.545C50.6516 160.196 49.1543 157.779 47.9153 154.853C47.3833 150.839 47.2845 146.712 48.493 142.813C50.416 139.028 53.3119 136.238 56.7475 133.798C59.4914 132.225 61.7412 131.624 64.8576 131.51C69.0685 131.647 72.1924 132.97 75.856 134.946C78.9115 137.401 81.1386 140.198 82.6816 143.809C83.3656 146.507 83.396 148.939 83.3276 151.713L83.3124 153.226C83.2972 154.45 83.2744 155.674 83.244 156.89L84.3841 157.376C86.3452 158.463 87.8045 159.824 89.4463 161.351C91.6125 163.442 91.6125 163.442 94.1132 165.045V166.398H95.4738V167.759C100.179 167.728 104.884 167.683 109.589 167.622C111.185 167.599 112.788 167.584 114.392 167.576C116.688 167.561 118.983 167.531 121.286 167.493H123.46L125.482 167.455L127.26 167.432L128.765 167.082C129.913 165.737 129.913 165.737 130.802 164.361H132.163L132.611 163.259C133.843 161.07 135.5 159.345 137.218 157.528L138.312 156.358C139.429 155.172 140.547 153.994 141.672 152.816L142.683 151.767C159.283 134.482 180.55 122.975 203.33 116.081C239.631 105.979 277.035 110.874 310.167 128.364ZM59.4686 144.668C57.9332 146.621 57.9332 146.621 57.8952 149C57.956 151.432 57.956 151.432 58.9973 153.325C60.0159 154.685 60.8824 155.81 62.1821 156.89C64.2723 157.369 66.2029 157.262 68.3008 156.89C70.3454 156.016 70.8851 155.324 72.3748 153.5C73.0437 151.417 73.2185 149.562 73.0513 147.381C72.4508 145.382 72.4508 145.382 71.0143 143.991C69.0761 142.767 67.5027 142.045 65.2452 141.658C62.8434 142.076 61.3764 143.185 59.4686 144.668ZM33.1849 199.812C31.3607 201.233 30.5094 202.32 29.5745 204.433C29.1792 206.447 29.1792 206.447 29.5745 208.507C30.9578 210.992 31.9536 212.361 34.325 213.942C36.3772 214.177 37.7834 214.322 39.7672 213.942C41.4394 212.976 42.4655 211.958 43.8413 210.552C44.6698 209.107 44.6698 209.107 44.6926 206.941C44.6622 204.479 44.6622 204.479 43.7121 202.571C42.2831 200.792 41.1734 199.926 39.0831 198.998C36.7117 198.709 35.3663 198.839 33.1849 199.812ZM14.6236 247.013C12.5638 248.601 11.5681 249.605 10.5496 251.976C10.1543 253.99 10.1543 253.99 10.5496 256.05C11.7505 258.3 11.7505 258.3 13.2631 260.132C15.3761 261.181 17.4055 261.067 19.7314 261.036C21.586 260.907 21.586 260.907 23.5014 259.493C24.976 257.16 25.4776 255.495 25.6297 252.759C25.5765 251.148 25.5765 251.148 24.4363 249.346C22.6121 247.758 20.9475 246.77 18.7053 245.865C16.5695 245.698 16.5695 245.698 14.6236 247.013ZM34.4998 290.094C32.3488 291.234 32.3488 291.234 30.973 292.557C30.1141 294.161 30.1141 294.161 30.0001 296.426C30.1218 298.812 30.1218 298.812 31.1023 300.713C32.3716 302.339 33.1621 303.327 35.0091 304.278C37.1221 304.551 38.4219 304.665 40.4437 304.278C42.6935 303.251 42.6935 303.251 43.7957 302.119C44.7838 300.424 44.8674 299.063 44.9434 297.102C44.8066 294.807 44.6622 293.644 43.4612 291.668C40.2537 289.783 38.1406 289.007 34.4998 290.094ZM60.8215 348.423C59.4914 349.48 59.4914 349.48 58.7845 351.137C58.4273 353.25 58.3893 355.142 58.7845 357.255C60.1223 359.376 60.1223 359.376 62.1821 360.645C64.6296 361.443 66.1801 361.337 68.7264 360.942C71.1207 360.113 71.1207 360.113 72.6712 358.099C73.819 355.986 73.819 355.986 74.0774 353.858C73.8266 351.714 73.8266 351.714 72.5876 349.609C71.1663 347.701 71.1663 347.701 69.3573 346.812C65.8001 345.938 63.8163 346.219 60.8215 348.423Z" fill="#0068F1"/>
</g>
<mask id="mask1_10626_4904" style="mask-type:luminance" maskUnits="userSpaceOnUse" x="62" y="0" width="330" height="188">
<path d="M62.2683 0H391.111V187.315H62.2683V0Z" fill="white"/>
</mask>
<g mask="url(#mask1_10626_4904)">
<path d="M201.47 -0.295898C204.365 -0.295898 206.646 0.0537406 209.314 1.21667C213.205 2.83565 217.173 4.08218 221.209 5.30592L223.535 6.0128C229.479 7.8218 235.445 9.50918 241.435 11.1586C246.695 12.6179 251.909 14.1761 257.131 15.7875C262.147 17.3228 267.179 18.7898 272.218 20.2416C279.629 22.3774 287.017 24.574 294.375 26.8695C306.08 30.5331 317.823 34.0371 329.627 37.3587C336.635 39.3349 343.62 41.3643 350.552 43.5989C351.229 43.8042 351.905 44.017 352.597 44.2298C355.432 45.1647 357.477 45.9856 359.841 47.8554C361.125 49.5808 361.125 49.5808 361.627 51.1086L361.718 52.5983L361.84 54.0805C361.802 55.6919 361.802 55.6919 361.437 57.5845C361.118 59.8115 361.224 61.5141 361.558 63.7336L361.893 66.0214L362.273 68.4689L362.653 71.0304C363.565 77.1186 364.546 83.1917 365.541 89.2572C366.583 95.7027 367.419 102.163 368.255 108.639C369.045 114.659 370.026 120.618 371.113 126.592C371.949 131.252 372.496 135.85 372.678 140.593L373.857 140.844C375.46 141.293 376.798 141.908 378.28 142.668L379.732 143.421L380.827 143.991V145.344L381.974 145.769C384.156 147.069 385.585 148.673 386.945 150.778C389.651 156.502 390.784 161.427 390.343 167.759C389.583 172.372 387.705 176.066 384.923 179.806C382.172 182.877 378.964 184.739 375.225 186.396C373.134 186.822 371.987 186.738 369.957 186.099C369.038 184.929 369.038 184.929 368.323 183.386L367.487 181.653L366.605 179.776C361.528 169.514 354.93 160.181 347.535 151.462C348.173 150.596 348.812 149.729 349.45 148.871L350.522 147.411C351.51 146.165 352.453 145.032 353.654 143.991H355.014L354.816 142.683C354.497 140.555 354.178 138.427 353.866 136.306L353.502 133.844C352.802 129.139 352.118 124.426 351.449 119.714C350.112 110.22 348.751 100.75 347.124 91.3018C345.916 84.2102 345.011 77.0882 344.137 69.9586C336.704 73.6375 329.278 77.3467 321.935 81.2079L320.293 82.0668C318.203 83.1689 316.219 84.2634 314.243 85.5784H312.206C312.632 89.8804 313.08 94.1901 313.552 98.4846L314.099 103.608C314.228 104.778 314.35 105.949 314.479 107.112C314.669 108.822 314.851 110.532 315.034 112.242L315.208 113.8C315.558 117.091 315.657 120.307 315.604 123.613H312.89V122.252L311.545 122.108C309.234 121.508 307.494 120.542 305.434 119.379C297.407 114.834 289.077 111.991 280.275 109.346C279.789 109.194 279.302 109.042 278.8 108.89C258.103 102.429 234.229 102.346 213.152 106.96C188.259 112.805 165.51 124.092 146.804 141.627C145.079 143.307 143.369 144.994 141.674 146.704L139.91 148.453L138.155 150.186L136.384 151.934C134.803 153.492 134.803 153.492 133.526 155.536C131.314 155.407 131.314 155.407 128.768 154.852C127.194 153.537 127.194 153.537 126.054 151.462C124.899 147.046 124.359 142.501 123.842 137.986L123.622 136.154C123.394 134.254 123.173 132.346 122.953 130.446C122.725 128.523 122.497 126.608 122.269 124.685C122.132 123.499 121.995 122.313 121.851 121.12C121.592 118.916 121.319 116.894 120.612 114.781L118.803 114.431C111.871 113.093 104.939 111.748 98.007 110.388C96.1295 110.023 94.2521 109.658 92.3747 109.293C89.2584 108.685 86.1344 108.069 83.0181 107.454C81.8172 107.218 80.6086 106.982 79.4077 106.747C77.7127 106.42 76.0253 106.085 74.3303 105.751L72.8102 105.455C70.4539 104.983 68.3105 104.535 66.2659 103.235C65.0041 101.692 64.3428 100.339 63.8792 98.401C63.4763 95.8623 63.4459 94.0533 64.1832 91.5602C67.0715 87.623 71.404 85.3123 75.4325 82.6368L79.6509 79.8245C81.8552 78.3576 84.0594 76.883 86.2637 75.4085L93.5377 70.5591L97.2393 68.0812C104.414 63.2927 111.62 58.5346 118.871 53.8601C121.608 52.0967 124.321 50.2953 127.027 48.4787C132.112 45.0735 137.227 41.7215 142.358 38.3772C149.404 33.7787 156.427 29.1345 163.42 24.4524C169.888 20.12 176.364 15.8027 182.878 11.5386L184.223 10.6569C186.435 9.21275 188.655 7.76859 190.866 6.32443L193.314 4.72826L195.495 3.3069C196.666 2.53161 197.806 1.71832 198.916 0.86703C200.109 0.000533283 200.109 0.000534743 201.47 -0.295898Z" fill="white"/>
</g>
<path d="M240.059 151.196C244.923 152.754 248.815 155.323 252.418 158.926C255.99 163.046 258.635 167.408 261.082 172.258L262.147 174.325C265.088 180.094 267.893 185.932 270.66 191.784C273.396 197.561 276.201 203.307 279.005 209.061L280.563 212.276C282.783 216.852 282.783 216.852 285.033 221.412C285.116 222.697 285.154 223.974 285.177 225.258L285.23 227.676L285.284 230.29C285.876 250.417 286.948 274.786 297.392 292.473C306.155 306.648 317.648 317.814 331.231 327.368L332.591 328.045C331.725 331.115 329.984 333.206 327.871 335.516C324.884 338.42 321.6 340.761 317.557 341.886C313.042 342.615 309.469 342.38 305.145 340.974C298.767 338.443 293.204 334.201 288.94 328.843C287.913 327.452 286.895 326.061 285.876 324.662C279.157 315.61 270.728 309.643 260.573 304.953C248.123 299.807 235.468 297.96 222.098 297.976C220.532 297.976 218.974 297.968 217.408 297.953C212.969 297.922 208.53 297.907 204.091 297.9C201.347 297.9 198.611 297.884 195.867 297.862C194.841 297.854 193.815 297.854 192.781 297.854C184.762 297.884 177.762 296.729 170.594 292.898C166.954 290.542 164.787 287.745 162.72 283.99C161.261 280.752 161.139 277.575 161.109 274.063C161.854 267.466 163.974 261.879 167.068 256.049C167.813 254.613 168.557 253.169 169.295 251.717L170.442 249.467C172.267 245.834 173.954 242.132 175.649 238.438C179.404 230.252 183.326 222.157 187.278 214.07L188.183 212.238L189.946 208.628L190.813 206.864L191.664 205.131C193.815 200.723 195.951 196.299 198.064 191.868L198.915 190.089C200.481 186.821 202.024 183.537 203.559 180.246L204.646 177.928C205.33 176.469 206.007 175.002 206.683 173.535C209.99 166.512 214.581 160.15 220.95 155.589C227.183 151.5 232.595 149.554 240.059 151.196Z" fill="#FEFEFE"/>
<path d="M314.926 208.507C318.711 209.639 322.01 211.22 325.332 213.349C328.136 216.351 331.025 220.037 332.302 223.99C332.659 225.86 332.674 227.623 332.674 229.531V232.031L332.667 234.775V237.671C332.667 240.286 332.667 242.901 332.659 245.515C332.651 248.252 332.651 250.98 332.651 253.717C332.651 258.893 332.644 264.069 332.636 269.245C332.628 275.136 332.628 281.034 332.621 286.925C332.613 299.048 332.606 311.171 332.59 323.295C323.355 318.939 315.147 308.108 309.317 299.945C298.448 284.257 293.849 267.565 292.108 248.624C291.774 244.314 291.675 240.005 291.652 235.68L291.614 233.445C291.584 227.737 292.055 221.983 294.852 216.898C296.889 213.843 299.291 211.958 302.484 210.164C306.71 208.279 310.358 207.716 314.926 208.507Z" fill="#FEFEFE"/>
<path d="M318.066 160.666C321.836 162.209 324.99 164.155 327.833 167.081C329.961 169.985 331.983 172.987 332.591 176.59C332.979 181.964 333.131 187.109 330.767 192.065C328.281 196.246 325.538 198.929 321.296 201.338C317.108 203.535 313.384 203.953 308.709 203.907C304.947 203.618 301.876 202.364 298.577 200.616C295.111 197.819 292.132 194.961 290.194 190.895C288.727 186.798 287.807 182.959 288.43 178.627C289.236 174.363 290.657 171.003 293.409 167.636C296.335 164.451 299.337 161.951 303.374 160.286C308.36 159.116 313.179 159.062 318.066 160.666ZM164.78 296.121C169.166 297.215 172.677 299.024 175.983 302.11C178.803 305.196 180.453 308.495 181.76 312.424C182.163 317.874 182.254 322.936 179.845 327.953L179.047 329.405L178.37 330.704C176.318 334.102 173.278 335.919 169.956 337.971C165.973 340.076 161.747 339.864 157.339 339.78C153.759 339.613 150.87 338.731 147.792 336.876C144.113 334.505 142.031 331.845 140.024 327.961C138.222 324.198 137.386 320.861 137.455 316.666C137.82 312.858 139.036 309.415 140.913 306.101C144.25 301.875 147.936 299.055 152.755 296.721C156.647 295.452 160.751 295.748 164.78 296.121Z" fill="#FEFEFE"/>
<path d="M235.711 217.409L238.151 218.017C239.474 219.522 239.474 219.522 240.576 221.673L241.222 222.897C241.723 223.854 242.218 224.82 242.704 225.785C243.738 227.814 244.779 229.844 245.836 231.858C247.074 234.245 248.313 236.639 249.545 239.033C251.316 242.492 253.102 245.927 255.071 249.279L255.945 250.754C256.462 251.62 256.986 252.479 257.526 253.323C258.772 255.398 259.403 257.176 259.54 259.571C259.213 262.17 259.213 262.17 258.096 263.668C256.5 264.884 256.5 264.884 254.592 265.233L252.38 265.249L249.856 265.279L247.135 265.271C246.208 265.271 245.273 265.279 244.338 265.279C242.385 265.287 240.431 265.287 238.486 265.279C235.985 265.264 233.484 265.279 230.991 265.302C229.06 265.317 227.137 265.317 225.214 265.309C223.846 265.309 222.478 265.325 221.11 265.34C215.121 265.279 215.121 265.279 213.053 264.184C212.111 263.318 212.111 263.318 210.978 261.486C210.598 259.274 210.507 258.172 210.978 256.052C211.913 253.733 213.144 251.628 214.414 249.477C215.166 248.17 215.911 246.855 216.648 245.54L217.857 243.411C219.233 240.918 220.548 238.41 221.847 235.879L222.531 234.534C223.436 232.77 224.333 231.007 225.222 229.236C225.853 228.004 226.484 226.766 227.115 225.534L228.209 223.376C229.327 221.399 230.543 219.72 232.04 218.017C233.401 217.341 233.401 217.341 235.711 217.409Z" fill="#0068F1"/>
</svg>
