<svg width="17" height="16" viewBox="0 0 17 16" fill="none" xmlns="http://www.w3.org/2000/svg">
<path d="M16.1735 14.6896C14.9836 12.6326 13.15 11.1576 11.0102 10.4584C12.0686 9.82826 12.891 8.86812 13.351 7.7254C13.8109 6.58268 13.8831 5.32056 13.5563 4.13287C13.2296 2.94518 12.522 1.89759 11.5422 1.15097C10.5624 0.404356 9.36466 0 8.13284 0C6.90102 0 5.70325 0.404356 4.72349 1.15097C3.74372 1.89759 3.03612 2.94518 2.70936 4.13287C2.3826 5.32056 2.45474 6.58268 2.91471 7.7254C3.37467 8.86812 4.19703 9.82826 5.2555 10.4584C3.11565 11.1568 1.28206 12.6318 0.0922159 14.6896C0.0485822 14.7608 0.0196403 14.8399 0.0070978 14.9225C-0.00544473 15.005 -0.00133381 15.0892 0.019188 15.1701C0.0397098 15.251 0.0762269 15.3269 0.126585 15.3935C0.176942 15.46 0.24012 15.5158 0.312392 15.5576C0.384663 15.5993 0.464563 15.6262 0.547378 15.6365C0.630193 15.6469 0.714246 15.6406 0.794576 15.6179C0.874907 15.5953 0.949888 15.5568 1.0151 15.5047C1.08031 15.4526 1.13442 15.388 1.17425 15.3146C2.64612 12.7709 5.24768 11.2521 8.13284 11.2521C11.018 11.2521 13.6196 12.7709 15.0914 15.3146C15.1313 15.388 15.1854 15.4526 15.2506 15.5047C15.3158 15.5568 15.3908 15.5953 15.4711 15.6179C15.5514 15.6406 15.6355 15.6469 15.7183 15.6365C15.8011 15.6262 15.881 15.5993 15.9533 15.5576C16.0256 15.5158 16.0887 15.46 16.1391 15.3935C16.1895 15.3269 16.226 15.251 16.2465 15.1701C16.267 15.0892 16.2711 15.005 16.2586 14.9225C16.246 14.8399 16.2171 14.7608 16.1735 14.6896ZM3.75784 5.62713C3.75784 4.76183 4.01443 3.91597 4.49516 3.19651C4.97589 2.47704 5.65917 1.91629 6.4586 1.58515C7.25803 1.25402 8.13769 1.16738 8.98636 1.33619C9.83503 1.505 10.6146 1.92168 11.2264 2.53353C11.8383 3.14539 12.255 3.92494 12.4238 4.77361C12.5926 5.62227 12.5059 6.50194 12.1748 7.30137C11.8437 8.10079 11.2829 8.78407 10.5635 9.2648C9.844 9.74554 8.99813 10.0021 8.13284 10.0021C6.9729 10.0009 5.86082 9.53955 5.04062 8.71935C4.22042 7.89915 3.75908 6.78707 3.75784 5.62713Z" fill="#182126"/>
</svg>
