<svg width="20" height="20" viewBox="0 0 20 20" fill="none" xmlns="http://www.w3.org/2000/svg">
<path d="M18.0977 15.199L15.5047 2.87092C15.4712 2.7097 15.4061 2.5567 15.3132 2.4207C15.2204 2.2847 15.1016 2.16839 14.9637 2.07844C14.8257 1.9885 14.6714 1.92669 14.5095 1.89657C14.3476 1.86646 14.1814 1.86862 14.0203 1.90295L10.3633 2.68889C10.0398 2.75971 9.75738 2.9554 9.57742 3.23337C9.39747 3.51135 9.33455 3.84914 9.40234 4.17326L11.9953 16.5014C12.0531 16.7827 12.206 17.0354 12.4282 17.2173C12.6504 17.3991 12.9285 17.4989 13.2156 17.4998C13.3044 17.4997 13.3929 17.4903 13.4797 17.4717L17.1367 16.6858C17.4606 16.6148 17.7433 16.4187 17.9233 16.1402C18.1033 15.8618 18.1659 15.5235 18.0977 15.199ZM10.625 3.91779C10.625 3.91311 10.625 3.91076 10.625 3.91076L14.2812 3.12951L14.5414 4.36936L10.8852 5.15607L10.625 3.91779ZM11.1422 6.37639L14.8 5.59123L15.0609 6.83342L11.4062 7.61935L11.1422 6.37639ZM11.6609 8.84279L15.3188 8.05685L16.3578 12.9975L12.7 13.7834L11.6609 8.84279ZM16.875 15.4639L13.2188 16.2451L12.9586 15.0053L16.6148 14.2186L16.875 15.4569C16.875 15.4615 16.875 15.4639 16.875 15.4639ZM8.125 2.49982H4.375C4.04348 2.49982 3.72554 2.63152 3.49112 2.86594C3.2567 3.10036 3.125 3.4183 3.125 3.74982V16.2498C3.125 16.5813 3.2567 16.8993 3.49112 17.1337C3.72554 17.3681 4.04348 17.4998 4.375 17.4998H8.125C8.45652 17.4998 8.77446 17.3681 9.00888 17.1337C9.2433 16.8993 9.375 16.5813 9.375 16.2498V3.74982C9.375 3.4183 9.2433 3.10036 9.00888 2.86594C8.77446 2.63152 8.45652 2.49982 8.125 2.49982ZM4.375 3.74982H8.125V4.99982H4.375V3.74982ZM4.375 6.24982H8.125V13.7498H4.375V6.24982ZM8.125 16.2498H4.375V14.9998H8.125V16.2498Z" fill="#182126"/>
</svg>
