<svg width="19" height="17" viewBox="0 0 19 17" fill="none" xmlns="http://www.w3.org/2000/svg">
<path fill-rule="evenodd" clip-rule="evenodd" d="M18.9275 8.28137C18.9275 8.59508 18.8029 8.89594 18.5811 9.11777C18.3593 9.33959 18.0584 9.46421 17.7447 9.46421H4.04033L9.11944 14.541C9.22942 14.6509 9.31665 14.7815 9.37617 14.9252C9.43569 15.0689 9.46632 15.2229 9.46632 15.3784C9.46632 15.5339 9.43569 15.6879 9.37617 15.8316C9.31665 15.9753 9.22942 16.1059 9.11944 16.2159C9.00947 16.3258 8.87891 16.4131 8.73522 16.4726C8.59153 16.5321 8.43752 16.5627 8.28199 16.5627C8.12646 16.5627 7.97246 16.5321 7.82876 16.4726C7.68507 16.4131 7.55452 16.3258 7.44454 16.2159L0.347503 9.11882C0.23735 9.00895 0.149954 8.87842 0.0903241 8.73471C0.0306938 8.59101 0 8.43695 0 8.28137C0 8.12579 0.0306938 7.97173 0.0903241 7.82803C0.149954 7.68432 0.23735 7.5538 0.347503 7.44392L7.44454 0.346884C7.66665 0.124778 7.96789 0 8.28199 0C8.5961 0 8.89734 0.124778 9.11944 0.346884C9.34155 0.568989 9.46632 0.870229 9.46632 1.18433C9.46632 1.49844 9.34155 1.79968 9.11944 2.02178L4.04033 7.09853H17.7447C18.0584 7.09853 18.3593 7.22315 18.5811 7.44498C18.8029 7.6668 18.9275 7.96766 18.9275 8.28137Z" fill="black" fill-opacity="0.3"/>
</svg>
