<svg width="176" height="57" viewBox="0 0 176 57" fill="none" xmlns="http://www.w3.org/2000/svg">
<mask id="mask0_10635_519" style="mask-type:luminance" maskUnits="userSpaceOnUse" x="0" y="15" width="55" height="42">
<path d="M0 15.707H54.994V56.3201H0V15.707Z" fill="white"/>
</mask>
<g mask="url(#mask0_10635_519)">
<path d="M44.4993 18.4158L44.6759 18.5085C47.1295 19.8017 49.2831 21.7547 50.933 23.9706L51.0584 24.1374C52.9667 26.6793 54.2392 29.5886 54.7343 32.74L54.7834 32.9897C54.9513 33.9221 54.9622 34.8413 54.96 35.7857C54.9589 36.0561 54.9611 36.3265 54.9644 36.5981C54.9698 38.225 54.7757 39.8029 54.3439 41.3754L54.2567 41.6938C53.2698 45.1374 51.3746 48.0773 48.8731 50.6083L48.7095 50.7751C48.5765 50.906 48.4391 51.0314 48.3006 51.1557H48.1054V51.3509C47.9691 51.4785 47.9691 51.4785 47.7772 51.6224L47.5656 51.7838L47.3377 51.9539L47.1076 52.1273C46.8885 52.2919 46.6693 52.4544 46.449 52.618L46.1589 52.8317C44.6759 53.9015 42.9203 54.6855 41.1854 55.2482L40.8266 55.3725C40.0829 55.6233 39.3359 55.8098 38.5661 55.9613L38.3131 56.0115C37.7384 56.1184 37.1877 56.1445 36.6044 56.1249L36.5062 56.3201C33.6623 56.3092 30.9318 56.2089 28.222 55.2482C28.0268 55.1882 27.8316 55.1293 27.6364 55.0715L27.4052 55.0028L27.2471 54.9559V54.7607L26.9592 54.7389C26.4936 54.6713 26.1207 54.4663 25.7118 54.2439L25.4708 54.1141C24.5744 53.6267 23.7097 53.0858 22.8602 52.5198L22.6563 52.3835C22.4927 52.2723 22.3346 52.1535 22.1787 52.0324V51.8383L22.0097 51.7598C21.4034 51.4403 20.8887 50.9823 20.471 50.4425C20.3227 50.2648 20.3227 50.2648 20.0937 50.0968C19.8211 49.8744 19.6194 49.6399 19.4002 49.3652L19.1843 49.0947C18.9618 48.8177 18.9618 48.8177 18.7677 48.5135C18.6423 48.3532 18.6423 48.3532 18.4744 48.2322C18.1385 48.1417 17.8092 48.1417 17.4624 48.1417L17.1637 48.1373C16.9554 48.1351 16.7482 48.134 16.5399 48.1351C16.2237 48.1351 15.9085 48.1275 15.5923 48.1188C14.6196 48.0817 14.6196 48.0817 13.6949 48.3281C13.3427 48.5702 13.0897 48.8799 12.8215 49.207C12.6721 49.3194 12.5205 49.4273 12.3646 49.5298C12.1694 49.6814 12.1694 49.6814 12.0418 49.8897C11.9971 50.219 12.0036 50.5145 12.0331 50.846C12.0418 51.1906 11.972 51.4218 11.8466 51.7402L11.7364 52.027C11.4486 52.498 11.0658 52.8383 10.5871 53.1152C10.1335 53.3137 9.68093 53.3497 9.18914 53.3333C8.67444 53.2679 8.27206 53.0673 7.84896 52.7739C7.47275 52.4751 7.2503 52.1949 7.07038 51.7402L6.95479 51.4599C6.85774 51.0881 6.82066 50.7566 6.87518 50.376C7.05184 49.7621 7.29501 49.2648 7.753 48.8177C8.09541 48.5702 8.42363 48.3663 8.82492 48.2322C9.86413 48.1591 9.86413 48.1591 10.3069 48.302L10.4759 48.3848C10.7594 48.544 10.7594 48.544 11.0407 48.5255C11.49 48.387 11.7397 48.1166 12.0658 47.7883C12.1857 47.6695 12.3057 47.5517 12.4267 47.4339L12.5859 47.2758L12.7233 47.1613H12.9185V46.9661C13.105 46.8091 13.105 46.8091 13.4059 46.6739C13.7134 46.6346 14.0177 46.6401 14.3274 46.6455L14.5945 46.6466C14.8748 46.6477 15.155 46.6521 15.4342 46.6554C15.625 46.6565 15.8148 46.6586 16.0056 46.6597C16.4712 46.663 16.9368 46.6674 17.4025 46.6739L17.312 46.5158C16.8267 45.6707 16.3665 44.8485 16.0394 43.9281C15.9489 43.6762 15.8464 43.4385 15.733 43.1964C15.5531 42.806 15.4364 42.4091 15.3273 41.9937L15.2575 41.8017C15.0351 41.6905 14.9075 41.6938 14.6611 41.6981L14.2827 41.7047L14.1267 42.0351L13.9174 42.4658L13.8149 42.6839L13.7124 42.8933L13.6197 43.0874C13.4703 43.3131 13.3514 43.4232 13.1137 43.5552C12.7996 43.5879 12.7996 43.5879 12.4256 43.5803L12.2195 43.5781C11.7692 43.5683 11.3188 43.5432 10.8695 43.5148C10.5577 43.4952 10.2447 43.4778 9.93283 43.4603C9.77362 43.4505 9.61333 43.4396 9.45412 43.4265C8.93833 43.3851 8.45744 43.3611 7.9471 43.4581C7.68103 43.6817 7.55018 43.8747 7.39751 44.1855C7.20668 44.5421 6.92971 44.7034 6.59385 44.9139C6.10423 45.1593 5.60262 45.1527 5.06175 45.1473C4.63865 45.1058 4.33223 44.9891 3.96693 44.7787C3.53075 44.4646 3.26686 44.1004 2.98879 43.6468C2.78051 43.0961 2.81868 42.4756 2.87865 41.8988C3.00297 41.4702 3.21124 41.1867 3.50022 40.8519C3.87642 40.5303 4.27444 40.2424 4.73134 40.0483C5.24713 39.9665 5.72148 39.9872 6.21655 40.1551C6.7476 40.4027 7.17942 40.6709 7.54909 41.1289C7.68976 41.3743 7.76718 41.6294 7.85005 41.8988L8.10958 41.8922C9.55444 41.8726 10.9906 41.9871 12.4311 42.094L12.5205 41.8693C12.6393 41.5727 12.7767 41.2892 12.9185 41.0035L13.0712 40.6949C13.2107 40.4376 13.2107 40.4376 13.4059 40.2424C13.6535 40.2282 13.901 40.2249 14.1496 40.2304L14.3579 40.2337C14.528 40.2358 14.6981 40.2391 14.8682 40.2424L14.8072 39.9283L14.7276 39.4998L14.6883 39.2948C14.5607 38.5969 14.5302 37.9448 14.4779 37.2218L5.02359 37.1248L4.82839 37.7092C4.54378 38.1422 4.20465 38.4867 3.74448 38.7266C3.27449 38.9306 2.83285 39.0123 2.31816 39.0025C1.88416 38.9502 1.50468 38.7975 1.12411 38.586C0.754441 38.3003 0.496002 37.996 0.259373 37.5937C0.0281956 37.0168 0.0031149 36.4759 0.0521857 35.8576C0.119794 35.5948 0.211393 35.4193 0.344429 35.1761L0.503635 34.8773C0.853673 34.4444 1.31057 34.1576 1.80673 33.909C2.45556 33.8567 3.08039 33.8261 3.68341 34.0976C3.80663 34.162 3.92877 34.2296 4.04872 34.2994L4.24391 34.3964V34.5916L4.53615 34.6887C4.67137 34.8621 4.67137 34.8621 4.79786 35.0725L4.92763 35.2819C5.02359 35.4683 5.02359 35.4683 5.02359 35.6635H14.4779L14.576 33.6168C14.6349 33.0944 14.6949 32.5775 14.7701 32.0574L14.4713 32.0672C14.0689 32.0683 13.7025 32.0432 13.3089 31.9603C13.0057 31.7139 12.8825 31.4337 12.7233 31.0836L12.2359 30.2069H7.85005L7.65486 30.7914C7.50874 31.0716 7.50874 31.0716 7.36262 31.2777H7.16743L7.07038 31.5711C6.88609 31.7019 6.88609 31.7019 6.656 31.8262C6.58076 31.8677 6.50661 31.9091 6.42919 31.9516C5.91776 32.1806 5.38017 32.2068 4.82839 32.1555C4.32242 32.0301 3.86116 31.8099 3.46423 31.4729C3.07494 30.9364 2.83285 30.4664 2.7587 29.8067C2.73908 29.2778 2.84049 28.8602 3.05531 28.3771C3.29739 27.9256 3.64088 27.6759 4.06071 27.4055C4.45873 27.1601 4.7935 27.0664 5.26131 27.0456C5.87414 27.0489 6.30924 27.2343 6.84574 27.5167L7.07038 27.6727L7.16743 27.9649H7.36262L7.753 28.7446L7.98418 28.7359C8.8162 28.7042 9.64931 28.677 10.4824 28.653C10.6667 28.6475 10.8521 28.6421 11.0375 28.6366C11.3581 28.6279 11.6776 28.6214 11.9992 28.617L12.2893 28.6083C12.6895 28.605 12.9469 28.6105 13.3045 28.8002C13.5041 29.0379 13.6175 29.2636 13.7298 29.5515C13.8541 29.8699 13.985 30.1207 14.1856 30.401C14.5869 30.5471 14.9348 30.5471 15.3557 30.4991L15.3862 30.2102C15.4495 29.7783 15.5825 29.3847 15.733 28.9758L15.8213 28.7369C16.1692 27.8264 16.6282 26.9748 17.0971 26.122C17.2029 25.9257 17.3043 25.7284 17.4025 25.5288L17.0437 25.5321C16.6032 25.5365 16.1626 25.5386 15.7221 25.5397C15.5312 25.5408 15.3404 25.5419 15.1496 25.5441C14.8759 25.5463 14.6022 25.5474 14.3274 25.5484L14.07 25.5517C13.6426 25.5517 13.3089 25.5365 12.9185 25.3347V25.1395L12.7484 25.0599C12.5238 24.9422 12.3318 24.8178 12.1388 24.6521V24.458L11.9644 24.3795C11.743 24.2595 11.5947 24.1276 11.4137 23.952C11.2414 23.7961 11.2414 23.7961 11.0669 23.6783C10.8128 23.662 10.8128 23.662 10.5795 23.7754C9.95355 24.0098 9.38978 24.0447 8.72678 23.9706C8.27969 23.8332 7.91875 23.6347 7.57308 23.3196C7.26775 22.9826 7.05293 22.6358 6.87518 22.216C6.79885 21.6402 6.78468 21.0481 6.95806 20.4887C7.23394 19.9457 7.64941 19.5455 8.1423 19.1954C8.53595 18.9697 8.85873 18.8836 9.30582 18.8672C9.90993 18.8868 10.3581 19.0766 10.8837 19.3601C11.3221 19.7123 11.6416 20.1136 11.8629 20.6316C11.9611 21.0187 11.9654 21.3676 11.9556 21.7656L11.9534 21.9827C11.9513 22.1582 11.948 22.3338 11.9436 22.5083L12.1072 22.578C12.3885 22.734 12.5979 22.9292 12.8334 23.1484C13.1442 23.4482 13.1442 23.4482 13.503 23.6783V23.8724H13.6982V24.0676C14.3732 24.0632 15.0482 24.0567 15.7232 24.048C15.9522 24.0447 16.1822 24.0425 16.4123 24.0414C16.7417 24.0393 17.071 24.0349 17.4014 24.0294H17.7132L18.0033 24.024L18.2585 24.0207L18.4744 23.9706C18.639 23.7775 18.639 23.7775 18.7666 23.5802H18.9618L19.0262 23.4221C19.2028 23.108 19.4405 22.8605 19.687 22.5999L19.844 22.4319C20.0043 22.2618 20.1646 22.0928 20.326 21.9238L20.471 21.7733C22.8526 19.2936 25.9037 17.6426 29.1718 16.6536C34.3798 15.2044 39.746 15.9066 44.4993 18.4158ZM8.53268 20.7548C8.31241 21.035 8.31241 21.035 8.30696 21.3764C8.31568 21.7253 8.31568 21.7253 8.46507 21.9968C8.61119 22.192 8.73551 22.3534 8.92197 22.5083C9.22185 22.577 9.49883 22.5617 9.79979 22.5083C10.0931 22.3828 10.1705 22.2836 10.3843 22.0219C10.4802 21.7231 10.5053 21.457 10.4813 21.1441C10.3952 20.8573 10.3952 20.8573 10.1891 20.6577C9.91102 20.4822 9.6853 20.3786 9.36143 20.323C9.01684 20.3829 8.80639 20.5422 8.53268 20.7548ZM4.76188 28.6661C4.50017 28.87 4.37803 29.0259 4.24391 29.3291C4.1872 29.618 4.1872 29.618 4.24391 29.9136C4.44237 30.2701 4.58522 30.4664 4.92544 30.6932C5.21987 30.727 5.4216 30.7478 5.70621 30.6932C5.94611 30.5547 6.09333 30.4086 6.2907 30.2069C6.40956 29.9997 6.40956 29.9997 6.41283 29.6889C6.40847 29.3356 6.40847 29.3356 6.27216 29.0619C6.06715 28.8067 5.90795 28.6824 5.60807 28.5494C5.26785 28.508 5.07484 28.5265 4.76188 28.6661ZM2.09898 35.4378C1.80346 35.6657 1.66061 35.8097 1.51449 36.1499C1.45779 36.4389 1.45779 36.4389 1.51449 36.7344C1.68678 37.0571 1.68678 37.0571 1.90378 37.3199C2.20693 37.4704 2.49808 37.4541 2.83176 37.4497C3.09784 37.4312 3.09784 37.4312 3.37263 37.2283C3.58418 36.8936 3.65615 36.6548 3.67796 36.2622C3.67033 36.031 3.67033 36.031 3.50676 35.7726C3.24505 35.5447 3.00624 35.4029 2.68455 35.2732C2.37813 35.2492 2.37813 35.2492 2.09898 35.4378ZM4.95052 41.6185C4.64193 41.7821 4.64192 41.7821 4.44455 41.9718C4.32133 42.2019 4.32133 42.2019 4.30497 42.5269C4.32242 42.8693 4.32242 42.8693 4.46309 43.1419C4.6452 43.3753 4.7586 43.517 5.02359 43.6533C5.32673 43.6926 5.5132 43.7089 5.80326 43.6533C6.12604 43.5061 6.12604 43.5061 6.28416 43.3436C6.42592 43.1005 6.43791 42.9053 6.44881 42.6239C6.42919 42.2946 6.40847 42.1278 6.23618 41.8443C5.776 41.5738 5.47285 41.4626 4.95052 41.6185ZM8.72678 49.9867C8.53595 50.1383 8.53595 50.1383 8.43454 50.376C8.38329 50.6792 8.37784 50.9507 8.43454 51.2538C8.62646 51.5581 8.62646 51.5581 8.92197 51.7402C9.2731 51.8547 9.49556 51.8394 9.86086 51.7827C10.2044 51.6638 10.2044 51.6638 10.4268 51.3749C10.5915 51.0717 10.5915 51.0717 10.6285 50.7664C10.5926 50.4589 10.5926 50.4589 10.4148 50.1568C10.2109 49.8831 10.2109 49.8831 9.95137 49.7555C9.44103 49.6301 9.15642 49.6705 8.72678 49.9867Z" fill="#0068F1"/>
</g>
<mask id="mask1_10635_519" style="mask-type:luminance" maskUnits="userSpaceOnUse" x="8" y="0" width="49" height="27">
<path d="M8.93359 0H56.1112V26.8733H8.93359V0Z" fill="white"/>
</mask>
<g mask="url(#mask1_10635_519)">
<path d="M28.9049 -0.0424805C29.3204 -0.0424805 29.6475 0.00768068 30.0303 0.174521C30.5886 0.406788 31.1578 0.585623 31.7368 0.761187L32.0705 0.8626C32.9232 1.12213 33.7792 1.36421 34.6385 1.60084C35.3931 1.81021 36.1412 2.03375 36.8903 2.26493C37.61 2.4852 38.3319 2.69566 39.0549 2.90394C40.1181 3.21036 41.178 3.5255 42.2336 3.85482C43.9129 4.38042 45.5976 4.88312 47.2911 5.35965C48.2965 5.64317 49.2986 5.93432 50.2931 6.25492C50.3902 6.28436 50.4872 6.31489 50.5865 6.34542C50.9932 6.47955 51.2866 6.59732 51.6257 6.86557C51.81 7.11311 51.81 7.11311 51.8819 7.33229L51.895 7.54602L51.9125 7.75866C51.907 7.98983 51.907 7.98983 51.8547 8.26136C51.8089 8.58086 51.8242 8.82513 51.8721 9.14354L51.9201 9.47177L51.9746 9.8229L52.0292 10.1904C52.16 11.0638 52.3007 11.9351 52.4435 12.8053C52.5929 13.73 52.7129 14.6569 52.8328 15.586C52.9462 16.4496 53.0869 17.3045 53.2428 18.1616C53.3628 18.8301 53.4413 19.4898 53.4675 20.1703L53.6365 20.2062C53.8666 20.2706 54.0585 20.3589 54.2711 20.4679L54.4794 20.5759L54.6364 20.6577V20.8518L54.8011 20.9129C55.1141 21.0993 55.3191 21.3294 55.5143 21.6315C55.9025 22.4526 56.0649 23.1592 56.0017 24.0676C55.8927 24.7295 55.6233 25.2594 55.2242 25.7959C54.8295 26.2365 54.3693 26.5036 53.8328 26.7414C53.5329 26.8024 53.3682 26.7904 53.0771 26.6988C52.9451 26.5309 52.9451 26.5309 52.8426 26.3095L52.7227 26.0609L52.5962 25.7916C51.8678 24.3194 50.9212 22.9804 49.8602 21.7296C49.9518 21.6053 50.0434 21.481 50.135 21.3578L50.2888 21.1484C50.4305 20.9696 50.5658 20.8071 50.7381 20.6577H50.9332L50.9049 20.4701C50.8591 20.1648 50.8133 19.8595 50.7686 19.5552L50.7162 19.2019C50.6159 18.5269 50.5178 17.8508 50.4218 17.1748C50.2299 15.8128 50.0347 14.4541 49.8013 13.0986C49.628 12.0812 49.4982 11.0595 49.3728 10.0366C48.3063 10.5644 47.241 11.0966 46.1876 11.6505L45.952 11.7737C45.6522 11.9318 45.3675 12.0889 45.084 12.2775H44.7918C44.8529 12.8947 44.9172 13.513 44.9848 14.1291L45.0633 14.8641C45.0818 15.032 45.0993 15.1999 45.1178 15.3668C45.1451 15.6121 45.1713 15.8575 45.1974 16.1028L45.2225 16.3264C45.2727 16.7986 45.2869 17.2598 45.2792 17.7342H44.8899V17.539L44.6969 17.5183C44.3654 17.4321 44.1157 17.2936 43.8202 17.1268C42.6687 16.4747 41.4735 16.0669 40.2108 15.6874C40.141 15.6656 40.0712 15.6438 39.9992 15.622C37.0299 14.6951 33.6048 14.6831 30.5809 15.345C27.0097 16.1835 23.7459 17.8029 21.0623 20.3186C20.8148 20.5595 20.5694 20.8016 20.3263 21.047L20.0733 21.2978L19.8214 21.5464L19.5673 21.7972C19.3405 22.0208 19.3405 22.0208 19.1573 22.3141C18.84 22.2956 18.84 22.2956 18.4747 22.216C18.2489 22.0273 18.2489 22.0273 18.0854 21.7296C17.9196 21.0961 17.8422 20.444 17.7681 19.7962L17.7364 19.5334C17.7037 19.2608 17.6721 18.9871 17.6405 18.7145C17.6078 18.4386 17.575 18.1638 17.5423 17.8879C17.5227 17.7178 17.5031 17.5477 17.4824 17.3765C17.4453 17.0603 17.406 16.7702 17.3046 16.4671L17.0451 16.4169C16.0506 16.225 15.0561 16.032 14.0616 15.8368C13.7922 15.7844 13.5229 15.7321 13.2536 15.6797C12.8065 15.5925 12.3583 15.5042 11.9112 15.4159C11.7389 15.3821 11.5655 15.3482 11.3932 15.3144C11.1501 15.2676 10.908 15.2196 10.6648 15.1716L10.4467 15.1291C10.1087 15.0615 9.80116 14.9971 9.50783 14.8107C9.32681 14.5893 9.23194 14.3952 9.16542 14.1171C9.10763 13.7529 9.10327 13.4934 9.20904 13.1357C9.62342 12.5709 10.245 12.2394 10.8229 11.8555L11.4281 11.452C11.7444 11.2416 12.0606 11.03 12.3768 10.8185L13.4204 10.1228L13.9514 9.76728C14.9808 9.08029 16.0146 8.39767 17.0549 7.72703C17.4475 7.47405 17.8367 7.21561 18.225 6.95499C18.9545 6.46646 19.6883 5.98557 20.4244 5.50577C21.4353 4.84604 22.4428 4.17977 23.4461 3.50805C24.374 2.88649 25.3031 2.26711 26.2376 1.65536L26.4307 1.52887C26.748 1.32168 27.0664 1.1145 27.3837 0.907309L27.7348 0.678312L28.0478 0.474397C28.2157 0.36317 28.3793 0.246491 28.5385 0.12436C28.7097 4.72628e-05 28.7097 4.74751e-05 28.9049 -0.0424805Z" fill="#111111"/>
</g>
<path d="M34.4399 21.6914C35.1378 21.915 35.6961 22.2835 36.213 22.8004C36.7255 23.3914 37.105 24.0174 37.4561 24.7131L37.6087 25.0097C38.0308 25.8373 38.4331 26.6748 38.8301 27.5145C39.2226 28.3432 39.625 29.1676 40.0274 29.9931L40.2509 30.4543C40.5693 31.1108 40.5693 31.1108 40.8921 31.7651C40.9041 31.9494 40.9096 32.1326 40.9128 32.3168L40.9205 32.6636L40.9281 33.0387C41.0132 35.9263 41.1669 39.4223 42.6652 41.9598C43.9225 43.9935 45.5713 45.5954 47.5199 46.9661L47.7151 47.0631C47.5908 47.5037 47.3411 47.8035 47.0379 48.135C46.6094 48.5516 46.1383 48.8875 45.5582 49.0488C44.9105 49.1535 44.3979 49.1197 43.7775 48.918C42.8626 48.5549 42.0644 47.9464 41.4526 47.1776C41.3054 46.9781 41.1593 46.7785 41.0132 46.5779C40.0492 45.2791 38.8399 44.4231 37.383 43.7503C35.5968 43.0121 33.7812 42.7471 31.8631 42.7493C31.6385 42.7493 31.4149 42.7482 31.1903 42.746C30.5535 42.7416 29.9167 42.7395 29.2798 42.7384C28.8862 42.7384 28.4936 42.7362 28.0999 42.7329C27.9527 42.7318 27.8055 42.7318 27.6572 42.7318C26.5068 42.7362 25.5025 42.5704 24.4742 42.0208C23.9518 41.6828 23.6411 41.2815 23.3445 40.7428C23.1351 40.2783 23.1176 39.8225 23.1133 39.3187C23.2201 38.3722 23.5244 37.5707 23.9682 36.7343C24.0751 36.5282 24.1819 36.321 24.2877 36.1127L24.4524 35.79C24.7141 35.2687 24.9562 34.7377 25.1993 34.2077C25.738 33.0333 26.3007 31.8719 26.8677 30.7117L26.9975 30.4489L27.2505 29.9309L27.3748 29.6779L27.4969 29.4293C27.8055 28.7968 28.1119 28.1622 28.4151 27.5265L28.5372 27.2713C28.7619 26.8024 28.9832 26.3313 29.2035 25.8592L29.3594 25.5266C29.4576 25.3172 29.5546 25.1067 29.6517 24.8963C30.126 23.8887 30.7847 22.976 31.6985 22.3217C32.5926 21.735 33.369 21.4559 34.4399 21.6914Z" fill="#FEFEFE"/>
<path d="M85.0463 24.3598C85.5337 24.458 85.5337 24.458 85.826 24.6521V24.8473L85.9797 24.9138C86.3014 25.0883 86.5849 25.3075 86.8739 25.5288L87.0517 25.6629C87.1989 25.7753 87.3417 25.8952 87.4824 26.0162V26.2114L87.6372 26.2747C87.9666 26.459 88.2348 26.7011 88.5183 26.9486C88.9022 27.2975 88.9022 27.2975 89.3351 27.5756V27.7708L89.5008 27.846C89.7505 27.9791 89.9632 28.1339 90.1878 28.3062L90.4234 28.4861L90.6022 28.6475V28.8427L90.7636 28.9125C91.0482 29.0684 91.2794 29.2615 91.528 29.4697C91.902 29.7827 91.902 29.7827 92.2924 30.076L92.4538 30.2069V30.401L92.6544 30.462C92.9805 30.6147 93.2008 30.8077 93.4625 31.0498C93.6304 31.2025 93.6304 31.2025 93.9161 31.2777L93.915 31.0313C93.9128 30.2636 93.9117 29.497 93.9106 28.7293C93.9106 28.3357 93.9096 27.9409 93.9085 27.5462C93.9074 27.1656 93.9063 26.7861 93.9063 26.4055C93.9063 26.2594 93.9063 26.1144 93.9052 25.9694C93.9052 25.7665 93.9041 25.5626 93.9052 25.3598L93.9041 25.0098L93.9161 24.7502L94.0131 24.6521H96.9378V37.6122C96.4503 37.514 96.4503 37.514 96.217 37.3374L95.9934 37.1247C95.7088 36.8478 95.7088 36.8478 95.3784 36.6373V36.4421L95.2017 36.3571C94.988 36.248 94.988 36.248 94.6958 36.0528V35.8576L94.5398 35.7944C94.2171 35.6134 93.9543 35.3713 93.6784 35.127C93.1539 34.6679 92.6174 34.235 92.0558 33.8239C91.9249 33.7269 91.7984 33.6233 91.6741 33.5197V33.3245L91.4996 33.2438C91.2914 33.1337 91.1343 33.017 90.9577 32.8621L90.7788 32.7062L90.5956 32.5448C90.4746 32.439 90.3536 32.3333 90.2325 32.2286C90.1791 32.1817 90.1268 32.1348 90.0722 32.0868C89.9021 31.9407 89.9021 31.9407 89.6273 31.7651V31.571L89.2369 31.4729V31.2777L88.8476 31.0836L88.068 30.4991V37.1247H85.0463V24.3598ZM152.009 24.6521C152.172 24.6423 152.334 24.6357 152.497 24.6346L152.812 24.6314L153.157 24.6292L153.513 24.627C153.763 24.6259 154.012 24.6248 154.262 24.6237C154.64 24.6216 155.018 24.6172 155.395 24.6128C156.668 24.6052 157.814 24.6357 159.027 25.0425C159.156 25.0763 159.286 25.109 159.417 25.1395V25.3347L159.654 25.3827C160.225 25.6226 160.665 26.0293 161.04 26.52C161.334 26.9748 161.454 27.3193 161.486 27.8657C161.522 29.34 161.522 29.34 161.19 30.015C160.817 30.6311 160.311 31.0847 159.709 31.4729C159.477 31.5689 159.275 31.6201 159.027 31.6681C160.234 33.3507 161.501 35.0256 162.849 36.597L163.023 36.8325V37.1247C160.3 37.3756 160.3 37.3756 159.32 37.1247C158.91 36.8892 158.673 36.622 158.423 36.2229C158.287 35.9819 158.163 35.7431 158.055 35.4869C157.96 35.2644 157.96 35.2644 157.796 35.0627L157.662 34.8839V34.6887H157.467C157.309 34.4869 157.156 34.2797 157.01 34.0671L156.879 33.8806C156.679 33.596 156.483 33.3092 156.29 33.0203L156.115 32.7586L155.963 32.5252L155.811 32.3496C155.61 32.2886 155.61 32.2886 155.42 32.2526L155.417 32.4292C155.407 33.0323 155.396 33.6364 155.384 34.2405C155.38 34.4662 155.375 34.6908 155.372 34.9166C155.367 35.2404 155.36 35.5643 155.354 35.8871L155.349 36.1946L155.343 36.4781L155.338 36.7289C155.323 36.9296 155.323 36.9296 155.225 37.1247C154.769 37.1269 154.313 37.1291 153.856 37.1302C153.702 37.1302 153.546 37.1313 153.391 37.1324C153.167 37.1335 152.945 37.1335 152.722 37.1346L152.511 37.1357C152.343 37.1357 152.176 37.1302 152.009 37.1247L151.911 37.0266C151.902 36.8685 151.898 36.7093 151.899 36.5501L151.898 36.2371L151.899 35.8903L151.898 35.5283C151.898 35.199 151.898 34.8708 151.898 34.5415C151.899 34.198 151.898 33.8545 151.898 33.511C151.898 32.9341 151.898 32.3562 151.899 31.7793C151.899 31.112 151.899 30.4435 151.899 29.7761C151.898 29.2037 151.898 28.6301 151.898 28.0576C151.898 27.7152 151.898 27.3728 151.898 27.0304C151.898 26.6498 151.898 26.2681 151.899 25.8865L151.898 25.5397L151.899 25.2268V24.9531L151.911 24.7502L152.009 24.6521ZM155.323 26.9911V30.3039C156.638 30.3497 156.638 30.3497 157.79 29.9266C158.028 29.738 158.187 29.5864 158.345 29.3291C158.476 28.9343 158.484 28.5734 158.442 28.1601C158.311 27.8242 158.311 27.8242 158.15 27.5756H157.954V27.3804C157.026 26.9399 156.43 26.9911 155.323 26.9911ZM124.717 24.6521H128.031L128.035 25.3489C128.04 26.1133 128.046 26.8766 128.054 27.641C128.058 28.1034 128.062 28.5657 128.065 29.0292C128.067 29.4763 128.071 29.9234 128.076 30.3704C128.078 30.5406 128.079 30.7107 128.079 30.8808C128.063 32.4238 128.063 32.4238 128.561 33.8588C128.768 34.1598 128.97 34.3713 129.268 34.5851C129.725 34.7944 130.138 34.8108 130.632 34.8162L130.862 34.825C131.364 34.8304 131.714 34.7432 132.154 34.5022C132.538 34.2558 132.763 33.9919 132.977 33.5928C133.271 32.7149 133.215 31.7684 133.223 30.8524C133.225 30.6016 133.227 30.3497 133.229 30.0989C133.237 29.4752 133.242 28.8514 133.248 28.2288C133.253 27.6999 133.259 27.171 133.264 26.6411C133.266 26.3935 133.269 26.1449 133.271 25.8974L133.276 25.4448L133.277 25.2344C133.279 25.073 133.286 24.9116 133.295 24.7502L133.392 24.6521C133.607 24.6423 133.823 24.6401 134.037 24.639H134.234C134.37 24.639 134.506 24.639 134.644 24.6401C134.853 24.6401 135.062 24.6401 135.273 24.639C135.405 24.639 135.538 24.639 135.67 24.639L136.038 24.6401L136.316 24.6521L136.413 24.7502C136.424 24.9847 136.429 25.2169 136.429 25.4514L136.431 25.6749C136.432 25.9192 136.433 26.1646 136.433 26.4099L136.435 26.9224C136.436 27.2823 136.436 27.6421 136.436 28.002C136.437 28.4589 136.44 28.9158 136.443 29.3727C136.444 29.7271 136.445 30.0815 136.445 30.4348C136.445 30.6027 136.446 30.7717 136.447 30.9397C136.457 32.3224 136.421 33.8381 135.731 35.078C135.206 35.8718 134.548 36.4966 133.728 36.9786C132.501 37.5893 131.16 37.694 129.812 37.6274C128.684 37.5478 127.727 37.2163 126.764 36.6373C126.045 36.1128 125.482 35.3822 125.117 34.5709C124.662 33.4281 124.678 32.282 124.689 31.0749C124.689 30.8895 124.689 30.703 124.69 30.5177C124.691 30.0313 124.693 29.5461 124.696 29.0608C124.7 28.5636 124.701 28.0663 124.703 27.5691C124.705 26.5964 124.711 25.6248 124.717 24.6521ZM108.909 24.6314L109.218 24.7502L109.555 24.8778C109.956 25.037 110.322 25.193 110.681 25.4318C110.738 26.1013 110.623 26.7665 110.535 27.4295L110.492 27.7566C110.458 28.0216 110.423 28.2855 110.389 28.5494C110.058 28.4763 109.863 28.3716 109.597 28.1601C109.323 27.9453 109.323 27.9453 109.024 27.7708V27.5756L108.813 27.5363C108.542 27.4796 108.283 27.4066 108.019 27.3259L107.758 27.2463L107.562 27.1863V26.9911L107.307 27.0413C106.984 27.0871 106.698 27.0849 106.373 27.0696C105.726 27.0664 105.217 27.1874 104.637 27.4786C104.051 27.822 103.629 28.2648 103.273 28.8427C102.857 29.6137 102.76 30.3334 102.772 31.2036C102.81 31.9211 103.02 32.4827 103.358 33.114C103.469 33.3245 103.469 33.3245 103.566 33.6167C103.743 33.7203 103.743 33.7203 103.955 33.8119C104.175 33.9559 104.391 34.1064 104.607 34.2558C105.125 34.5774 105.631 34.6778 106.236 34.7017C107.066 34.6996 107.749 34.6647 108.537 34.3964H108.829V34.2012C109.02 34.1031 109.211 34.006 109.402 33.909L109.723 33.7443C109.998 33.6167 109.998 33.6167 110.193 33.6167V33.4216L110.779 33.2274L110.584 36.5403C109.169 37.2469 109.169 37.2469 108.439 37.417L108.18 37.477C106.702 37.7714 105.171 37.6907 103.74 37.2153C103.042 36.9437 102.428 36.5708 101.811 36.1499L101.519 35.9558V35.7606L101.346 35.6853C100.917 35.4498 100.634 35.0801 100.349 34.6887C99.7108 33.6047 99.2724 32.5416 99.2583 31.269C99.2604 29.9419 99.4633 28.8438 100.125 27.6705C100.418 27.195 100.707 26.7774 101.128 26.4066L101.313 26.2289C102.285 25.3118 103.367 24.8157 104.637 24.458C105.963 24.1494 107.617 24.2126 108.909 24.6314ZM76.8581 24.3598C77.0391 24.386 77.0391 24.386 77.2484 24.458C77.3728 24.6128 77.3728 24.6128 77.4785 24.8124L77.6007 25.037L77.7239 25.2736L77.8438 25.4983C77.9267 25.6542 78.0096 25.8091 78.0925 25.965C78.2288 26.2202 78.3662 26.4742 78.5057 26.7283C78.8318 27.3237 79.1426 27.9278 79.4533 28.5319C79.9168 29.4305 80.3911 30.3225 80.8786 31.209C81.3584 32.0825 81.824 32.9636 82.2907 33.8446C82.7531 34.7192 83.2198 35.5894 83.7116 36.4476C83.9733 36.9099 83.9733 36.9099 83.9733 37.1247C83.4935 37.1346 83.0126 37.1411 82.5317 37.1466C82.3692 37.1476 82.2057 37.1509 82.0421 37.1542C81.8066 37.1586 81.5721 37.1607 81.3377 37.1629L81.1152 37.1684C80.908 37.1684 80.908 37.1684 80.5623 37.1247C80.2668 36.8401 80.1283 36.4596 79.9593 36.0888L79.8023 35.7508C79.6845 35.4683 79.6845 35.4683 79.6845 35.2731L74.1286 35.3702L73.349 37.0266L73.2519 37.1247C73.0066 37.1335 72.7634 37.1357 72.5169 37.1346L72.2945 37.1335C72.059 37.1335 71.8245 37.1324 71.589 37.1302C71.4298 37.1302 71.2705 37.1302 71.1113 37.1291C70.7199 37.128 70.3284 37.1269 69.938 37.1247C70.3229 36.1477 70.8311 35.235 71.3578 34.3288C71.7384 33.6636 72.0938 32.9854 72.4537 32.3104C72.7863 31.6877 73.1309 31.0738 73.4896 30.4664C73.6859 30.1295 73.8724 29.7881 74.0578 29.4446C74.2737 29.0477 74.4939 28.653 74.7142 28.2571C75.1515 27.4698 75.5888 26.6825 76.0097 25.8854L76.1296 25.6586C76.2081 25.5103 76.2856 25.362 76.3641 25.2126L76.4731 25.0054L76.5702 24.8211C76.6574 24.6619 76.7577 24.5103 76.8581 24.3598ZM76.761 29.4272L76.6716 29.6235C75.6378 31.8938 75.6378 31.8938 75.194 32.7422C75.0904 32.9287 75.0904 32.9287 75.1035 33.1293H78.6126C78.4698 32.6288 78.3465 32.2744 78.1132 31.8262C77.8329 31.2788 77.5625 30.727 77.303 30.1698L77.1983 29.9463C77.1176 29.774 77.0369 29.6006 76.9562 29.4272H76.761ZM143.919 24.3598C144.095 24.3751 144.095 24.3751 144.308 24.458C144.468 24.6913 144.468 24.6913 144.621 25.001L144.795 25.3445L144.972 25.7055C145.363 26.4873 145.763 27.2561 146.209 28.0074C146.376 28.292 146.524 28.5821 146.666 28.8787C147 29.557 147.359 30.2189 147.724 30.8808C148.165 31.6855 148.599 32.4936 149.031 33.3038C149.509 34.1958 149.991 35.0856 150.48 35.971L150.616 36.2164L150.733 36.429C150.849 36.6558 150.943 36.887 151.034 37.1247C150.552 37.1269 150.069 37.1291 149.587 37.1302C149.423 37.1302 149.259 37.1313 149.094 37.1324C148.859 37.1335 148.623 37.1335 148.388 37.1346L148.165 37.1357C147.645 37.1357 147.645 37.1357 147.428 37.0277C147.306 36.7703 147.19 36.5108 147.08 36.248C146.915 35.7759 146.915 35.7759 146.647 35.3702C146.474 35.3593 146.301 35.3528 146.127 35.3506L145.79 35.3451L145.423 35.3397L145.05 35.3342C144.722 35.3288 144.393 35.3233 144.066 35.3189C143.731 35.3135 143.397 35.3091 143.062 35.3037C142.406 35.2928 141.749 35.283 141.093 35.2731L141.033 35.4553L140.954 35.6941L140.877 35.9318C140.788 36.1826 140.677 36.4072 140.544 36.6373C140.503 36.7093 140.461 36.7823 140.418 36.8565C140.312 37.0266 140.312 37.0266 140.215 37.1247C139.977 37.1335 139.739 37.1357 139.502 37.1346L139.286 37.1335C139.058 37.1335 138.829 37.1324 138.601 37.1302L138.137 37.1291C137.757 37.128 137.377 37.1269 136.998 37.1247C137.144 36.6722 137.325 36.2622 137.553 35.8456L137.657 35.6526C137.925 35.1576 138.209 34.6734 138.496 34.1892C138.652 33.9155 138.792 33.6386 138.929 33.355C139.172 32.8589 139.444 32.3856 139.727 31.9113C140.06 31.3551 140.366 30.7946 140.65 30.2102C140.855 29.8034 141.081 29.4098 141.306 29.0139C141.648 28.412 141.976 27.8024 142.304 27.1918C142.82 26.2354 143.357 25.2911 143.919 24.3598ZM143.821 29.4272L143.701 29.6769C143.396 30.3105 143.089 30.944 142.784 31.5776L142.615 31.9265C142.51 32.1424 142.402 32.3562 142.29 32.5688C142.144 32.8316 142.144 32.8316 142.165 33.1293H145.575C145.498 32.6135 145.498 32.6135 145.305 32.1806C145.062 31.7183 144.85 31.2439 144.638 30.7663C144.561 30.5951 144.485 30.425 144.409 30.2538L144.307 30.027C144.215 29.8252 144.118 29.6246 144.016 29.4272H143.821ZM67.8912 24.6521C68.528 24.8985 68.528 24.8985 68.6709 25.0425C68.6796 25.2507 68.6807 25.4601 68.6807 25.6695L68.6796 26.0555L68.6763 26.4612L68.6753 26.8679C68.6742 27.2016 68.6731 27.5342 68.6709 27.8678L68.1835 27.7708V27.5756L67.9806 27.5429C67.6491 27.4676 67.3482 27.3532 67.0319 27.2288L66.6884 27.0936C66.6034 27.0598 66.5172 27.026 66.4289 26.9911V26.7959C66.1323 26.7883 65.8357 26.7828 65.5391 26.7774L65.2861 26.7698C64.8914 26.7654 64.6111 26.7828 64.236 26.9246C63.971 27.0805 63.971 27.0805 63.7976 27.3804C63.7398 27.6607 63.7398 27.6607 63.7976 27.9649C64.0866 28.3782 64.3341 28.6126 64.7976 28.834L64.9906 28.9212C65.1302 28.9877 65.2687 29.0543 65.4072 29.1208L65.6242 29.2233C68.3972 30.558 68.3972 30.558 69.2554 31.6681C69.6152 32.2689 69.7733 32.8316 69.7919 33.5317C69.7603 34.3517 69.5553 35.042 69.1583 35.7606H68.9631L68.8868 35.934C68.636 36.3898 68.1998 36.694 67.7713 36.9743C66.7582 37.5337 65.6111 37.6558 64.4715 37.6471C63.3745 37.6155 62.078 37.4824 61.0682 37.0266C60.8774 36.646 60.9025 36.1804 60.8665 35.7606L60.8403 35.464C60.7869 34.8468 60.764 34.2361 60.776 33.6167L60.9243 33.6833C62.331 34.3125 63.681 34.8501 65.2589 34.6887C65.767 34.5393 65.767 34.5393 66.2337 34.2994C66.3984 34.0693 66.43 33.9035 66.4649 33.6233C66.4507 33.319 66.4507 33.319 66.273 33.0868C66.0036 32.7989 65.7125 32.6201 65.369 32.4358L65.1923 32.3365C64.8292 32.1359 64.4617 31.9483 64.0899 31.7651V31.571L63.874 31.534C63.0736 31.3551 62.4117 30.8666 61.7977 30.3421C61.2852 29.8492 60.9243 29.2778 60.7236 28.5941C60.6037 27.9693 60.6102 27.3357 60.788 26.7229C61.0061 26.1646 61.3179 25.7305 61.7759 25.3423C63.4912 24.0774 65.8968 24.0327 67.8912 24.6521Z" fill="#0068F1"/>
<path d="M45.1806 29.9136C45.7236 30.0761 46.1969 30.3029 46.6734 30.6082C47.0758 31.0389 47.4902 31.5678 47.6734 32.1348C47.7246 32.4031 47.7268 32.6561 47.7268 32.9298V33.2885L47.7257 33.6822V34.0977C47.7257 34.4728 47.7257 34.8479 47.7246 35.223C47.7235 35.6156 47.7235 36.0071 47.7235 36.3996C47.7235 37.1422 47.7224 37.8848 47.7213 38.6274C47.7202 39.4725 47.7202 40.3187 47.7192 41.1638C47.7181 42.9031 47.717 44.6424 47.7148 46.3817C46.3899 45.7568 45.2122 44.2029 44.3758 43.0318C42.8165 40.7811 42.1567 38.3864 41.907 35.669C41.859 35.0507 41.8449 34.4324 41.8416 33.812L41.8361 33.4914C41.8318 32.6724 41.8994 31.847 42.3007 31.1174C42.5929 30.6791 42.9375 30.4086 43.3955 30.1513C44.0018 29.8809 44.5252 29.8002 45.1806 29.9136Z" fill="#FEFEFE"/>
<mask id="mask2_10635_519" style="mask-type:luminance" maskUnits="userSpaceOnUse" x="111" y="24" width="65" height="14">
<path d="M111.105 24.3608H175.307V37.2021H111.105V24.3608Z" fill="white"/>
</mask>
<g mask="url(#mask2_10635_519)">
<path d="M111.268 24.6521H123.257V27.2833L118.968 27.3804L118.871 37.1247H115.654L115.556 27.3804L111.268 27.2833V24.6521ZM161.856 24.6521C162.404 24.6128 162.95 24.5855 163.499 24.567C163.685 24.5594 163.871 24.5485 164.057 24.5343C165.286 24.4471 165.286 24.4471 165.853 24.6521C166.33 25.0086 166.626 25.5146 166.915 26.026C167.045 26.2507 167.194 26.4546 167.353 26.6596C167.436 26.7719 167.518 26.8842 167.601 26.9965L167.727 27.1699L167.853 27.3411L167.974 27.5047C168.059 27.6236 168.142 27.7424 168.222 27.8635C168.337 28.0303 168.459 28.1939 168.581 28.3553L168.873 28.4523L168.946 28.2887C169.093 28.0172 169.272 27.8002 169.471 27.5636C169.828 27.1318 170.183 26.6967 170.532 26.2594C170.799 25.9246 171.066 25.592 171.333 25.2594C171.508 25.0523 171.508 25.0523 171.612 24.8363L171.798 24.6521C172.063 24.6183 172.328 24.6063 172.594 24.6139C172.671 24.615 172.749 24.615 172.828 24.6161C173.076 24.6183 173.323 24.6226 173.571 24.6281C173.739 24.6302 173.906 24.6313 174.074 24.6335C174.485 24.6379 174.896 24.6444 175.307 24.6521C175.179 24.9279 175.036 25.1515 174.842 25.3838L174.679 25.5811L174.503 25.7916L174.135 26.2343L173.942 26.4655C173.624 26.8461 173.308 27.2288 172.992 27.6116L172.816 27.8242L172.653 28.0227L172.509 28.196C172.394 28.3411 172.29 28.4937 172.188 28.6475H171.993L171.921 28.8111C171.774 29.0826 171.594 29.2996 171.395 29.5362C171.283 29.6703 171.173 29.8056 171.063 29.9408C170.921 30.1087 170.921 30.1087 170.728 30.3028C170.497 30.5525 170.313 30.7892 170.141 31.0836C170.033 31.5568 170.037 32.0159 170.043 32.5001C170.042 32.6342 170.041 32.7683 170.04 32.9025C170.038 33.2514 170.039 33.6014 170.042 33.9504C170.044 34.3092 170.042 34.6668 170.04 35.0245C170.037 35.7246 170.039 36.4246 170.043 37.1247C169.587 37.1269 169.131 37.1291 168.675 37.1302C168.519 37.1302 168.364 37.1313 168.208 37.1324C167.986 37.1334 167.763 37.1334 167.54 37.1345L167.328 37.1356C167.161 37.1356 166.994 37.1302 166.826 37.1247L166.729 37.0266C166.722 36.8467 166.721 36.6667 166.722 36.4857L166.724 36.1346L166.726 35.7518C166.726 35.4858 166.725 35.2197 166.724 34.9536C166.723 34.5327 166.723 34.1118 166.727 33.6909C166.73 33.3506 166.729 33.0104 166.727 32.6713C166.726 32.4794 166.729 32.2885 166.733 32.0977C166.728 31.7422 166.712 31.4293 166.632 31.0836C166.451 30.7859 166.258 30.5449 166.019 30.2919L165.853 30.1087V29.9135H165.657C165.563 29.7805 165.47 29.6442 165.382 29.5057C165.175 29.1873 164.942 28.8885 164.713 28.5864L164.558 28.3814C164.316 28.0586 164.072 27.7359 163.827 27.4153L163.702 27.2539C163.592 27.1089 163.482 26.9649 163.371 26.821L163.22 26.6007V26.4066H163.025C162.936 26.2801 162.851 26.1525 162.768 26.0228C162.531 25.6618 162.269 25.3194 162.013 24.9727L161.856 24.7502V24.6521Z" fill="#0068F1"/>
</g>
<path d="M45.6308 23.0501C46.1716 23.2714 46.6242 23.5506 47.032 23.9704C47.3373 24.387 47.6274 24.8177 47.7146 25.3346C47.7703 26.1055 47.7921 26.8438 47.4529 27.5548C47.0964 28.1545 46.7027 28.5395 46.0942 28.8851C45.4934 29.2003 44.9591 29.2602 44.2884 29.2537C43.7486 29.2123 43.3081 29.0323 42.8348 28.7815C42.3376 28.3802 41.9101 27.9702 41.6321 27.3868C41.4216 26.7991 41.2897 26.2484 41.3791 25.6268C41.4947 25.0151 41.6986 24.5331 42.0933 24.05C42.5132 23.5931 42.9439 23.2344 43.5229 22.9956C44.2383 22.8276 44.9296 22.82 45.6308 23.0501ZM23.6395 42.4831C24.2687 42.6402 24.7725 42.8997 25.2468 43.3424C25.6514 43.7852 25.888 44.2584 26.0756 44.8222C26.1334 45.604 26.1465 46.3303 25.8008 47.05L25.6863 47.2583L25.5892 47.4447C25.2948 47.9322 24.8586 48.1928 24.3821 48.4872C23.8107 48.7893 23.2044 48.7587 22.5719 48.7467C22.0583 48.7227 21.644 48.5963 21.2023 48.3302C20.6745 47.99 20.3758 47.6083 20.0879 47.0511C19.8294 46.5113 19.7095 46.0326 19.7193 45.4307C19.7716 44.8843 19.9461 44.3904 20.2155 43.9149C20.6942 43.3086 21.223 42.9041 21.9144 42.5693C22.4727 42.3872 23.0616 42.4297 23.6395 42.4831Z" fill="#FEFEFE"/>
<path d="M33.8169 31.1907L34.167 31.2779C34.3567 31.4938 34.3567 31.4938 34.5148 31.8024L34.6075 31.978C34.6795 32.1154 34.7504 32.2539 34.8202 32.3924C34.9685 32.6835 35.1179 32.9747 35.2694 33.2636C35.4472 33.6061 35.6249 33.9495 35.8016 34.293C36.0556 34.7892 36.3119 35.2821 36.5943 35.763L36.7197 35.9745C36.7939 36.0988 36.8691 36.2221 36.9466 36.3431C37.1254 36.6408 37.2159 36.896 37.2355 37.2395C37.1886 37.6124 37.1886 37.6124 37.0283 37.8272C36.7993 38.0017 36.7993 38.0017 36.5256 38.0519L36.2083 38.054L35.8463 38.0584L35.4559 38.0573C35.3229 38.0573 35.1887 38.0584 35.0546 38.0584C34.7744 38.0595 34.4941 38.0595 34.215 38.0584C33.8562 38.0562 33.4974 38.0584 33.1398 38.0617C32.8628 38.0638 32.5869 38.0638 32.311 38.0628C32.1147 38.0628 31.9184 38.0649 31.7222 38.0671C30.8629 38.0584 30.8629 38.0584 30.5663 37.9014C30.4311 37.7771 30.4311 37.7771 30.2686 37.5143C30.2141 37.1969 30.201 37.0388 30.2686 36.7346C30.4027 36.402 30.5794 36.0999 30.7615 35.7913C30.8694 35.6038 30.9763 35.4151 31.0821 35.2265L31.2555 34.9211C31.4528 34.5635 31.6415 34.2036 31.8279 33.8405L31.9261 33.6475C32.0558 33.3945 32.1845 33.1415 32.3121 32.8874C32.4026 32.7108 32.4931 32.533 32.5836 32.3564L32.7407 32.0467C32.901 31.7632 33.0754 31.5222 33.2902 31.2779C33.4854 31.1809 33.4854 31.1809 33.8169 31.1907Z" fill="#0068F1"/>
<path d="M59.9961 41.119H63.0178V41.3142L63.3231 41.3513C63.6633 41.4058 63.9621 41.4887 64.2849 41.6065V41.8017L64.4866 41.8507C64.9141 42.0688 65.1714 42.3949 65.4549 42.7765C65.781 43.3196 65.8126 43.8593 65.8453 44.4874C65.8453 45.1395 65.6981 45.7109 65.3895 46.2856C65.0449 46.8014 64.5564 47.2921 63.997 47.5691C62.6764 48.0925 61.4639 47.9398 59.9961 47.9398V41.119ZM61.6536 42.4832L61.5565 42.5813C61.5467 42.8616 61.5424 43.1386 61.5435 43.4188L61.5424 43.6729C61.5424 43.8506 61.5435 44.0284 61.5435 44.2072C61.5435 44.4798 61.5435 44.7535 61.5424 45.0261C61.5424 45.1995 61.5435 45.3718 61.5435 45.5441L61.5424 45.7938C61.5435 45.989 61.5489 46.1853 61.5565 46.3816L61.6536 46.4786C62.1912 46.5408 62.6993 46.4819 63.2053 46.2943C63.4965 46.1395 63.6829 45.9498 63.8803 45.688C64.1158 45.302 64.178 44.9313 64.2183 44.4874C64.1813 44.0665 64.1071 43.7285 63.8956 43.361C63.5968 43.0099 63.2522 42.7722 62.8291 42.5933C62.4278 42.4603 62.0745 42.4537 61.6536 42.4832ZM170.913 43.5497C171.251 43.6184 171.522 43.7307 171.796 43.9455L171.893 44.1407C172.177 44.0971 172.31 44.0229 172.546 43.8473C172.893 43.638 173.128 43.5736 173.527 43.5453C173.887 43.5617 174.114 43.6718 174.428 43.8473C174.605 43.9695 174.605 43.9695 174.721 44.1407C174.884 44.6216 174.939 45.0392 174.938 45.5463V45.7458C174.938 45.8832 174.937 46.0217 174.936 46.1591C174.934 46.3707 174.934 46.5822 174.934 46.7938C174.931 47.5407 174.931 47.5407 174.915 47.8428L174.818 47.9398C174.591 47.9497 174.363 47.9529 174.135 47.9529H173.758L173.454 47.9398L173.356 47.8428C173.342 47.6269 173.331 47.411 173.325 47.194L173.319 46.9977C173.313 46.7905 173.307 46.5822 173.301 46.375L173.288 45.9541C173.278 45.6095 173.269 45.2649 173.259 44.9193C172.764 44.9084 172.764 44.9084 172.284 45.0174C172.213 45.4034 172.17 45.7775 172.155 46.17L172.143 46.4841L172.131 46.8079L172.119 47.1373C172.108 47.4055 172.098 47.6727 172.089 47.9398C171.864 47.9431 171.638 47.9453 171.413 47.9464L171.032 47.9497L170.724 47.9398L170.626 47.8428C170.615 47.6432 170.609 47.4437 170.607 47.243C170.603 47.122 170.6 46.9999 170.598 46.8745C170.593 46.6149 170.588 46.3554 170.585 46.097L170.576 45.7273L170.57 45.386L170.529 45.1145L170.237 44.9193C169.937 44.928 169.937 44.928 169.653 45.0174C169.439 45.2878 169.439 45.2878 169.428 45.5735L169.42 45.8887L169.41 46.2311L169.403 46.5888C169.396 46.8221 169.391 47.0555 169.383 47.2899L169.377 47.604L169.359 47.8428L169.262 47.9398H167.898V43.7503H169.262V44.1407L169.487 44.0087C170.413 43.5017 170.413 43.5017 170.913 43.5497ZM139.436 41.119C139.874 41.0918 140.313 41.0972 140.752 41.095L141.123 41.0896C141.83 41.0863 142.388 41.1419 143.042 41.4124V41.6065L143.213 41.6741C143.495 41.8376 143.636 42.023 143.822 42.2891C143.991 42.5922 144.034 42.855 144.048 43.1963C144.033 43.6522 143.966 44.0404 143.725 44.4329C143.383 44.8004 143.018 45.109 142.555 45.3097C142.17 45.3849 141.801 45.4111 141.411 45.4089L141.174 45.4078L140.995 45.4067L140.998 45.6292C140.999 45.9585 141.001 46.2889 141.002 46.6193L141.004 46.9682L141.005 47.3008L141.006 47.6083L140.995 47.8428L140.898 47.9398C140.653 47.9497 140.412 47.954 140.167 47.9529L139.959 47.954C139.785 47.9529 139.61 47.9475 139.436 47.9398L139.339 47.8428C139.329 47.6367 139.326 47.4306 139.326 47.2256V47.0293C139.325 46.8156 139.325 46.6018 139.326 46.387L139.325 45.9432C139.325 45.6324 139.325 45.3206 139.326 45.0098C139.326 44.6107 139.326 44.2116 139.326 43.8114C139.325 43.506 139.325 43.1996 139.326 42.8932C139.326 42.746 139.326 42.5988 139.325 42.4516C139.325 42.2455 139.325 42.0405 139.326 41.8344V41.48L139.339 41.2172L139.436 41.119ZM140.995 42.3861V44.2377C141.631 44.2814 141.631 44.2814 142.001 44.1036C142.266 43.9575 142.266 43.9575 142.458 43.7503C142.518 43.4188 142.517 43.108 142.458 42.7765C142.232 42.4963 142.232 42.4963 141.873 42.3861H140.995ZM93.7218 41.022C94.014 41.2172 94.014 41.2172 94.1144 41.3796L94.2038 41.5759L94.3074 41.7984L94.4164 42.0394L94.6509 42.5464L94.7719 42.8092C94.9573 43.2116 95.147 43.6118 95.3357 44.012L95.4458 44.2443C95.858 45.1123 96.2865 45.9716 96.7271 46.8254L96.8896 47.1427L97.0324 47.4186C97.1327 47.6476 97.1327 47.6476 97.1327 47.9398C96.8798 47.9529 96.6257 47.9627 96.3716 47.9704L96.1535 47.9835C95.9431 47.9878 95.9431 47.9878 95.5734 47.9398C95.3259 47.652 95.2768 47.436 95.1841 47.0631H92.3576L91.8702 47.9398H90.3097C90.4591 47.4949 90.6205 47.1045 90.8343 46.6924C91.1876 45.9988 91.5234 45.2987 91.8571 44.5965C93.0206 42.1593 93.0206 42.1593 93.7218 41.022ZM93.6247 43.7503C93.4939 44.036 93.3641 44.3228 93.2344 44.6096L93.122 44.8549L93.0152 45.0927L92.9159 45.3097C92.8276 45.5158 92.8276 45.5158 92.8451 45.7971H94.5015C94.4219 45.3162 94.3095 44.9367 94.1176 44.4994L94.0391 44.313C93.9715 44.1549 93.8963 44.0011 93.8188 43.8473L93.6247 43.7503ZM71.592 43.6031C71.9203 43.6849 72.2583 43.6892 72.5952 43.7078L72.8144 43.7209C72.9933 43.7307 73.1721 43.7405 73.3498 43.7503C73.3597 44.4024 73.3673 45.0545 73.3717 45.7055C73.3738 45.9269 73.376 46.1493 73.3793 46.3707C73.3847 46.6902 73.3869 47.0086 73.388 47.3281L73.3946 47.6258C73.3946 48.1699 73.3357 48.569 73.0707 49.0477C72.8711 49.3356 72.6705 49.4981 72.375 49.6944C71.7785 49.9452 71.1602 49.9321 70.5234 49.8896C70.1537 49.8263 69.8069 49.7151 69.4515 49.5962C69.3162 49.3269 69.3446 49.1055 69.3479 48.8046L69.35 48.4818L69.3544 48.2321H69.5485V48.4273C70.2464 48.6814 70.8549 48.7577 71.5953 48.7195V48.5254L71.7905 48.4273C71.8308 48.2015 71.8636 47.9736 71.8886 47.7457L71.5898 47.8428C71.2202 47.9453 70.9094 47.9802 70.5234 47.9398C70.1395 47.8243 69.7917 47.6792 69.4885 47.4121C69.2377 47.1242 69.0818 46.8385 68.964 46.4786C68.9008 45.9269 68.8746 45.3707 69.06 44.8408C69.2672 44.4526 69.4678 44.1865 69.8408 43.9455H70.0359V43.7503C70.5583 43.5802 71.0424 43.4657 71.592 43.6031ZM70.9563 44.7372C70.7033 44.9105 70.7033 44.9105 70.5419 45.1875C70.4078 45.5528 70.3849 45.7993 70.4263 46.1864C70.5583 46.5048 70.6695 46.7218 70.9138 46.9661C71.2507 46.9988 71.2507 46.9988 71.5953 46.9661L71.8886 46.7709C71.9333 46.567 71.9333 46.567 71.9268 46.3325L71.9279 46.0708L71.9246 45.7971L71.9279 45.5223L71.9257 45.0196L71.8886 44.8222L71.5953 44.627C71.2202 44.6009 71.2202 44.6009 70.9563 44.7372ZM156.104 43.6532C156.372 43.6751 156.639 43.6936 156.907 43.7078L157.128 43.7209C157.306 43.7307 157.484 43.7405 157.663 43.7503C157.673 44.4024 157.679 45.0534 157.685 45.7055C157.687 45.9269 157.689 46.1493 157.692 46.3707C157.697 46.6902 157.699 47.0086 157.701 47.3281L157.708 47.6258C157.708 48.1699 157.649 48.569 157.384 49.0477C157.184 49.3356 156.983 49.4981 156.688 49.6944C156.092 49.9452 155.473 49.9321 154.837 49.8896C154.467 49.8263 154.12 49.7151 153.765 49.5962L153.666 48.2321H153.862V48.4273C154.461 48.6334 154.979 48.7849 155.616 48.7195C155.905 48.641 155.905 48.641 156.104 48.4273C156.202 48.1667 156.249 47.9246 156.299 47.6476L155.951 47.7937C155.559 47.9377 155.257 47.9922 154.837 47.9398C154.453 47.8232 154.105 47.6792 153.802 47.4121C153.551 47.1242 153.396 46.8374 153.277 46.4786C153.212 45.953 153.208 45.4405 153.362 44.9302C153.547 44.5256 153.745 44.2159 154.099 43.9455C154.754 43.5453 155.362 43.4679 156.104 43.6532ZM155.317 44.7001C155.078 44.8549 154.974 44.9574 154.837 45.2115C154.744 45.5768 154.695 45.9225 154.792 46.2911C154.903 46.5604 155.02 46.7589 155.226 46.9661C155.564 46.9988 155.564 46.9988 155.908 46.9661L156.201 46.7709C156.246 46.567 156.246 46.567 156.24 46.3325L156.241 46.0708L156.238 45.7971L156.241 45.5223L156.24 45.2606L156.239 45.0196L156.201 44.8222L155.908 44.627C155.544 44.6052 155.544 44.6052 155.317 44.7001ZM100.057 43.6532C100.241 43.6816 100.241 43.6816 100.448 43.7503C100.584 43.9847 100.706 44.2257 100.813 44.4755L100.906 44.6805C101.129 45.1799 101.129 45.1799 101.129 45.4067H101.422L101.468 45.242C101.543 45.0011 101.627 44.7655 101.715 44.53L101.798 44.2977C101.911 44.0556 101.991 43.916 102.202 43.7503C102.632 43.6838 103.038 43.7045 103.469 43.7503C103.337 44.1723 103.175 44.5572 102.977 44.9509L102.89 45.1243C102.829 45.2453 102.769 45.3653 102.708 45.4863C102.618 45.6662 102.526 45.8473 102.437 46.0283C102.08 46.7382 101.71 47.4404 101.324 48.135H101.129C100.814 47.6007 100.551 47.0653 100.33 46.4852C100.256 46.2823 100.256 46.2823 100.154 46.0893H99.9603L99.8949 46.2638C99.6441 46.9203 99.3333 47.5255 98.9854 48.135L98.6932 48.038C98.5721 47.8428 98.5721 47.8428 98.4533 47.5854L98.3202 47.3019L98.1807 46.9966C98.0858 46.7905 97.9898 46.5855 97.8939 46.3805L97.7521 46.0762C97.5362 45.6183 97.3039 45.1679 97.0684 44.7186C96.9386 44.4329 96.9386 44.4329 96.7434 43.7503H98.3028L98.4664 44.1091L98.6801 44.5725L98.7881 44.8091L98.8927 45.0349L98.9887 45.2442L99.0825 45.4067L99.2777 45.5048L99.3246 45.3467C99.511 44.7492 99.7651 44.2061 100.057 43.6532ZM165.07 43.6532L166.631 43.7503L166.728 47.5505C165.558 47.8428 165.558 47.8428 165.364 47.8428V47.6476C165.105 47.6923 164.884 47.7414 164.644 47.8493C164.324 47.9638 164.045 47.954 163.706 47.9398V47.7457L163.506 47.7883C163.219 47.7457 163.219 47.7457 163.045 47.6138C162.686 47.267 162.438 46.9453 162.244 46.4786C162.168 45.9312 162.16 45.3784 162.33 44.8484C162.519 44.4776 162.737 44.205 163.066 43.9509C163.72 43.542 164.321 43.4657 165.07 43.6532ZM164.182 44.7982C163.906 44.9891 163.906 44.9891 163.786 45.1952C163.662 45.5245 163.695 45.8015 163.738 46.1449C163.79 46.3816 163.79 46.3816 163.924 46.556C164.087 46.7163 164.087 46.7163 164.389 46.8679C164.651 46.8777 164.651 46.8777 164.876 46.7709L165.169 46.5757C165.213 46.3914 165.213 46.3914 165.207 46.1798L165.208 45.9454L165.205 45.6989L165.208 45.4536L165.207 45.2181L165.206 45.0021L165.169 44.8222L164.876 44.627C164.485 44.5954 164.485 44.5954 164.182 44.7982ZM121.209 43.5551C121.491 43.6718 121.724 43.7928 121.965 43.9815C122.125 44.1919 122.199 44.374 122.281 44.627C122.298 44.8767 122.306 45.1254 122.304 45.3751V45.5888C122.303 45.736 122.303 45.8843 122.301 46.0326C122.299 46.2605 122.298 46.4873 122.299 46.7153C122.298 46.8592 122.298 47.0031 122.297 47.1471V47.3543C122.295 47.5167 122.29 47.6803 122.281 47.8428L122.184 47.9398C121.956 47.9497 121.729 47.9529 121.501 47.9529H121.124L120.819 47.9398L120.722 47.8428C120.706 47.6334 120.696 47.4251 120.691 47.2158L120.678 46.8298L120.667 46.4241L120.654 46.0174C120.643 45.6837 120.633 45.35 120.623 45.0174C120.398 44.9782 120.17 44.9454 119.942 44.9193C119.732 45.0665 119.665 45.1799 119.551 45.4067C119.536 45.5975 119.527 45.7884 119.521 45.9803L119.509 46.3249L119.497 46.6858L119.484 47.0489C119.474 47.3466 119.464 47.6432 119.454 47.9398H117.992V43.7503H119.356V44.2377L119.662 44.0066C120.15 43.6598 120.604 43.493 121.209 43.5551ZM106.101 43.5551L106.491 43.6532L108.05 43.7503L108.147 47.5505C107.646 47.7174 107.297 47.809 106.783 47.8428L106.588 47.6476L106.289 47.7937C105.916 47.9507 105.631 47.99 105.224 47.9398C104.843 47.8232 104.55 47.6596 104.271 47.375C103.95 46.9726 103.744 46.604 103.663 46.0893C103.672 45.5855 103.705 45.0708 103.956 44.627C104.179 44.2955 104.408 44.0273 104.751 43.8146C105.211 43.5944 105.584 43.5049 106.101 43.5551ZM105.741 44.7426C105.51 44.9247 105.367 45.0523 105.224 45.3097C105.117 45.6335 105.117 45.6335 105.126 45.9912C105.226 46.2573 105.348 46.4372 105.516 46.6738L105.808 46.8679C106.096 46.8396 106.329 46.8036 106.588 46.6738C106.702 46.3325 106.698 46.0588 106.697 45.6989L106.698 45.3336C106.7 45.0163 106.7 45.0163 106.588 44.7252C106.249 44.6379 106.066 44.5998 105.741 44.7426ZM83.0004 43.6532C83.2665 43.6751 83.5315 43.6936 83.7975 43.7078L84.0189 43.7209C84.1988 43.7307 84.3798 43.7405 84.5598 43.7503L84.5663 43.9957C84.5761 44.2999 84.5859 44.6052 84.5957 44.9095C84.6023 45.1046 84.6077 45.2998 84.6132 45.495C84.6317 46.0315 84.6492 46.5615 84.7211 47.0936L84.7539 47.4535L84.5598 47.6476C84.2697 47.7163 84.2697 47.7163 83.9262 47.7697L83.5816 47.8264L83.2926 47.8428L83.0975 47.6476L82.7987 47.7937C82.4366 47.9518 82.128 47.9649 81.7333 47.9398V47.7457L81.5196 47.7697C81.2459 47.7457 81.2459 47.7457 80.9961 47.5865C80.6581 47.2583 80.4204 46.9268 80.271 46.4786C80.1739 45.2246 80.1739 45.2246 80.4226 44.6761C80.6581 44.2901 80.9623 43.9935 81.3429 43.7503C81.8958 43.5333 82.4301 43.4635 83.0004 43.6532ZM82.2687 44.7492C82.0201 44.9236 81.8827 45.0469 81.7333 45.3097C81.6253 45.5801 81.6253 45.5801 81.6351 45.8941C81.7409 46.1689 81.875 46.4208 82.0255 46.6738H82.3178V46.8679C82.7202 46.8134 82.7202 46.8134 83.0975 46.6738C83.2196 46.3074 83.2054 45.965 83.201 45.5834L83.2 45.362C83.1978 45.1821 83.1967 45.0021 83.1945 44.8222C82.8423 44.6281 82.646 44.5605 82.2687 44.7492ZM151.09 43.6718C151.513 43.8266 151.873 44.0295 152.205 44.3348C152.416 44.6227 152.524 44.8658 152.595 45.2115C152.634 45.7022 152.66 46.1973 152.479 46.6618C152.239 47.0751 151.969 47.3466 151.577 47.6171C151.079 47.8722 150.646 47.9791 150.09 47.9649C149.603 47.9115 149.206 47.7098 148.775 47.4895C148.468 47.23 148.285 47.001 148.103 46.6433C147.928 46.134 147.933 45.6433 148.014 45.1145C148.152 44.7001 148.347 44.386 148.661 44.0829C149.377 43.5257 150.234 43.4155 151.09 43.6707M149.841 44.7917C149.573 44.9858 149.573 44.9858 149.488 45.1941C149.45 45.844 149.45 45.844 149.573 46.4786H149.768L149.865 46.7709C150.134 46.8472 150.134 46.8472 150.451 46.8679C150.723 46.7643 150.723 46.7643 150.937 46.5757C151.069 46.3641 151.13 46.1995 151.168 45.9519C151.176 45.6979 151.173 45.4634 151.132 45.2115C150.937 44.9029 150.937 44.9029 150.645 44.7252C150.288 44.5692 150.191 44.6096 149.841 44.7917ZM116.141 43.7503V43.9455L116.36 44C116.628 44.1407 116.628 44.1407 116.853 44.4329C117.054 44.8157 117.053 45.1723 117.04 45.5975L117.017 45.7971L116.92 45.8941C116.607 45.9203 116.295 45.9378 115.981 45.953C115.807 45.9628 115.632 45.977 115.458 45.9912L115.361 46.0893C115.147 46.0959 114.934 46.0981 114.721 46.0948L114.367 46.0926L114.094 46.0893C114.185 46.254 114.283 46.4165 114.386 46.5757C114.589 46.6618 114.589 46.6618 114.775 46.6738V46.8679C115.01 46.8243 115.243 46.7796 115.476 46.7349L115.675 46.6967C116.045 46.6247 116.382 46.5342 116.725 46.3816C116.828 46.6891 116.822 46.8079 116.762 47.1187C116.704 47.3532 116.704 47.3532 116.628 47.5505C116.414 47.6901 116.414 47.6901 116.141 47.7457L115.83 47.8548C115.209 47.9976 114.634 48.0064 114.021 47.8243C113.613 47.6683 113.323 47.4829 113.021 47.1613C112.762 46.7458 112.609 46.3347 112.582 45.8451C112.605 45.4449 112.7 45.1046 112.879 44.7448C113.149 44.3348 113.496 44.0295 113.899 43.7503C114.666 43.4275 115.367 43.53 116.141 43.7503ZM114.464 44.7982L114.191 45.0174C114.122 45.2191 114.122 45.2191 114.094 45.4067C114.331 45.41 114.568 45.4111 114.806 45.4132L115.01 45.4154C115.316 45.4165 115.555 45.4067 115.848 45.3097C115.785 45.0687 115.785 45.0687 115.653 44.8222C115.222 44.5845 114.904 44.5572 114.464 44.7982ZM126.018 43.626C126.487 43.819 126.827 44.036 127.154 44.4329C127.301 44.6674 127.349 44.8146 127.369 45.0948L127.361 45.3827L127.356 45.6728L127.349 45.8941L127.04 45.9116L126.636 45.9367L126.433 45.9487C126.133 45.9672 125.88 45.9934 125.595 46.0893C125.394 46.0959 125.192 46.097 124.992 46.0948L124.671 46.0926L124.426 46.0893C124.517 46.254 124.616 46.4165 124.718 46.5757C124.974 46.7218 125.175 46.7676 125.467 46.8014C126.02 46.7491 126.533 46.556 127.057 46.3816C127.167 46.7131 127.167 46.9301 127.118 47.2714L127.057 47.4535C126.801 47.6356 126.801 47.6356 126.473 47.7457L126.155 47.8613C125.703 47.9595 125.276 47.9573 124.815 47.9398V47.7457L124.504 47.7643C124.132 47.7457 124.132 47.7457 123.883 47.6541C123.517 47.3444 123.267 47.0086 123.061 46.5757C122.948 46.1395 122.921 45.7317 123.004 45.2868C123.14 44.8626 123.37 44.5202 123.67 44.193C124.3 43.6369 125.204 43.3763 126.018 43.626ZM124.907 44.7492C124.613 44.8942 124.613 44.8942 124.486 45.133L124.426 45.3097L124.523 45.4067C124.746 45.4165 124.97 45.4198 125.192 45.4187L125.564 45.4198C125.887 45.422 125.887 45.422 126.179 45.3097C126.176 45.1221 126.176 45.1221 126.082 44.9193C125.806 44.7415 125.806 44.7415 125.498 44.627C125.197 44.6085 125.197 44.6085 124.907 44.7492ZM87.094 41.119L87.191 41.2172C87.2008 41.4222 87.2041 41.6283 87.2041 41.8344V42.0306C87.2041 42.2444 87.2041 42.4581 87.2041 42.6729V43.1167C87.2041 43.4275 87.2041 43.7394 87.2041 44.0502C87.203 44.4493 87.2041 44.8484 87.2041 45.2486C87.2041 45.5539 87.2041 45.8603 87.2041 46.1668C87.2041 46.314 87.2041 46.4612 87.2041 46.6084C87.2041 46.8145 87.2041 47.0195 87.2041 47.2256L87.203 47.58L87.191 47.8428L87.094 47.9398C86.8661 47.9497 86.6393 47.9529 86.4114 47.9529H86.0341L85.7287 47.9398L85.6317 47.8428C85.623 47.64 85.6197 47.436 85.6208 47.2321V47.0391C85.6208 46.8276 85.6219 46.6171 85.6219 46.4056L85.623 45.9661C85.623 45.5812 85.624 45.1952 85.6251 44.8102C85.6262 44.4166 85.6262 44.024 85.6273 43.6303C85.6284 42.8583 85.6295 42.0863 85.6317 41.3142C86.1387 41.1812 86.5629 41.0874 87.094 41.119ZM78.8087 42.3861V43.7503H79.7835V44.8222H78.8087C78.8163 45.2017 78.8272 45.5812 78.8392 45.9607L78.8458 46.2867L78.8567 46.6018L78.8643 46.8908C78.9134 47.2038 79.017 47.3902 79.198 47.6476L79.3932 47.8428L79.2961 47.9398C79.0562 47.9573 78.8229 47.9671 78.583 47.9704L78.3834 47.9791C78.1882 47.9813 78.1882 47.9813 77.8338 47.9398C77.6005 47.7577 77.4783 47.6192 77.3464 47.3554C77.3311 47.1722 77.3224 46.9879 77.3158 46.8036L77.3038 46.4721L77.2919 46.1253L77.2788 45.7764C77.269 45.4907 77.2591 45.205 77.2493 44.9193L76.6637 44.7252V43.7503L77.2493 43.6532L77.3464 42.4832C77.8414 42.3818 78.3049 42.3785 78.8087 42.3861ZM133.977 43.5551C134.406 43.6696 134.826 43.8037 135.244 43.9455L135.147 44.8222C134.49 44.7372 134.49 44.7372 134.27 44.627C134.043 44.6238 133.815 44.6227 133.588 44.627L133.49 45.1145L134.563 45.3097V45.5048L134.787 45.5288L135.05 45.6019C135.209 45.7687 135.209 45.7687 135.342 45.9912C135.408 46.3554 135.397 46.6989 135.342 47.0631C135.217 47.3532 135.11 47.435 134.855 47.6476C134.468 47.8679 134.086 47.9584 133.642 47.9769C133.181 47.9595 132.733 47.8602 132.321 47.6476C132.126 47.3554 132.126 47.3554 132.107 47.1351L132.114 46.8985L132.119 46.6607L132.126 46.4786C132.419 46.5222 132.621 46.58 132.881 46.7283C133.291 46.9094 133.634 46.8952 134.075 46.8679L133.977 46.2834L133.002 46.0893V45.8941L132.783 45.8702C132.516 45.7971 132.516 45.7971 132.29 45.6564C132.126 45.4067 132.126 45.4067 132.095 45.1777C132.087 44.8364 132.084 44.5431 132.204 44.2203C132.405 43.9139 132.679 43.8179 133.002 43.6532C133.347 43.5388 133.622 43.5093 133.977 43.5551ZM129.982 43.5551C130.444 43.6652 130.851 43.7776 131.249 44.0425L131.151 44.7252C130.931 44.7862 130.931 44.7862 130.663 44.8222L130.487 44.7306C130.157 44.5714 129.857 44.615 129.494 44.627V45.0174L129.751 45.1068C130.788 45.483 130.788 45.483 131.132 45.7109C131.346 45.9912 131.346 45.9912 131.397 46.2398C131.418 46.6018 131.41 46.9181 131.263 47.2529C131.105 47.4677 130.914 47.616 130.683 47.7479C130.271 47.9278 129.875 47.9845 129.427 47.9693C129.042 47.9202 128.676 47.8101 128.324 47.6476L128.129 47.4535C128.11 47.2212 128.11 47.2212 128.117 46.9541L128.122 46.6847L128.129 46.4786C128.392 46.5375 128.584 46.6073 128.83 46.7283C129.242 46.9126 129.635 46.8952 130.079 46.8679L129.982 46.2834L129.789 46.2551C129.246 46.1624 128.861 46.0523 128.421 45.6989L128.263 45.5735C128.129 45.4067 128.129 45.4067 128.083 45.1614C128.08 44.8789 128.086 44.6139 128.129 44.3348C128.367 43.9902 128.578 43.8681 128.946 43.6718C129.332 43.5442 129.577 43.5148 129.982 43.5551ZM111.657 43.5551L112.144 43.6532V45.1145L111.42 45.1624C111.168 45.1984 111.168 45.1984 110.962 45.3282L110.78 45.5048C110.719 45.7557 110.719 45.7557 110.723 46.0414L110.715 46.3565L110.712 46.6858C110.708 46.9017 110.703 47.1165 110.699 47.3325L110.696 47.6214L110.682 47.8428L110.585 47.9398C110.357 47.9497 110.13 47.9529 109.902 47.9529H109.525L109.219 47.9398L109.122 47.8428C109.114 47.5418 109.11 47.2398 109.113 46.9377L109.114 46.6629C109.114 46.3729 109.115 46.0817 109.116 45.7905C109.117 45.5943 109.117 45.3969 109.118 45.2006C109.119 44.7175 109.12 44.2334 109.122 43.7503H110.486L110.585 44.1407L110.792 44.012C111.358 43.6794 111.358 43.6794 111.657 43.5551ZM147.429 43.5551V45.1145L146.162 45.3097C146.153 45.5823 146.153 45.5823 146.143 45.8603L146.118 46.5702L146.107 46.9333L146.094 47.279L146.085 47.5996L146.064 47.8428L145.967 47.9398C145.739 47.9497 145.512 47.9529 145.284 47.9529H144.907L144.601 47.9398L144.504 47.8428C144.496 47.5418 144.492 47.2398 144.495 46.9377L144.496 46.6629C144.496 46.3729 144.497 46.0817 144.498 45.7905C144.499 45.5943 144.499 45.3969 144.5 45.2006C144.501 44.7175 144.502 44.2334 144.504 43.7503H145.869L145.967 44.1407C146.183 44.0393 146.367 43.9368 146.558 43.7928C146.859 43.5693 147.051 43.5551 147.429 43.5551ZM161.66 43.5551V45.1145L161.012 45.181C160.799 45.2093 160.6 45.253 160.392 45.3097C160.283 45.8549 160.263 46.399 160.24 46.9541L160.228 47.2419C160.217 47.4742 160.207 47.7076 160.197 47.9398C159.971 47.9431 159.747 47.9453 159.521 47.9464L159.141 47.9497L158.833 47.9398L158.735 47.8428C158.727 47.5418 158.724 47.2398 158.726 46.9377V46.6629C158.726 46.3729 158.728 46.0817 158.729 45.7905C158.729 45.5943 158.731 45.3969 158.731 45.2006C158.732 44.7175 158.733 44.2334 158.735 43.7503H160.1L160.197 44.1407L160.392 44.2377L160.489 43.9455H160.685V43.7503C161.038 43.6216 161.279 43.5551 161.66 43.5551ZM75.9822 43.5551C76.0934 43.7776 76.0913 43.8997 76.0923 44.1472L76.0934 44.3937L76.0923 44.6608V44.9345C76.0923 45.1265 76.0923 45.3173 76.0923 45.5081C76.0913 45.8015 76.0923 46.0959 76.0923 46.3892C76.0923 46.5746 76.0923 46.76 76.0923 46.9453L76.0934 47.2125C76.0913 47.423 76.0869 47.6334 76.0793 47.8428L75.9822 47.9398C75.7543 47.9497 75.5275 47.9529 75.2996 47.9529H74.9223L74.617 47.9398L74.5199 47.8428C74.5112 47.5473 74.509 47.255 74.5101 46.9595L74.5112 46.6913C74.5112 46.4067 74.5123 46.1231 74.5134 45.8396C74.5145 45.6477 74.5145 45.4558 74.5155 45.2628C74.5166 44.7917 74.5177 44.3195 74.5199 43.8473C75.522 43.5551 75.522 43.5551 75.9822 43.5551ZM68.1843 43.6532C68.1865 44.2475 68.1887 44.8429 68.1898 45.4372C68.1898 45.6401 68.1909 45.8429 68.192 46.0457C68.1931 46.3358 68.1931 46.6258 68.1942 46.917L68.1952 47.1929V47.447L68.1963 47.6716L68.1843 47.8428L68.0862 47.9398C67.8572 47.9475 67.6282 47.9486 67.3981 47.9464L67.0176 47.9442L66.722 47.9398C66.5607 47.6171 66.6108 47.2572 66.6119 46.9017V46.6487C66.6119 46.4721 66.6119 46.2943 66.6119 46.1177C66.613 45.8462 66.6119 45.5746 66.6108 45.3042C66.6108 45.1319 66.6119 44.9607 66.6119 44.7884L66.6108 44.542C66.613 43.9673 66.613 43.9673 66.722 43.7503C66.9772 43.6849 66.9772 43.6849 67.2945 43.6347L67.6108 43.5813C67.8921 43.5551 67.8921 43.5551 68.1843 43.6532ZM75.0073 41.4124C75.3541 41.4058 75.3541 41.4058 75.69 41.5094C75.9277 41.6741 75.9277 41.6741 76.0793 41.8987C76.1338 42.1855 76.1338 42.1855 76.0793 42.4832C75.8786 42.7634 75.8786 42.7634 75.5918 42.9706C75.2451 43.0262 75.2451 43.0262 74.9103 42.9706C74.6726 42.819 74.6726 42.819 74.5199 42.5813C74.4654 42.2466 74.4654 42.2466 74.5199 41.8987C74.7206 41.6065 74.7206 41.6065 75.0073 41.4124ZM67.1124 41.4124C67.4592 41.4058 67.4592 41.4058 67.794 41.5094C68.0317 41.6675 68.0317 41.6675 68.1843 41.8987C68.2389 42.24 68.2389 42.24 68.1843 42.5813C67.9772 42.819 67.9772 42.819 67.6969 42.9706C67.4047 43.0262 67.4047 43.0262 67.1124 42.9706C66.8322 42.7634 66.8322 42.7634 66.625 42.4832C66.5639 42.1909 66.5639 42.1909 66.625 41.8987C66.8256 41.613 66.8256 41.613 67.1124 41.4124Z" fill="#111111"/>
</svg>
