<svg width="19" height="17" viewBox="0 0 19 17" fill="none" xmlns="http://www.w3.org/2000/svg">
<path fill-rule="evenodd" clip-rule="evenodd" d="M0.000190735 8.28137C0.000190735 8.59508 0.124809 8.89594 0.346636 9.11777C0.56846 9.33959 0.869322 9.46421 1.18303 9.46421H14.8874L9.80829 14.541C9.69832 14.6509 9.61108 14.7815 9.55156 14.9252C9.49204 15.0689 9.46141 15.2229 9.46141 15.3784C9.46141 15.5339 9.49204 15.6879 9.55156 15.8316C9.61108 15.9753 9.69832 16.1059 9.80829 16.2159C9.91827 16.3258 10.0488 16.4131 10.1925 16.4726C10.3362 16.5321 10.4902 16.5627 10.6457 16.5627C10.8013 16.5627 10.9553 16.5321 11.099 16.4726C11.2427 16.4131 11.3732 16.3258 11.4832 16.2159L18.5802 9.11882C18.6904 9.00895 18.7778 8.87842 18.8374 8.73471C18.897 8.59101 18.9277 8.43696 18.9277 8.28137C18.9277 8.12579 18.897 7.97173 18.8374 7.82803C18.7778 7.68432 18.6904 7.5538 18.5802 7.44392L11.4832 0.346884C11.2611 0.124778 10.9598 0 10.6457 0C10.3316 0 10.0304 0.124778 9.80829 0.346884C9.58619 0.568989 9.46141 0.870229 9.46141 1.18433C9.46141 1.49844 9.58619 1.79968 9.80829 2.02178L14.8874 7.09853H1.18303C0.869322 7.09853 0.56846 7.22315 0.346636 7.44498C0.124809 7.6668 0.000190735 7.96766 0.000190735 8.28137Z" fill="white"/>
</svg>
