<svg width="48" height="33" viewBox="0 0 48 33" fill="none" xmlns="http://www.w3.org/2000/svg">
<path d="M47.6797 11.2317L42.8947 1.65794C42.7184 1.30557 42.4745 0.991367 42.1768 0.733284C41.879 0.475202 41.5334 0.278292 41.1596 0.153801C40.7858 0.0293093 40.3911 -0.0203254 39.9981 0.00773117C39.6051 0.0357878 39.2214 0.140987 38.8691 0.317319L34.206 2.64794L24.3828 0.0491938C24.1308 -0.0163979 23.8661 -0.0163979 23.6141 0.0491938L13.791 2.64794L9.12783 0.317319C8.77548 0.140987 8.39185 0.0357878 7.99884 0.00773117C7.60584 -0.0203254 7.21115 0.0293093 6.83733 0.153801C6.46351 0.278292 6.11787 0.475202 5.82016 0.733284C5.52244 0.991367 5.27848 1.30557 5.1022 1.65794L0.317203 11.2298C0.140871 11.5822 0.0356724 11.9658 0.00761582 12.3588C-0.0204408 12.7518 0.0291939 13.1465 0.153685 13.5203C0.278177 13.8941 0.475086 14.2398 0.733169 14.5375C0.991252 14.8352 1.30545 15.0792 1.65783 15.2554L6.72033 17.7886L17.1247 25.2192C17.278 25.3283 17.4503 25.4078 17.6328 25.4536L29.6328 28.4536C29.8841 28.5166 30.1475 28.5134 30.3972 28.4444C30.6469 28.3754 30.8745 28.2429 31.0578 28.0598L41.3835 17.7323L46.3372 15.2554C47.0484 14.8994 47.5891 14.2756 47.8405 13.5211C48.0919 12.7666 48.0334 11.9431 47.6778 11.2317H47.6797ZM37.3878 17.4886L30.936 12.3211C30.6469 12.0896 30.2825 11.9732 29.9128 11.9943C29.5431 12.0154 29.1943 12.1726 28.9335 12.4354C25.5941 15.7992 21.8722 15.3736 19.4985 13.8736L27.606 5.99857H33.5703L38.6722 16.2004L37.3878 17.4886ZM7.78533 2.99857L11.6235 4.91482L6.82908 14.4867L2.99845 12.5723L7.78533 2.99857ZM29.5353 25.3354L18.6397 22.6129L9.4147 16.0242L14.6647 5.52419L23.9985 3.05107L25.836 3.53669L17.3985 11.7267L17.3835 11.7436C17.0658 12.0612 16.8236 12.4461 16.6746 12.8698C16.5256 13.2935 16.4737 13.7453 16.5226 14.1918C16.5716 14.6383 16.7202 15.0681 16.9574 15.4495C17.1947 15.8309 17.5146 16.1542 17.8935 16.3954C21.7485 18.8573 26.4003 18.4579 30.0641 15.4579L35.2485 19.6223L29.5353 25.3354ZM41.1603 14.4848L36.3753 4.92232L40.2116 2.99857L44.9985 12.5723L41.1603 14.4848ZM24.7072 31.8604C24.6262 32.1846 24.4392 32.4725 24.1759 32.6783C23.9127 32.8842 23.5883 32.9962 23.2541 32.9967C23.1308 32.9965 23.0081 32.9814 22.8885 32.9517L15.0753 30.9979C14.8926 30.9529 14.7201 30.8733 14.5672 30.7636L9.62658 27.2348C9.32279 26.9963 9.12272 26.6498 9.06802 26.2675C9.01333 25.8851 9.10822 25.4964 9.33294 25.1823C9.55766 24.8681 9.89489 24.6528 10.2744 24.5811C10.6539 24.5094 11.0465 24.5868 11.3703 24.7973L16.0785 28.1611L23.6235 30.0436C24.0093 30.1401 24.341 30.3859 24.5457 30.727C24.7503 31.0681 24.8111 31.4764 24.7147 31.8623L24.7072 31.8604Z" fill="#326AFD"/>
</svg>
