<svg width="39" height="42" viewBox="0 0 39 42" fill="none" xmlns="http://www.w3.org/2000/svg">
<path d="M12 21V18C12 17.6022 12.158 17.2206 12.4393 16.9393C12.7206 16.658 13.1022 16.5 13.5 16.5C13.8978 16.5 14.2794 16.658 14.5607 16.9393C14.842 17.2206 15 17.6022 15 18V21C15 21.3978 14.842 21.7794 14.5607 22.0607C14.2794 22.342 13.8978 22.5 13.5 22.5C13.1022 22.5 12.7206 22.342 12.4393 22.0607C12.158 21.7794 12 21.3978 12 21ZM19.5 22.5C19.8978 22.5 20.2794 22.342 20.5607 22.0607C20.842 21.7794 21 21.3978 21 21V16.5C21 16.1022 20.842 15.7206 20.5607 15.4393C20.2794 15.158 19.8978 15 19.5 15C19.1022 15 18.7206 15.158 18.4393 15.4393C18.158 15.7206 18 16.1022 18 16.5V21C18 21.3978 18.158 21.7794 18.4393 22.0607C18.7206 22.342 19.1022 22.5 19.5 22.5ZM25.5 22.5C25.8978 22.5 26.2794 22.342 26.5607 22.0607C26.842 21.7794 27 21.3978 27 21V15C27 14.6022 26.842 14.2206 26.5607 13.9393C26.2794 13.658 25.8978 13.5 25.5 13.5C25.1022 13.5 24.7206 13.658 24.4393 13.9393C24.158 14.2206 24 14.6022 24 15V21C24 21.3978 24.158 21.7794 24.4393 22.0607C24.7206 22.342 25.1022 22.5 25.5 22.5ZM36 9V27H37.5C37.8978 27 38.2794 27.158 38.5607 27.4393C38.842 27.7206 39 28.1022 39 28.5C39 28.8978 38.842 29.2794 38.5607 29.5607C38.2794 29.842 37.8978 30 37.5 30H21V33.2587C22.0008 33.6126 22.8443 34.3089 23.3814 35.2245C23.9186 36.1401 24.1147 37.2161 23.9352 38.2623C23.7557 39.3086 23.2121 40.2577 22.4005 40.9419C21.5889 41.6261 20.5615 42.0014 19.5 42.0014C18.4385 42.0014 17.4111 41.6261 16.5995 40.9419C15.7879 40.2577 15.2443 39.3086 15.0648 38.2623C14.8853 37.2161 15.0814 36.1401 15.6186 35.2245C16.1557 34.3089 16.9992 33.6126 18 33.2587V30H1.5C1.10218 30 0.720644 29.842 0.43934 29.5607C0.158035 29.2794 0 28.8978 0 28.5C0 28.1022 0.158035 27.7206 0.43934 27.4393C0.720644 27.158 1.10218 27 1.5 27H3V9C2.20435 9 1.44129 8.68393 0.87868 8.12132C0.31607 7.55871 0 6.79565 0 6V3C0 2.20435 0.31607 1.44129 0.87868 0.878679C1.44129 0.31607 2.20435 0 3 0H36C36.7956 0 37.5587 0.31607 38.1213 0.878679C38.6839 1.44129 39 2.20435 39 3V6C39 6.79565 38.6839 7.55871 38.1213 8.12132C37.5587 8.68393 36.7956 9 36 9ZM21 37.5C21 37.2033 20.912 36.9133 20.7472 36.6666C20.5824 36.42 20.3481 36.2277 20.074 36.1142C19.7999 36.0006 19.4983 35.9709 19.2074 36.0288C18.9164 36.0867 18.6491 36.2296 18.4393 36.4393C18.2296 36.6491 18.0867 36.9164 18.0288 37.2074C17.9709 37.4983 18.0006 37.7999 18.1142 38.074C18.2277 38.3481 18.42 38.5824 18.6666 38.7472C18.9133 38.912 19.2033 39 19.5 39C19.8978 39 20.2794 38.842 20.5607 38.5607C20.842 38.2794 21 37.8978 21 37.5ZM3 6H36V3H3V6ZM33 9H6V27H33V9Z" fill="#326AFD"/>
</svg>
