<svg width="33" height="39" viewBox="0 0 33 39" fill="none" xmlns="http://www.w3.org/2000/svg">
<path d="M31.5 0H6C4.4087 0 2.88258 0.632141 1.75736 1.75736C0.632141 2.88258 0 4.4087 0 6V37.5C0 37.8978 0.158036 38.2794 0.43934 38.5607C0.720645 38.842 1.10218 39 1.5 39H28.5C28.8978 39 29.2794 38.842 29.5607 38.5607C29.842 38.2794 30 37.8978 30 37.5C30 37.1022 29.842 36.7206 29.5607 36.4393C29.2794 36.158 28.8978 36 28.5 36H3C3 35.2044 3.31607 34.4413 3.87868 33.8787C4.44129 33.3161 5.20435 33 6 33H31.5C31.8978 33 32.2794 32.842 32.5607 32.5607C32.842 32.2794 33 31.8978 33 31.5V1.5C33 1.10218 32.842 0.720644 32.5607 0.43934C32.2794 0.158035 31.8978 0 31.5 0ZM15 3H24V16.5L20.3981 13.8C20.1385 13.6053 19.8227 13.5 19.4981 13.5C19.1736 13.5 18.8578 13.6053 18.5981 13.8L15 16.5V3ZM30 30H6C4.94652 29.9986 3.91145 30.2761 3 30.8044V6C3 5.20435 3.31607 4.44129 3.87868 3.87868C4.44129 3.31607 5.20435 3 6 3H12V19.5C12 19.7786 12.0776 20.0516 12.224 20.2886C12.3705 20.5256 12.58 20.7171 12.8292 20.8416C13.0783 20.9662 13.3573 21.019 13.6347 20.9939C13.9122 20.9689 14.1771 20.8671 14.4 20.7L19.5 16.875L24.6019 20.7C24.861 20.8943 25.1761 20.9996 25.5 21C25.7329 20.9997 25.9625 20.9458 26.1713 20.8425C26.4205 20.7178 26.63 20.5261 26.7764 20.289C26.9228 20.0519 27.0002 19.7787 27 19.5V3H30V30Z" fill="#326AFD"/>
</svg>
