<svg width="45" height="33" viewBox="0 0 45 33" fill="none" xmlns="http://www.w3.org/2000/svg">
<path d="M23.9901 23.5725C26.3416 22.1079 28.152 19.9174 29.1476 17.3323C30.1432 14.7471 30.2698 11.9081 29.5082 9.2446C28.7465 6.58113 27.1382 4.23818 24.9264 2.57021C22.7146 0.902235 20.0197 0 17.2495 0C14.4793 0 11.7844 0.902235 9.57264 2.57021C7.36086 4.23818 5.75248 6.58113 4.99086 9.2446C4.22923 11.9081 4.35579 14.7471 5.35139 17.3323C6.34699 19.9174 8.15746 22.1079 10.5089 23.5725C6.63701 24.84 3.15326 27.2081 0.352013 30.5419C0.0959136 30.8465 -0.0287013 31.2403 0.00558274 31.6368C0.0398667 32.0332 0.230241 32.3998 0.534826 32.6559C0.83941 32.912 1.23325 33.0367 1.62972 33.0024C2.02618 32.9681 2.39279 32.7777 2.64889 32.4731C6.41201 27.9806 11.5983 25.5075 17.2401 25.5075C22.882 25.5075 28.0683 27.9806 31.8408 32.4731C32.0969 32.7777 32.4635 32.9681 32.8599 33.0024C33.2564 33.0367 33.6502 32.912 33.9548 32.6559C34.2594 32.3998 34.4498 32.0332 34.4841 31.6368C34.5184 31.2403 34.3937 30.8465 34.1376 30.5419C31.3364 27.2081 27.8526 24.84 23.9901 23.5725ZM7.49014 12.7575C7.49014 10.8291 8.06197 8.94407 9.13331 7.34069C10.2047 5.73731 11.7274 4.48763 13.509 3.74967C15.2906 3.01172 17.251 2.81864 19.1423 3.19484C21.0336 3.57105 22.7709 4.49965 24.1344 5.86321C25.498 7.22677 26.4266 8.96405 26.8028 10.8554C27.179 12.7467 26.9859 14.7071 26.248 16.4887C25.51 18.2702 24.2603 19.793 22.6569 20.8643C21.0536 21.9357 19.1685 22.5075 17.2401 22.5075C14.6552 22.5045 12.177 21.4763 10.3491 19.6485C8.5213 17.8207 7.49312 15.3424 7.49014 12.7575ZM44.5514 19.0688L38.5514 25.0688C38.4121 25.2082 38.2466 25.3189 38.0645 25.3943C37.8825 25.4698 37.6873 25.5087 37.4901 25.5087C37.293 25.5087 37.0978 25.4698 36.9157 25.3943C36.7336 25.3189 36.5682 25.2082 36.4289 25.0688L33.4289 22.0688C33.1474 21.7873 32.9893 21.4055 32.9893 21.0075C32.9893 20.6095 33.1474 20.2277 33.4289 19.9462C33.7103 19.6648 34.0921 19.5067 34.4901 19.5067C34.8882 19.5067 35.2699 19.6648 35.5514 19.9462L37.4901 21.8869L42.4289 16.9462C42.7103 16.6648 43.0921 16.5067 43.4901 16.5067C43.8882 16.5067 44.2699 16.6648 44.5514 16.9463C44.8328 17.2277 44.991 17.6095 44.991 18.0075C44.991 18.4055 44.8328 18.7873 44.5514 19.0688Z" fill="#326AFD"/>
</svg>
