<svg width="42" height="27" viewBox="0 0 42 27" fill="none" xmlns="http://www.w3.org/2000/svg">
<path d="M40.5008 4.64701e-07H28.5008C28.204 -0.000233141 27.9138 0.0876138 27.6669 0.25242C27.42 0.417226 27.2275 0.651581 27.1139 0.925815C27.0003 1.20005 26.9706 1.50183 27.0285 1.79296C27.0865 2.08409 27.2296 2.35147 27.4396 2.56125L32.3802 7.5L22.5008 17.3794L16.0621 10.9388C15.9228 10.7993 15.7573 10.6886 15.5752 10.6132C15.3931 10.5377 15.198 10.4988 15.0008 10.4988C14.8037 10.4988 14.6085 10.5377 14.4264 10.6132C14.2443 10.6886 14.0789 10.7993 13.9396 10.9388L0.439584 24.4387C0.158123 24.7202 0 25.102 0 25.5C0 25.898 0.158123 26.2798 0.439584 26.5613C0.721045 26.8427 1.10279 27.0008 1.50083 27.0008C1.89888 27.0008 2.28062 26.8427 2.56208 26.5613L15.0008 14.1206L21.4396 20.5613C21.5789 20.7007 21.7443 20.8114 21.9264 20.8868C22.1085 20.9623 22.3037 21.0012 22.5008 21.0012C22.698 21.0012 22.8931 20.9623 23.0752 20.8868C23.2573 20.8114 23.4228 20.7007 23.5621 20.5613L34.5008 9.62063L39.4396 14.5613C39.6494 14.7713 39.9167 14.9143 40.2079 14.9723C40.499 15.0303 40.8008 15.0006 41.075 14.8869C41.3493 14.7733 41.5836 14.5809 41.7484 14.334C41.9132 14.0871 42.0011 13.7968 42.0008 13.5V1.5C42.0008 1.10218 41.8428 0.720645 41.5615 0.439341C41.2802 0.158036 40.8987 4.64701e-07 40.5008 4.64701e-07ZM39.0008 9.87938L32.1215 3H39.0008V9.87938Z" fill="#326AFD"/>
</svg>
