<svg width="32" height="32" viewBox="0 0 32 32" fill="none" xmlns="http://www.w3.org/2000/svg">
<path opacity="0.2" d="M7 7V13.887C7 18.8496 10.9693 22.963 15.9318 22.9997C17.1194 23.0088 18.297 22.7826 19.3968 22.3344C20.4966 21.8861 21.4968 21.2246 22.3398 20.388C23.1828 19.5514 23.8518 18.5563 24.3084 17.4599C24.7649 16.3635 25 15.1876 25 14V7C25 6.73478 24.8946 6.48043 24.7071 6.29289C24.5196 6.10536 24.2652 6 24 6H8C7.73478 6 7.48043 6.10536 7.29289 6.29289C7.10536 6.48043 7 6.73478 7 7Z" fill="#29A383"/>
<path d="M7 7V13.887C7 18.8496 10.9693 22.963 15.9318 22.9997C17.1194 23.0088 18.297 22.7826 19.3968 22.3344C20.4966 21.8861 21.4968 21.2246 22.3398 20.388C23.1828 19.5514 23.8518 18.5563 24.3084 17.4599C24.7649 16.3635 25 15.1876 25 14V7C25 6.73478 24.8946 6.48043 24.7071 6.29289C24.5196 6.10536 24.2652 6 24 6H8C7.73478 6 7.48043 6.10536 7.29289 6.29289C7.10536 6.48043 7 6.73478 7 7Z" stroke="#29A383" stroke-width="2" stroke-linecap="round" stroke-linejoin="round"/>
<path d="M12 28H20" stroke="#29A383" stroke-width="2" stroke-linecap="round" stroke-linejoin="round"/>
<path d="M16 23V28" stroke="#29A383" stroke-width="2" stroke-linecap="round" stroke-linejoin="round"/>
<path d="M24.7773 16H26.0004C27.0613 16 28.0787 15.5786 28.8288 14.8284C29.579 14.0783 30.0004 13.0609 30.0004 12V10C30.0004 9.73478 29.895 9.48043 29.7075 9.29289C29.52 9.10536 29.2656 9 29.0004 9H25.0004" stroke="#29A383" stroke-width="2" stroke-linecap="round" stroke-linejoin="round"/>
<path d="M7.24576 16H5.98438C4.92351 16 3.90609 15.5786 3.15595 14.8284C2.4058 14.0783 1.98438 13.0609 1.98438 12V10C1.98438 9.73478 2.08973 9.48043 2.27727 9.29289C2.4648 9.10536 2.71916 9 2.98438 9H6.98438" stroke="#29A383" stroke-width="2" stroke-linecap="round" stroke-linejoin="round"/>
</svg>
